<svg width="48" height="48" viewBox="0 0 48 48" fill="none" xmlns="http://www.w3.org/2000/svg">
<path d="M21.6916 23.8141L3.51758 5.64008C2.88008 5.00108 2.83958 4.01408 3.42758 3.42758C4.01408 2.83958 5.00258 2.88008 5.64008 3.51758L23.8141 21.6916L21.6916 23.8141Z" fill="#C6D3FF"/>
<path d="M23.0491 26.7001L20.1016 25.4041L25.4041 20.1016L26.7601 22.9876M28.8826 25.1086C28.8826 25.1086 28.3786 25.4581 44.9896 26.9581C44.9974 30.227 44.1145 33.4363 42.4359 36.2413C40.7572 39.0463 38.3461 41.3411 35.4616 42.8791C34.2363 41.8212 33.0173 40.7562 31.8046 39.6841C31.8046 39.6841 31.7746 39.7861 32.2111 44.2186C30.5077 44.7332 28.7375 44.993 26.9581 44.9896C25.6411 28.0636 25.1701 28.8211 25.1701 28.8211" fill="#2187F1"/>
<path d="M23.1195 26.628L26.628 23.121C27.1245 22.623 27.999 22.695 28.587 23.283C29.1735 23.871 29.247 24.744 28.749 25.242L25.242 28.749C24.744 29.247 23.871 29.1735 23.283 28.587C22.695 27.999 22.623 27.126 23.1195 26.628Z" fill="#C6D3FF"/>
<path d="M29.646 27.8369C29.4539 27.8403 29.2705 27.9173 29.1335 28.0519C28.9965 28.1865 28.9164 28.3684 28.9096 28.5604C28.9029 28.7523 28.9701 28.9396 29.0973 29.0835C29.2245 29.2274 29.4021 29.317 29.5935 29.3338L41.3025 30.3299C41.4022 30.3414 41.5033 30.3327 41.5996 30.3044C41.696 30.2761 41.7856 30.2287 41.8633 30.1651C41.941 30.1015 42.0052 30.0229 42.0519 29.934C42.0987 29.8452 42.1271 29.7479 42.1356 29.6478C42.144 29.5478 42.1323 29.447 42.1011 29.3516C42.0698 29.2561 42.0198 29.168 41.9538 29.0923C41.8879 29.0166 41.8074 28.9549 41.7172 28.9108C41.6269 28.8668 41.5287 28.8413 41.4285 28.8359L29.721 27.8398C29.696 27.8386 29.671 27.8386 29.646 27.8398V27.8369Z" fill="#2187F1"/>
<path fill-rule="evenodd" clip-rule="evenodd" d="M10.5449 3.78467C10.346 3.78467 10.1552 3.86365 10.0146 4.0043C9.87394 4.14496 9.79492 4.33576 9.79492 4.53467C9.79492 4.73358 9.87394 4.92429 10.0146 5.06494C10.1552 5.20559 10.346 5.28467 10.5449 5.28467H13.5449C13.7438 5.28467 13.9346 5.20559 14.0753 5.06494C14.2159 4.92429 14.2949 4.73358 14.2949 4.53467C14.2949 4.33576 14.2159 4.14496 14.0753 4.0043C13.9346 3.86365 13.7438 3.78467 13.5449 3.78467H10.5449ZM13.5449 6.78467C13.346 6.78467 13.1552 6.86374 13.0146 7.00439C12.8739 7.14505 12.7949 7.33576 12.7949 7.53467C12.7949 7.73358 12.8739 7.92429 13.0146 8.06494C13.1552 8.20559 13.346 8.28467 13.5449 8.28467H19.5449C19.7438 8.28467 19.9346 8.20559 20.0753 8.06494C20.2159 7.92429 20.2949 7.73358 20.2949 7.53467C20.2949 7.33576 20.2159 7.14505 20.0753 7.00439C19.9346 6.86374 19.7438 6.78467 19.5449 6.78467H13.5449Z" fill="#C6D3FF"/>
<path d="M17.283 4.5332C17.283 4.73212 17.2039 4.92288 17.0633 5.06353C16.9226 5.20419 16.7319 5.2832 16.533 5.2832C16.334 5.2832 16.1433 5.20419 16.0026 5.06353C15.862 4.92288 15.783 4.73212 15.783 4.5332C15.783 4.33429 15.862 4.14353 16.0026 4.00287C16.1433 3.86222 16.334 3.7832 16.533 3.7832C16.7319 3.7832 16.9226 3.86222 17.0633 4.00287C17.2039 4.14353 17.283 4.33429 17.283 4.5332Z" fill="#C6D3FF"/>
</svg>
