<svg width="48" height="48" viewBox="0 0 48 48" fill="none" xmlns="http://www.w3.org/2000/svg">
<path d="M38 8H36V6C36 4.8 35.2 4 34 4C32.8 4 32 4.8 32 6V8H16V6C16 4.8 15.2 4 14 4C12.8 4 12 4.8 12 6V8H10C6.6 8 4 10.6 4 14V16H44V14C44 10.6 41.4 8 38 8ZM4 38C4 41.4 6.6 44 10 44H38C41.4 44 44 41.4 44 38V20H4V38ZM34 24C35.2 24 36 24.8 36 26C36 27.2 35.2 28 34 28C32.8 28 32 27.2 32 26C32 24.8 32.8 24 34 24ZM34 32C35.2 32 36 32.8 36 34C36 35.2 35.2 36 34 36C32.8 36 32 35.2 32 34C32 32.8 32.8 32 34 32ZM24 24C25.2 24 26 24.8 26 26C26 27.2 25.2 28 24 28C22.8 28 22 27.2 22 26C22 24.8 22.8 24 24 24ZM24 32C25.2 32 26 32.8 26 34C26 35.2 25.2 36 24 36C22.8 36 22 35.2 22 34C22 32.8 22.8 32 24 32ZM14 24C15.2 24 16 24.8 16 26C16 27.2 15.2 28 14 28C12.8 28 12 27.2 12 26C12 24.8 12.8 24 14 24ZM14 32C15.2 32 16 32.8 16 34C16 35.2 15.2 36 14 36C12.8 36 12 35.2 12 34C12 32.8 12.8 32 14 32Z" fill="#2187F1"/>
</svg>
