<svg width="48" height="48" viewBox="0 0 48 48" fill="none" xmlns="http://www.w3.org/2000/svg">
    <path d="M43.035 36.27H4.56C3.6975 36.27 3 35.5725 3 34.71V12.06C3 11.1975 3.6975 10.5 4.56 10.5H43.035C43.8975 10.5 44.595 11.1975 44.595 12.06V34.71C44.595 35.5725 43.8975 36.27 43.035 36.27Z" fill="#2187F1"/>
    <path d="M12.8457 32.295C14.3079 32.295 15.4932 31.1097 15.4932 29.6475C15.4932 28.1853 14.3079 27 12.8457 27C11.3836 27 10.1982 28.1853 10.1982 29.6475C10.1982 31.1097 11.3836 32.295 12.8457 32.295Z" fill="#1E517F"/>
    <path d="M8.6475 32.295C10.1097 32.295 11.295 31.1097 11.295 29.6475C11.295 28.1853 10.1097 27 8.6475 27C7.18533 27 6 28.1853 6 29.6475C6 31.1097 7.18533 32.295 8.6475 32.295Z" fill="#C6D3FF"/>
</svg>
