<svg width="48" height="48" viewBox="0 0 48 48" fill="none" xmlns="http://www.w3.org/2000/svg">
<path d="M24 25.8002C24.9941 25.8002 25.8 24.9943 25.8 24.0002C25.8 23.0061 24.9941 22.2002 24 22.2002C23.0058 22.2002 22.2 23.0061 22.2 24.0002C22.2 24.9943 23.0058 25.8002 24 25.8002Z" fill="#C6D3FF"/>
<path d="M24 6C20.5928 5.9995 17.2555 6.96602 14.3759 8.78723C11.4963 10.6084 9.19278 13.2095 7.73303 16.2882C6.27327 19.3668 5.71727 22.7965 6.12965 26.1786C6.54203 29.5607 7.90586 32.7563 10.0626 35.394L6.52739 38.9274C6.27574 39.1791 6.10436 39.4998 6.03494 39.8489C5.96552 40.1981 6.00117 40.5599 6.13737 40.8888C6.27358 41.2176 6.50423 41.4987 6.80017 41.6965C7.09611 41.8943 7.44404 41.9999 7.79999 42H24C28.7739 42 33.3523 40.1036 36.7279 36.7279C40.1036 33.3523 42 28.7739 42 24C42 19.2261 40.1036 14.6477 36.7279 11.2721C33.3523 7.89642 28.7739 6 24 6ZM16.8 25.8C16.444 25.8 16.096 25.6944 15.8 25.4966C15.504 25.2989 15.2732 25.0177 15.137 24.6888C15.0008 24.3599 14.9651 23.998 15.0346 23.6488C15.104 23.2997 15.2755 22.9789 15.5272 22.7272C15.7789 22.4755 16.0997 22.304 16.4488 22.2346C16.798 22.1651 17.1599 22.2008 17.4888 22.337C17.8177 22.4733 18.0989 22.704 18.2966 23C18.4944 23.296 18.6 23.644 18.6 24C18.6 24.4774 18.4104 24.9352 18.0728 25.2728C17.7352 25.6104 17.2774 25.8 16.8 25.8ZM24 25.8C23.644 25.8 23.296 25.6944 23 25.4966C22.704 25.2989 22.4732 25.0177 22.337 24.6888C22.2008 24.3599 22.1651 23.998 22.2346 23.6488C22.304 23.2997 22.4755 22.9789 22.7272 22.7272C22.9789 22.4755 23.2997 22.304 23.6488 22.2346C23.998 22.1651 24.3599 22.2008 24.6888 22.337C25.0177 22.4733 25.2989 22.704 25.4966 23C25.6944 23.296 25.8 23.644 25.8 24C25.8 24.4774 25.6103 24.9352 25.2728 25.2728C24.9352 25.6104 24.4774 25.8 24 25.8ZM31.2 25.8C30.844 25.8 30.496 25.6944 30.2 25.4966C29.904 25.2989 29.6732 25.0177 29.537 24.6888C29.4008 24.3599 29.3651 23.998 29.4346 23.6488C29.504 23.2997 29.6755 22.9789 29.9272 22.7272C30.1789 22.4755 30.4997 22.304 30.8488 22.2346C31.198 22.1651 31.5599 22.2008 31.8888 22.337C32.2177 22.4733 32.4989 22.704 32.6966 23C32.8944 23.296 33 23.644 33 24C33 24.4774 32.8104 24.9352 32.4728 25.2728C32.1352 25.6104 31.6774 25.8 31.2 25.8Z" fill="#2187F1"/>
<path d="M16.7998 25.8002C17.7939 25.8002 18.5998 24.9943 18.5998 24.0002C18.5998 23.0061 17.7939 22.2002 16.7998 22.2002C15.8056 22.2002 14.9998 23.0061 14.9998 24.0002C14.9998 24.9943 15.8056 25.8002 16.7998 25.8002Z" fill="#C6D3FF"/>
<path d="M31.1999 25.8002C32.194 25.8002 32.9999 24.9943 32.9999 24.0002C32.9999 23.0061 32.194 22.2002 31.1999 22.2002C30.2058 22.2002 29.3999 23.0061 29.3999 24.0002C29.3999 24.9943 30.2058 25.8002 31.1999 25.8002Z" fill="#C6D3FF"/>
</svg>
