<svg width="48" height="48" viewBox="0 0 48 48" fill="none" xmlns="http://www.w3.org/2000/svg">
<path d="M43.9746 32.49L31.8042 7.75886C31.5543 7.25113 31.1513 6.83467 30.6521 6.56824C30.1529 6.3018 29.5826 6.19883 29.0217 6.27386L20.9601 7.37195L29.2743 10.1451C30.0818 10.4105 30.7845 10.9248 31.2818 11.6142C31.779 12.3037 32.0452 13.1328 32.0422 13.9828V41.3701L42.7419 36.1076C43.3844 35.7905 43.8749 35.2317 44.106 34.5536C44.337 33.8754 44.2898 33.1333 43.9746 32.49ZM17.866 16.5748C18.2241 16.5748 18.5674 16.4325 18.8206 16.1794C19.0738 15.9262 19.216 15.5828 19.216 15.2248C19.216 14.8667 19.0738 14.5233 18.8206 14.2702C18.5674 14.017 18.2241 13.8748 17.866 13.8748C17.7115 13.8736 17.5582 13.901 17.4138 13.9558L18.3453 14.6983C18.4155 14.7524 18.4742 14.8201 18.5178 14.8973C18.5614 14.9746 18.5891 15.0598 18.5992 15.1479C18.6092 15.236 18.6015 15.3253 18.5764 15.4104C18.5514 15.4955 18.5095 15.5747 18.4533 15.6433C18.3904 15.7228 18.3105 15.7872 18.2193 15.8316C18.1282 15.8761 18.0282 15.8993 17.9268 15.8998C17.7741 15.901 17.626 15.8484 17.5083 15.7513L16.543 14.975C16.5237 15.0568 16.5146 15.1407 16.516 15.2248C16.5171 15.5825 16.6596 15.9252 16.9126 16.1782C17.1655 16.4311 17.5083 16.5737 17.866 16.5748Z" fill="#2187F1"/>
<path d="M28.848 11.4243L18.0818 7.83329C17.944 7.78604 17.7943 7.78604 17.6565 7.83329L12.0878 9.68954L16.2795 13.0443C16.7383 12.7042 17.2948 12.5219 17.8658 12.5245C18.453 12.5223 19.025 12.7109 19.4957 13.0618C19.9665 13.4128 20.3106 13.9071 20.4762 14.4705C20.6417 15.0338 20.6199 15.6357 20.4139 16.1856C20.2079 16.7354 19.8288 17.2035 19.3338 17.5194C18.8389 17.8352 18.2547 17.9818 17.6692 17.937C17.0837 17.8922 16.5286 17.6585 16.0875 17.271C15.6463 16.8835 15.3429 16.3632 15.2229 15.7884C15.103 15.2136 15.1729 14.6154 15.4223 14.0838L10.569 10.1958L6.89028 11.4243C6.35133 11.6008 5.8821 11.9433 5.54984 12.4029C5.21759 12.8625 5.03939 13.4154 5.04078 13.9825V41.5495C5.04174 42.2653 5.32652 42.9515 5.83266 43.4577C6.3388 43.9638 7.02499 44.2486 7.74078 44.2495H27.9908C28.6836 44.255 29.3516 43.9914 29.8539 43.5142C30.3563 43.037 30.6539 42.3835 30.684 41.6913C30.6889 41.6442 30.6912 41.5969 30.6908 41.5495V13.9825C30.6922 13.4164 30.5148 12.8642 30.1839 12.4048C29.853 11.9454 29.3855 11.6023 28.848 11.4243ZM11.3858 23.5945C11.9128 23.0686 12.606 22.7416 13.3471 22.6694C14.0882 22.5972 14.8314 22.7841 15.4501 23.1985C16.0688 23.6128 16.5247 24.2288 16.7401 24.9416C16.9555 25.6544 16.9171 26.4198 16.6314 27.1074C16.3458 27.7951 15.8305 28.3624 15.1735 28.7127C14.5164 29.063 13.7582 29.1747 13.0281 29.0286C12.2979 28.8826 11.641 28.4879 11.1692 27.9118C10.6974 27.3358 10.44 26.6139 10.4408 25.8693C10.4425 25.0159 10.7823 24.198 11.3858 23.5945ZM11.865 36.7503C11.7761 36.7515 11.6878 36.7348 11.6055 36.7011C11.5232 36.6675 11.4484 36.6177 11.3858 36.5545C11.3232 36.4921 11.2735 36.4179 11.2396 36.3363C11.2057 36.2546 11.1883 36.1671 11.1883 36.0787C11.1883 35.9903 11.2057 35.9027 11.2396 35.8211C11.2735 35.7394 11.3232 35.6652 11.3858 35.6028L23.394 23.5945C23.4562 23.5308 23.5305 23.4799 23.6125 23.4451C23.6945 23.4102 23.7826 23.3919 23.8717 23.3914C23.9608 23.3908 24.0491 23.408 24.1315 23.4418C24.2139 23.4756 24.2888 23.5255 24.3518 23.5885C24.4148 23.6515 24.4647 23.7264 24.4985 23.8088C24.5324 23.8912 24.5495 23.9796 24.5489 24.0687C24.5484 24.1578 24.5301 24.2459 24.4953 24.3278C24.4604 24.4098 24.4096 24.4841 24.3458 24.5463L12.3375 36.5545C12.2762 36.6175 12.2027 36.6673 12.1214 36.701C12.0402 36.7346 11.9529 36.7514 11.865 36.7503ZM24.3458 36.5545C23.8187 37.0805 23.1256 37.4075 22.3845 37.4797C21.6434 37.5519 20.9002 37.3649 20.2815 36.9506C19.6628 36.5363 19.2069 35.9203 18.9915 35.2075C18.7761 34.4947 18.8145 33.7293 19.1001 33.0417C19.3858 32.354 19.901 31.7867 20.5581 31.4364C21.2151 31.0861 21.9733 30.9744 22.7035 31.1204C23.4337 31.2665 24.0906 31.6612 24.5624 32.2372C25.0341 32.8133 25.2916 33.5352 25.2908 34.2798C25.2928 34.7028 25.2102 35.1219 25.0479 35.5125C24.8856 35.9032 24.6469 36.2575 24.3458 36.5545Z" fill="#2187F1"/>
<path d="M22.0713 32.4038C21.7001 32.4026 21.3369 32.5116 21.0277 32.7169C20.7184 32.9223 20.4771 33.2148 20.3342 33.5574C20.1912 33.9 20.1532 34.2773 20.2248 34.6415C20.2965 35.0058 20.4746 35.3405 20.7366 35.6035C20.9986 35.8665 21.3327 36.0458 21.6967 36.1187C22.0607 36.1917 22.4381 36.155 22.7812 36.0133C23.1244 35.8716 23.4177 35.6313 23.6242 35.3228C23.8307 35.0143 23.9409 34.6515 23.9411 34.2803C23.941 33.7823 23.7446 33.3045 23.3943 32.9505C23.2207 32.7768 23.0144 32.639 22.7874 32.5452C22.5604 32.4513 22.317 32.4033 22.0713 32.4038ZM14.9906 27.1995C15.3408 26.8469 15.5374 26.3701 15.5374 25.8731C15.5374 25.3761 15.3408 24.8993 14.9906 24.5467C14.7288 24.2842 14.395 24.1053 14.0315 24.0327C13.668 23.96 13.2911 23.9968 12.9485 24.1385C12.6059 24.2801 12.3131 24.5202 12.107 24.8284C11.901 25.1366 11.791 25.499 11.7911 25.8697C11.7897 26.241 11.8987 26.6043 12.1042 26.9136C12.3097 27.2228 12.6025 27.4639 12.9454 27.6064C13.2882 27.7489 13.6657 27.7863 14.0298 27.7139C14.394 27.6414 14.7284 27.4624 14.9906 27.1995ZM4.84527 3.89847C4.70557 3.78824 4.52787 3.73787 4.3511 3.7584C4.17433 3.77892 4.0129 3.86867 3.90217 4.00798C3.79144 4.14728 3.74043 4.3248 3.76032 4.50164C3.78021 4.67848 3.86937 4.84023 4.00827 4.95147L10.5693 10.1962L12.088 9.68997L4.84527 3.89847Z" fill="#2187F1"/>
</svg>
