<svg width="48" height="48" viewBox="0 0 48 48" fill="none" xmlns="http://www.w3.org/2000/svg">
<path d="M38.0017 2.9961C37.0813 2.99465 36.1696 3.17488 35.3189 3.52645C34.4683 3.87801 33.6954 4.39401 33.0445 5.04486C32.3937 5.6957 31.8777 6.4686 31.5261 7.31925C31.1746 8.16991 30.9943 9.08158 30.9958 10.002C30.9945 10.922 31.1748 11.8333 31.5266 12.6834C31.8783 13.5336 32.3944 14.3059 33.0453 14.9561C33.6963 15.6062 34.4692 16.1215 35.3197 16.4722C36.1702 16.823 37.0817 17.0023 38.0017 16.9999C38.9213 17.002 39.8322 16.8225 40.6822 16.4715C41.5322 16.1206 42.3044 15.6052 42.9547 14.955C43.6049 14.3048 44.1203 13.5325 44.4712 12.6825C44.8222 11.8325 45.0017 10.9216 44.9996 10.002C45.002 9.08199 44.8227 8.17056 44.4719 7.32001C44.1212 6.46947 43.6059 5.69656 42.9558 5.04563C42.3056 4.3947 41.5332 3.87858 40.6831 3.52686C39.833 3.17515 38.9217 2.99478 38.0017 2.9961ZM37.9857 4.98208C38.1197 4.98058 38.2526 5.006 38.3766 5.05683C38.5006 5.10766 38.6131 5.18287 38.7075 5.27799C38.8018 5.37311 38.8762 5.48621 38.926 5.61059C38.9759 5.73497 39.0002 5.86809 38.9977 6.00206V9.59002L40.7027 11.295C41.8007 12.232 40.2297 13.803 39.2927 12.705L37.2927 10.703C37.1059 10.5173 36.9999 10.2654 36.9977 10.002V6.00206C36.9951 5.87007 37.0186 5.73887 37.0669 5.61601C37.1152 5.49315 37.1874 5.38108 37.2792 5.28625C37.3711 5.19143 37.4808 5.11573 37.6021 5.06352C37.7233 5.01132 37.8537 4.98363 37.9857 4.98208ZM10.998 10.002L12 10L29.0038 10.002C29.0038 11.054 29.1948 12.06 29.5288 13H10.998V10.002ZM12.004 15H30.5248C31.4004 16.3003 32.5984 17.3512 34.0018 18.0499V19.4429L26.4709 24.1538C26.3263 24.2432 26.207 24.368 26.1243 24.5164C26.0415 24.6648 25.998 24.8319 25.9979 25.0018V29.0038C25.9992 29.1726 26.0433 29.3384 26.126 29.4857C26.2087 29.6329 26.3273 29.7568 26.4709 29.8458L34.0018 34.5547V38.9977H12.004V34.5547L19.5339 29.8448C19.6756 29.7548 19.7924 29.6306 19.8735 29.4836C19.9546 29.3367 19.9974 29.1716 19.9979 29.0038V25.0018C19.9987 24.8327 19.9564 24.6661 19.875 24.5177C19.7937 24.3694 19.676 24.2442 19.5329 24.1538L12.003 19.4439L12.004 15ZM10.998 40.9976H34.9977V44.0036H10.998V40.9976Z" fill="#2187F1"/>
</svg>
