<svg viewBox="0 0 14 14">
    <path d="M1.48959236,0.282485579 L3.87714036,2.67056554 C4.82396095,2.24054763 5.88267546,2 7,2 C10.3080094,2 13.1022749,4.10851105 14,7 C13.578504,8.35759937 12.7389252,9.5425952 11.6243864,10.4177917 L13.5104076,12.3033009 L12.0961941,13.7175144 L9.83207571,11.454092 C8.96119413,11.8056677 8.00427184,12 7,12 C3.69199059,12 0.8977251,9.89148895 0,7 C0.392164123,5.73687588 1.14624699,4.62316824 2.14697451,3.76937752 L0.0753787975,1.69669914 L1.48959236,0.282485579 Z M4,7 C4,8.65685425 5.34314575,10 7,10 C7.40738587,10 7.795806,9.91879805 8.14995782,9.77169674 L4.22830326,5.85004218 C4.08120195,6.204194 4,6.59261413 4,7 Z M7,4 C6.48193114,4 5.99453362,4.13131959 5.56927834,4.36248784 L7.23439892,6.02762334 C7.59807471,6.11497364 7.88440901,6.4010497 7.972131,6.76458068 L9.63751216,8.43072166 C9.86868041,8.00546638 10,7.51806886 10,7 C10,5.34314575 8.65685425,4 7,4 Z" fill="currentColor"/>
</svg>
