<svg viewBox="0 0 14 14">
    <path d="M7,2 C10.3080094,2 13.1022749,4.10851105 14,7 C13.1022749,9.89148895 10.3080094,12 7,12 C3.69199059,12 0.8977251,9.89148895 0,7 C0.8977251,4.10851105 3.69199059,2 7,2 Z M7,4 C5.34314575,4 4,5.34314575 4,7 C4,8.65685425 5.34314575,10 7,10 C8.65685425,10 10,8.65685425 10,7 C10,5.34314575 8.65685425,4 7,4 Z M7,6 C7.55228475,6 8,6.44771525 8,7 C8,7.55228475 7.55228475,8 7,8 C6.44771525,8 6,7.55228475 6,7 C6,6.44771525 6.44771525,6 7,6 Z" fill="currentColor" />
</svg>
