<svg width="48" height="48" viewBox="0 0 48 48" fill="none" xmlns="http://www.w3.org/2000/svg">
<path d="M41.25 33.57C41.2774 33.3079 41.2493 33.043 41.1674 32.7925C41.0855 32.542 40.9518 32.3115 40.7748 32.1162C40.5979 31.9209 40.3818 31.7651 40.1406 31.6589C39.8994 31.5527 39.6385 31.4986 39.375 31.5H33.75V27C33.7502 26.5977 33.6695 26.1995 33.5127 25.829C33.3559 25.4585 33.1261 25.1233 32.8371 24.8434C32.5481 24.5636 32.2058 24.3447 31.8305 24.1998C31.4552 24.0549 31.0546 23.9869 30.6525 24C30.2718 24.0248 29.9149 24.1937 29.6543 24.4724C29.3938 24.751 29.2492 25.1185 29.25 25.5V25.785C29.2506 27.4808 28.7534 29.1394 27.8202 30.5553C26.8869 31.9712 25.5586 33.082 24 33.75H21.75V44.25H22.41C23.4284 44.2502 24.405 44.6548 25.125 45.375C25.845 46.0952 26.8216 46.4998 27.84 46.5H37.02C37.4987 46.512 37.9651 46.3473 38.3303 46.0375C38.6955 45.7277 38.9338 45.2943 39 44.82C39.0274 44.5579 38.9993 44.293 38.9174 44.0425C38.8355 43.792 38.7018 43.5615 38.5248 43.3662C38.3479 43.1709 38.1318 43.0151 37.8906 42.9089C37.6494 42.8027 37.3885 42.7486 37.125 42.75H37.77C38.2487 42.762 38.7151 42.5973 39.0803 42.2875C39.4455 41.9777 39.6838 41.5443 39.75 41.07C39.7774 40.8079 39.7493 40.543 39.6674 40.2925C39.5855 40.042 39.4518 39.8115 39.2748 39.6162C39.0979 39.4209 38.8818 39.2651 38.6406 39.1589C38.3994 39.0527 38.1385 38.9986 37.875 39H38.52C38.9987 39.012 39.4651 38.8473 39.8303 38.5375C40.1955 38.2277 40.4338 37.7943 40.5 37.32C40.5274 37.0579 40.4993 36.793 40.4174 36.5425C40.3355 36.292 40.2018 36.0615 40.0248 35.8662C39.8479 35.6709 39.6318 35.5151 39.3906 35.4089C39.1494 35.3027 38.8885 35.2486 38.625 35.25H39.27C39.7487 35.262 40.2151 35.0973 40.5803 34.7875C40.9455 34.4777 41.1838 34.0443 41.25 33.57ZM15.75 45.75H17.25V41.25C17.25 41.0511 17.329 40.8603 17.4697 40.7197C17.6103 40.579 17.8011 40.5 18 40.5C18.1989 40.5 18.3897 40.579 18.5303 40.7197C18.671 40.8603 18.75 41.0511 18.75 41.25V45.75H20.25V32.25H15.75V45.75ZM13.5 31.5H6.75V46.5H13.5C13.6989 46.5 13.8897 46.421 14.0303 46.2803C14.171 46.1397 14.25 45.9489 14.25 45.75V32.25C14.25 32.0511 14.171 31.8603 14.0303 31.7197C13.8897 31.579 13.6989 31.5 13.5 31.5ZM10.5 44.25C10.2033 44.25 9.91332 44.162 9.66664 43.9972C9.41997 43.8324 9.22771 43.5981 9.11418 43.324C9.00065 43.0499 8.97094 42.7483 9.02882 42.4574C9.0867 42.1664 9.22956 41.8991 9.43934 41.6893C9.64912 41.4796 9.91639 41.3367 10.2074 41.2788C10.4983 41.2209 10.7999 41.2506 11.074 41.3642C11.3481 41.4777 11.5824 41.67 11.7472 41.9166C11.912 42.1633 12 42.4533 12 42.75C12 43.1478 11.842 43.5294 11.5607 43.8107C11.2794 44.092 10.8978 44.25 10.5 44.25ZM21.75 21V25.5L26.25 21H30C31.3924 21 32.7277 20.4469 33.7123 19.4623C34.6969 18.4777 35.25 17.1424 35.25 15.75V6.75C35.25 5.35761 34.6969 4.02226 33.7123 3.03769C32.7277 2.05312 31.3924 1.5 30 1.5H18C16.6076 1.5 15.2723 2.05312 14.2877 3.03769C13.3031 4.02226 12.75 5.35761 12.75 6.75V15.75C12.75 17.1424 13.3031 18.4777 14.2877 19.4623C15.2723 20.4469 16.6076 21 18 21H21.75ZM22.2975 8.7975L24.0525 5.6325L25.8075 8.7975L29.355 9.4875L26.895 12.135L27.33 15.75L24.0525 14.25L20.775 15.75L21.21 12.1575L18.75 9.4875L22.2975 8.7975Z" fill="#2187F1"/>
</svg>
