<svg width="48" height="48" viewBox="0 0 48 48" fill="none" xmlns="http://www.w3.org/2000/svg">
<path d="M18.6074 21.1501C18.6074 21.8701 18.3214 22.5607 17.8122 23.0698C17.3031 23.579 16.6125 23.8651 15.8924 23.8651H12.2699C11.5499 23.8651 10.8593 23.579 10.3501 23.0698C9.84098 22.5607 9.55493 21.8701 9.55493 21.1501C9.55493 20.43 9.84098 19.7394 10.3501 19.2303C10.8593 18.7211 11.5499 18.4351 12.2699 18.4351C12.4784 18.4403 16.2464 18.4043 16.3124 18.4726C16.952 18.5705 17.5353 18.8945 17.9563 19.3858C18.3774 19.8771 18.6084 20.503 18.6074 21.1501Z" fill="#C6D3FF"/>
<path d="M41.2349 18.4351L37.6124 37.4401C37.6124 37.4401 30.3749 44.6851 15.8924 40.1551C14.6294 33.8971 13.1474 23.9408 16.7924 18.4351C19.1752 18.6653 30.0502 19.7116 32.1824 19.9201C34.0627 19.6103 39.4289 18.7276 41.2349 18.4351Z" fill="#C6D3FF"/>
<path opacity="0.1" d="M19.4999 37.44C19.4999 38.1601 19.2138 38.8507 18.7047 39.3598C18.1955 39.869 17.5049 40.155 16.7849 40.155H14.9699C14.2498 40.155 13.5592 39.869 13.0501 39.3598C12.5409 38.8507 12.2549 38.1601 12.2549 37.44C12.2549 36.72 12.5409 36.0294 13.0501 35.5202C13.5592 35.0111 14.2498 34.725 14.9699 34.725C15.2849 34.7393 16.9274 34.6875 17.2049 34.7625C17.8445 34.8605 18.4277 35.1845 18.8488 35.6758C19.2699 36.167 19.5009 36.793 19.4999 37.44Z" fill="black"/>
<path opacity="0.1" d="M19.5 32.0104C19.5 32.3669 19.4298 32.72 19.2933 33.0494C19.1569 33.3788 18.9569 33.6781 18.7048 33.9302C18.4527 34.1823 18.1534 34.3823 17.824 34.5187C17.4946 34.6552 17.1415 34.7254 16.785 34.7254H13.1625C12.4424 34.7254 11.7519 34.4394 11.2427 33.9302C10.7336 33.421 10.4475 32.7305 10.4475 32.0104C10.4475 31.2903 10.7336 30.5998 11.2427 30.0906C11.7519 29.5815 12.4424 29.2954 13.1625 29.2954H16.785C17.5048 29.2964 18.1948 29.5828 18.7037 30.0917C19.2127 30.6007 19.499 31.2907 19.5 32.0104Z" fill="black"/>
<path d="M18.6073 37.44C18.6073 38.1601 18.3213 38.8507 17.8121 39.3598C17.3029 39.869 16.6124 40.155 15.8923 40.155H14.0773C13.3572 40.155 12.6667 39.869 12.1575 39.3598C11.6483 38.8507 11.3623 38.1601 11.3623 37.44C11.3623 36.72 11.6483 36.0294 12.1575 35.5202C12.6667 35.0111 13.3572 34.725 14.0773 34.725C14.3923 34.7393 16.0348 34.6875 16.3123 34.7625C16.9519 34.8605 17.5351 35.1845 17.9562 35.6758C18.3773 36.167 18.6083 36.793 18.6073 37.44Z" fill="#C6D3FF"/>
<path d="M18.6074 32.0103C18.6074 32.7303 18.3214 33.4209 17.8122 33.9301C17.3031 34.4392 16.6125 34.7253 15.8924 34.7253H12.2699C11.5499 34.7253 10.8593 34.4392 10.3502 33.9301C9.84099 33.4209 9.55495 32.7303 9.55495 32.0103C9.55495 31.2902 9.84099 30.5996 10.3502 30.0905C10.8593 29.5813 11.5499 29.2953 12.2699 29.2953H15.8924C16.6122 29.2963 17.3022 29.5826 17.8111 30.0916C18.3201 30.6005 18.6065 31.2905 18.6074 32.0103ZM12.2699 29.2945H15.8902C16.6104 29.2945 17.301 29.0084 17.8103 28.4992C18.3195 27.99 18.6056 27.2993 18.6056 26.5791C18.6056 25.859 18.3195 25.1683 17.8103 24.6591C17.301 24.1499 16.6104 23.8638 15.8902 23.8638H12.2692C11.5491 23.8638 10.8586 24.1498 10.3494 24.659C9.84024 25.1681 9.5542 25.8587 9.5542 26.5788C9.5542 27.2988 9.84024 27.9894 10.3494 28.4986C10.8586 29.0077 11.5491 29.2938 12.2692 29.2938L12.2699 29.2945Z" fill="#C6D3FF"/>
<path d="M6.74991 37.3878L3.99741 37.8753C3.77299 37.9134 3.54285 37.8998 3.32442 37.8358C3.10598 37.7718 2.90498 37.6589 2.73661 37.5057C2.56825 37.3525 2.43694 37.163 2.35262 36.9516C2.26829 36.7402 2.23317 36.5123 2.24991 36.2853C2.25156 36.235 2.25657 36.1849 2.26491 36.1353L2.75241 33.3828C3.72854 33.6056 4.62178 34.0998 5.32909 34.8085C6.0364 35.5171 6.52895 36.4113 6.74991 37.3878Z" fill="#C6D3FF"/>
<path d="M10.7474 36.6376C10.8974 36.6961 6.80094 37.3628 6.74994 37.3876C6.52898 36.411 6.03643 35.5169 5.32912 34.8082C4.62181 34.0996 3.72856 33.6054 2.75244 33.3826L3.41244 29.6251C3.43494 29.5501 3.45744 29.4676 3.48744 29.3926C5.28834 29.7242 6.94632 30.5942 8.2425 31.8877C9.53867 33.1812 10.4121 34.8374 10.7474 36.6376Z" fill="#4CD0F7"/>
<path opacity="0.1" d="M18.6074 21.1503C18.6074 21.8704 18.3213 22.561 17.8122 23.0701C17.303 23.5793 16.6124 23.8653 15.8924 23.8653H12.2699C11.6914 23.867 11.1277 23.6828 10.6618 23.3398C10.1959 22.9968 9.85259 22.5132 9.68237 21.9603L13.2074 18.4353C13.5074 18.4503 16.0889 18.3963 16.3124 18.4728C16.9519 18.5708 17.5352 18.8948 17.9563 19.3861C18.3774 19.8774 18.6084 20.5033 18.6074 21.1503ZM13.8899 34.7328C13.6184 34.9728 11.6639 37.0443 11.3774 37.1553C11.4438 36.5203 11.7322 35.9291 12.1918 35.4859C12.6515 35.0427 13.2528 34.776 13.8899 34.7328Z" fill="black"/>
<path opacity="0.1" d="M29.0099 19.6126L13.8974 34.7251H12.2699C11.5499 34.7251 10.8593 34.439 10.3501 33.9299C9.84098 33.4207 9.55493 32.7301 9.55493 32.0101C9.55493 31.29 9.84098 30.5994 10.3501 30.0903C10.8593 29.5811 11.5499 29.2951 12.2699 29.2951H14.5349C14.4374 25.2826 14.9099 21.0751 16.7924 18.4351L29.0099 19.6126Z" fill="black"/>
<path d="M33.7573 13.0277C33.7791 13.2487 33.7514 13.4717 33.6762 13.6806C33.6009 13.8895 33.48 14.079 33.3223 14.2352C27.6216 19.7732 16.7353 31.1432 10.7473 36.6377C10.412 34.8375 9.53854 33.1813 8.24236 31.8878C6.94619 30.5944 5.2882 29.7244 3.4873 29.3927C6.3163 26.0852 14.3488 18.514 17.2573 15.4502L25.9123 6.79523C26.0649 6.64338 26.2483 6.52598 26.4502 6.45095C26.652 6.37591 26.8675 6.34498 27.0823 6.36023C28.8103 6.48431 30.4359 7.22641 31.6616 8.45076C32.8874 9.67511 33.6313 11.2999 33.7573 13.0277Z" fill="#2187F1"/>
<path opacity="0.1" d="M34.8974 18.8702C34.8749 24.3377 34.8374 29.7977 34.8149 35.2652C29.5656 34.3502 24.2084 29.3162 24.8174 23.3777C22.1654 22.7852 16.9859 21.6144 15.2174 21.2252C14.7625 21.1409 14.3323 20.9557 13.9584 20.6831C13.5846 20.4105 13.2767 20.0576 13.0574 19.6502L17.2574 15.4502L31.0949 16.1027C31.2031 16.1078 31.3109 16.1203 31.4174 16.1402C31.6541 16.1864 31.8819 16.2699 32.0924 16.3877C32.2574 16.4327 34.6574 18.6752 34.8974 18.8702Z" fill="black"/>
<path d="M34.8974 18.87C34.8749 24.3375 34.8499 29.8025 34.8224 35.265C29.9399 34.3538 25.2397 28.968 25.8449 23.3775C23.5102 22.7985 18.7844 21.6045 17.2274 21.225C16.8235 21.1296 16.445 20.9482 16.1175 20.6932C15.7901 20.4382 15.5214 20.1157 15.3299 19.7475C15.0874 19.2843 14.9713 18.7653 14.9934 18.2429C15.0154 17.7205 15.1748 17.2132 15.4555 16.772C15.7361 16.3309 16.1281 15.9715 16.592 15.7302C17.0558 15.4889 17.5751 15.3741 18.0974 15.3975L31.4849 16.1025C31.802 16.1192 32.1094 16.2174 32.3774 16.3875C32.5274 16.4325 34.6799 18.675 34.8974 18.87Z" fill="#C6D3FF"/>
<path d="M45.7575 18.1279V32.3105C45.7993 33.5927 45.5689 34.8692 45.0816 36.056C44.5942 37.2427 43.8609 38.3127 42.93 39.1954C40.89 41.3082 37.4722 41.0899 35.64 40.3654C35.2805 40.1958 34.9803 39.922 34.7784 39.5796C34.5765 39.2373 34.4821 38.8421 34.5075 38.4454V18.1279C34.5075 17.0329 35.1825 16.1479 36.0075 16.1479H44.265C45.09 16.1479 45.7575 17.0329 45.7575 18.1279Z" fill="#2187F1"/>
</svg>
