<svg width="48" height="48" viewBox="0 0 48 48" fill="none" xmlns="http://www.w3.org/2000/svg">
<path d="M24.0001 22.215L43.1701 9.9C42.3994 9.32192 41.4635 9.00645 40.5001 9H7.50008C6.53668 9.00645 5.60079 9.32192 4.83008 9.9L24.0001 22.215Z" fill="#2187F1"/>
<path d="M24.81 25.2606L24.555 25.3806H24.435C24.2969 25.4423 24.1502 25.4828 24 25.5006C23.8755 25.5163 23.7495 25.5163 23.625 25.5006H23.505L23.25 25.3806L3.15 12.3906C3.05397 12.7529 3.00358 13.1258 3 13.5006V34.5006C3 35.6941 3.47411 36.8387 4.31802 37.6826C5.16193 38.5265 6.30653 39.0006 7.5 39.0006H40.5C41.6935 39.0006 42.8381 38.5265 43.682 37.6826C44.5259 36.8387 45 35.6941 45 34.5006V13.5006C44.9964 13.1258 44.946 12.7529 44.85 12.3906L24.81 25.2606Z" fill="#2187F1"/>
</svg>
