<svg width="48" height="48" viewBox="0 0 48 48" fill="none" xmlns="http://www.w3.org/2000/svg">
<path d="M25.8 16.7992C27.2322 16.7992 28.6057 17.3681 29.6184 18.3808C30.6311 19.3935 31.2 20.7671 31.2 22.1992C31.2 22.6766 31.3896 23.1344 31.7272 23.472C32.0648 23.8096 32.5226 23.9992 33 23.9992C33.4774 23.9992 33.9352 23.8096 34.2728 23.472C34.6104 23.1344 34.8 22.6766 34.8 22.1992C34.8 19.8123 33.8518 17.5231 32.164 15.8353C30.4761 14.1474 28.1869 13.1992 25.8 13.1992C25.3226 13.1992 24.8648 13.3889 24.5272 13.7264C24.1896 14.064 24 14.5218 24 14.9992C24 15.4766 24.1896 15.9344 24.5272 16.272C24.8648 16.6096 25.3226 16.7992 25.8 16.7992Z" fill="#2187F1"/>
<path d="M25.8 9.6C29.1417 9.6 32.3466 10.9275 34.7095 13.2905C37.0725 15.6534 38.4 18.8583 38.4 22.2C38.4 22.6774 38.5896 23.1352 38.9272 23.4728C39.2648 23.8104 39.7226 24 40.2 24C40.6774 24 41.1352 23.8104 41.4728 23.4728C41.8104 23.1352 42 22.6774 42 22.2C42 17.9035 40.2932 13.783 37.2551 10.7449C34.217 7.70678 30.0965 6 25.8 6C25.3226 6 24.8648 6.18964 24.5272 6.52721C24.1896 6.86477 24 7.32261 24 7.8C24 8.27739 24.1896 8.73523 24.5272 9.07279C24.8648 9.41036 25.3226 9.6 25.8 9.6ZM41.55 31.038C41.451 30.749 41.2801 30.49 41.0534 30.2853C40.8266 30.0807 40.5516 29.937 40.254 29.868L29.454 27.402C29.1608 27.3355 28.8557 27.3435 28.5665 27.4253C28.2772 27.507 28.013 27.6599 27.798 27.87C27.546 28.104 27.528 28.122 26.358 30.354C22.4758 28.5651 19.365 25.4415 17.592 21.552C19.878 20.4 19.896 20.4 20.13 20.13C20.3401 19.915 20.493 19.6508 20.5747 19.3615C20.6565 19.0723 20.6645 18.7672 20.598 18.474L18.132 7.8C18.063 7.50245 17.9193 7.22737 17.7147 7.00064C17.51 6.77391 17.251 6.603 16.962 6.504C16.5416 6.35386 16.1076 6.24534 15.666 6.18C15.2111 6.07451 14.7468 6.01422 14.28 6C12.084 6 9.97796 6.87235 8.42516 8.42516C6.87235 9.97796 6 12.084 6 14.28C6.00953 21.6289 8.93308 28.674 14.1295 33.8705C19.326 39.0669 26.3711 41.9905 33.72 42C34.8073 42 35.884 41.7858 36.8886 41.3697C37.8932 40.9536 38.806 40.3437 39.5748 39.5748C40.3437 38.806 40.9536 37.8932 41.3697 36.8886C41.7858 35.884 42 34.8073 42 33.72C42.0006 33.2618 41.9644 32.8044 41.892 32.352C41.8164 31.9049 41.7019 31.4652 41.55 31.038Z" fill="#2187F1"/>
</svg>
