<svg width="48" height="48" viewBox="0 0 48 48" fill="none" xmlns="http://www.w3.org/2000/svg">
<path d="M42 1.5H18C16.8066 1.5 15.662 1.97411 14.818 2.81802C13.9741 3.66193 13.5 4.80653 13.5 6V21C13.5 22.1935 13.9741 23.3381 14.818 24.182C15.662 25.0259 16.8066 25.5 18 25.5H42C43.1935 25.5 44.3381 25.0259 45.182 24.182C46.0259 23.3381 46.5 22.1935 46.5 21V6C46.5 4.80653 46.0259 3.66193 45.182 2.81802C44.3381 1.97411 43.1935 1.5 42 1.5ZM33 12C33.3979 12 33.7794 12.158 34.0607 12.4393C34.342 12.7206 34.5 13.1022 34.5 13.5V18.3C34.5 18.6978 34.342 19.0794 34.0607 19.3607C33.7794 19.642 33.3979 19.8 33 19.8H31.635C31.5442 20.1116 31.3547 20.3853 31.095 20.58C30.8354 20.7747 30.5196 20.88 30.195 20.88C29.8705 20.88 29.5547 20.7747 29.295 20.58C29.0354 20.3853 28.8459 20.1116 28.755 19.8H27C26.6022 19.8 26.2207 19.642 25.9394 19.3607C25.6581 19.0794 25.5 18.6978 25.5 18.3C25.5 17.9022 25.6581 17.5206 25.9394 17.2393C26.2207 16.958 26.6022 16.8 27 16.8H31.5V15H27C26.6022 15 26.2207 14.842 25.9394 14.5607C25.6581 14.2794 25.5 13.8978 25.5 13.5V8.7C25.5 8.30217 25.6581 7.92064 25.9394 7.63934C26.2207 7.35803 26.6022 7.2 27 7.2H28.755C28.8459 6.88843 29.0354 6.61473 29.295 6.42C29.5547 6.22527 29.8705 6.12 30.195 6.12C30.5196 6.12 30.8354 6.22527 31.095 6.42C31.3547 6.61473 31.5442 6.88843 31.635 7.2H33C33.3979 7.2 33.7794 7.35803 34.0607 7.63934C34.342 7.92064 34.5 8.30217 34.5 8.7C34.5 9.09782 34.342 9.47935 34.0607 9.76066C33.7794 10.042 33.3979 10.2 33 10.2H28.5V12H33ZM42 33.675L36 34.905C36.0147 34.6152 36.0147 34.3248 36 34.035C35.9845 33.4414 35.8517 32.8567 35.6092 32.3147C35.3667 31.7726 35.0193 31.2839 34.587 30.8768C34.1548 30.4696 33.6462 30.1521 33.0906 29.9424C32.5351 29.7327 31.9435 29.635 31.35 29.655C29.4009 29.7146 27.4661 29.3029 25.71 28.455L22.875 27.21C22.1138 26.8811 21.2666 26.8074 20.46 27C20.3559 27.0139 20.2546 27.0443 20.16 27.09L18.3 27.93C18.8493 29.4207 18.9942 31.0302 18.72 32.595L16.95 42.105C16.95 42.33 16.83 42.54 16.77 42.765L24.795 45.855C25.8738 46.2834 27.0243 46.5023 28.185 46.5C29.3726 46.4994 30.549 46.2702 31.65 45.825L44.085 40.785C44.9911 40.4161 45.7231 39.7165 46.1325 38.828C46.542 37.9394 46.5983 36.9285 46.29 36C45.9752 35.1605 45.3677 34.463 44.5795 34.0359C43.7912 33.6087 42.8752 33.4805 42 33.675ZM12 25.935L3.27003 24.615C3.05298 24.5753 2.82984 24.5839 2.61651 24.6403C2.40319 24.6968 2.20494 24.7995 2.0359 24.9414C1.86685 25.0832 1.73118 25.2606 1.63856 25.4608C1.54593 25.6611 1.49863 25.8793 1.50003 26.1V44.1C1.50003 44.4978 1.65807 44.8794 1.93937 45.1607C2.22067 45.442 2.60221 45.6 3.00003 45.6H9.60003C10.6914 45.5555 11.7316 45.1258 12.5362 44.3871C13.3408 43.6484 13.8576 42.6486 13.995 41.565L15.765 32.04C15.9026 31.3047 15.8926 30.5494 15.7355 29.8181C15.5784 29.0867 15.2774 28.3939 14.85 27.78C14.5242 27.2959 14.1037 26.8829 13.6139 26.5658C13.124 26.2487 12.5751 26.0341 12 25.935Z" fill="#2187F1"/>
</svg>
