<svg width="48" height="48" viewBox="0 0 48 48" fill="none" xmlns="http://www.w3.org/2000/svg">
<g clip-path="url(#clip0_12138_78629)">
<path d="M44.25 12.75H3.75C2.09315 12.75 0.75 14.0931 0.75 15.75V36.75C0.75 38.4069 2.09315 39.75 3.75 39.75H44.25C45.9069 39.75 47.25 38.4069 47.25 36.75V15.75C47.25 14.0931 45.9069 12.75 44.25 12.75Z" fill="#2187F1"/>
<path d="M24 35.25C28.9706 35.25 33 31.2206 33 26.25C33 21.2794 28.9706 17.25 24 17.25C19.0294 17.25 15 21.2794 15 26.25C15 31.2206 19.0294 35.25 24 35.25Z" fill="#F9F9F9"/>
<path d="M47.25 15.75V19.095C46.429 19.8406 45.359 20.2525 44.25 20.25C43.0565 20.25 41.9119 19.7759 41.068 18.932C40.2241 18.0881 39.75 16.9435 39.75 15.75C39.7475 14.641 40.1594 13.571 40.905 12.75H44.25C45.0449 12.7524 45.8066 13.0692 46.3687 13.6313C46.9308 14.1934 47.2476 14.9551 47.25 15.75ZM47.25 33.405V36.75C47.2476 37.5449 46.9308 38.3066 46.3687 38.8687C45.8066 39.4308 45.0449 39.7476 44.25 39.75H40.905C40.1596 38.9289 39.7476 37.859 39.75 36.75C39.75 35.5565 40.2241 34.4119 41.068 33.568C41.9119 32.7241 43.0565 32.25 44.25 32.25C45.359 32.2475 46.429 32.6594 47.25 33.405ZM8.25 15.75C8.25 16.9435 7.77589 18.0881 6.93198 18.932C6.08807 19.7759 4.94347 20.25 3.75 20.25C2.641 20.2524 1.57109 19.8404 0.75 19.095V15.75C0.752374 14.9551 1.06921 14.1934 1.6313 13.6313C2.1934 13.0692 2.95508 12.7524 3.75 12.75H7.095C7.84058 13.571 8.25251 14.641 8.25 15.75ZM8.25 36.75C8.25236 37.859 7.84045 38.9289 7.095 39.75H3.75C2.95508 39.7476 2.1934 39.4308 1.6313 38.8687C1.06921 38.3066 0.752374 37.5449 0.75 36.75V33.405C1.57109 32.6596 2.641 32.2476 3.75 32.25C4.94347 32.25 6.08807 32.7241 6.93198 33.568C7.77589 34.4119 8.25 35.5565 8.25 36.75Z" fill="#F9F9F9"/>
<path d="M23.25 22.5H24.75C25.1478 22.5 25.5294 22.658 25.8107 22.9393C26.092 23.2206 26.25 23.6022 26.25 24C26.25 24.1989 26.329 24.3897 26.4697 24.5303C26.6103 24.671 26.8011 24.75 27 24.75C27.1989 24.75 27.3897 24.671 27.5303 24.5303C27.671 24.3897 27.75 24.1989 27.75 24C27.75 23.2044 27.4339 22.4413 26.8713 21.8787C26.3087 21.3161 25.5456 21 24.75 21V20.25C24.75 20.0511 24.671 19.8603 24.5303 19.7197C24.3897 19.579 24.1989 19.5 24 19.5C23.8011 19.5 23.6103 19.579 23.4697 19.7197C23.329 19.8603 23.25 20.0511 23.25 20.25V21C22.4544 21 21.6913 21.3161 21.1287 21.8787C20.5661 22.4413 20.25 23.2044 20.25 24C20.25 24.7956 20.5661 25.5587 21.1287 26.1213C21.6913 26.6839 22.4544 27 23.25 27H24.75C25.1478 27 25.5294 27.158 25.8107 27.4393C26.092 27.7206 26.25 28.1022 26.25 28.5C26.25 28.8978 26.092 29.2794 25.8107 29.5607C25.5294 29.842 25.1478 30 24.75 30H23.25C22.8522 30 22.4706 29.842 22.1893 29.5607C21.908 29.2794 21.75 28.8978 21.75 28.5C21.75 28.3011 21.671 28.1103 21.5303 27.9697C21.3897 27.829 21.1989 27.75 21 27.75C20.8011 27.75 20.6103 27.829 20.4697 27.9697C20.329 28.1103 20.25 28.3011 20.25 28.5C20.25 29.2956 20.5661 30.0587 21.1287 30.6213C21.6913 31.1839 22.4544 31.5 23.25 31.5V32.25C23.25 32.4489 23.329 32.6397 23.4697 32.7803C23.6103 32.921 23.8011 33 24 33C24.1989 33 24.3897 32.921 24.5303 32.7803C24.671 32.6397 24.75 32.4489 24.75 32.25V31.5C25.5456 31.5 26.3087 31.1839 26.8713 30.6213C27.4339 30.0587 27.75 29.2956 27.75 28.5C27.75 27.7044 27.4339 26.9413 26.8713 26.3787C26.3087 25.8161 25.5456 25.5 24.75 25.5H23.25C22.8522 25.5 22.4706 25.342 22.1893 25.0607C21.908 24.7794 21.75 24.3978 21.75 24C21.75 23.6022 21.908 23.2206 22.1893 22.9393C22.4706 22.658 22.8522 22.5 23.25 22.5ZM24 16.5C22.0716 16.5 20.1866 17.0718 18.5832 18.1432C16.9798 19.2145 15.7301 20.7373 14.9922 22.5188C14.2542 24.3004 14.0611 26.2608 14.4373 28.1521C14.8135 30.0434 15.7421 31.7807 17.1057 33.1443C18.4693 34.5079 20.2066 35.4365 22.0979 35.8127C23.9892 36.1889 25.9496 35.9958 27.7312 35.2578C29.5127 34.5199 31.0355 33.2702 32.1068 31.6668C33.1782 30.0634 33.75 28.1784 33.75 26.25C33.7468 23.6651 32.7186 21.187 30.8908 19.3592C29.063 17.5314 26.5849 16.5032 24 16.5ZM24 34.5C22.3683 34.5 20.7733 34.0161 19.4165 33.1096C18.0598 32.2031 17.0024 30.9146 16.378 29.4071C15.7536 27.8996 15.5902 26.2408 15.9085 24.6405C16.2269 23.0402 17.0126 21.5702 18.1664 20.4164C19.3202 19.2626 20.7902 18.4769 22.3905 18.1585C23.9908 17.8402 25.6496 18.0036 27.1571 18.628C28.6646 19.2524 29.9531 20.3098 30.8596 21.6665C31.7661 23.0233 32.25 24.6183 32.25 26.25C32.2476 28.4373 31.3777 30.5343 29.831 32.081C28.2843 33.6277 26.1873 34.4976 24 34.5ZM44.25 12H3.75C2.75544 12 1.80161 12.3951 1.09835 13.0983C0.395088 13.8016 0 14.7554 0 15.75L0 36.75C0 37.7446 0.395088 38.6984 1.09835 39.4017C1.80161 40.1049 2.75544 40.5 3.75 40.5H44.25C45.2446 40.5 46.1984 40.1049 46.9017 39.4017C47.6049 38.6984 48 37.7446 48 36.75V15.75C48 14.7554 47.6049 13.8016 46.9017 13.0983C46.1984 12.3951 45.2446 12 44.25 12ZM1.5 15.75C1.5 15.1533 1.73705 14.581 2.15901 14.159C2.58097 13.7371 3.15326 13.5 3.75 13.5H6.7245C7.2238 14.1441 7.49642 14.935 7.5 15.75C7.5 16.7446 7.10491 17.6984 6.40165 18.4017C5.69839 19.1049 4.74456 19.5 3.75 19.5C2.93505 19.4964 2.14409 19.2238 1.5 18.7245V15.75ZM6.7245 39H3.75C3.15326 39 2.58097 38.7629 2.15901 38.341C1.73705 37.919 1.5 37.3467 1.5 36.75V33.7755C2.14409 33.2762 2.93505 33.0036 3.75 33C4.74456 33 5.69839 33.3951 6.40165 34.0983C7.10491 34.8016 7.5 35.7554 7.5 36.75C7.49642 37.565 7.2238 38.3559 6.7245 39ZM46.5 36.75C46.5 37.3467 46.2629 37.919 45.841 38.341C45.419 38.7629 44.8467 39 44.25 39H41.2755C40.7762 38.3559 40.5036 37.565 40.5 36.75C40.5 35.7554 40.8951 34.8016 41.5983 34.0983C42.3016 33.3951 43.2554 33 44.25 33C45.065 33.0036 45.8559 33.2762 46.5 33.7755V36.75ZM46.5 32.0325C45.7995 31.6883 45.0305 31.5063 44.25 31.5C42.8576 31.5 41.5223 32.0531 40.5377 33.0377C39.5531 34.0223 39 35.3576 39 36.75C39.0063 37.5305 39.1883 38.2995 39.5325 39H8.4675C8.81174 38.2995 8.99374 37.5305 9 36.75C9 35.3576 8.44688 34.0223 7.46231 33.0377C6.47774 32.0531 5.14239 31.5 3.75 31.5C2.96953 31.5063 2.20049 31.6883 1.5 32.0325V20.4675C2.20049 20.8117 2.96953 20.9937 3.75 21C5.14239 21 6.47774 20.4469 7.46231 19.4623C8.44688 18.4777 9 17.1424 9 15.75C8.99374 14.9695 8.81174 14.2005 8.4675 13.5H39.5325C39.1883 14.2005 39.0063 14.9695 39 15.75C39 17.1424 39.5531 18.4777 40.5377 19.4623C41.5223 20.4469 42.8576 21 44.25 21C45.0305 20.9937 45.7995 20.8117 46.5 20.4675V32.0325ZM46.5 18.7245C45.8559 19.2238 45.065 19.4964 44.25 19.5C43.2554 19.5 42.3016 19.1049 41.5983 18.4017C40.8951 17.6984 40.5 16.7446 40.5 15.75C40.5036 14.935 40.7762 14.1441 41.2755 13.5H44.25C44.8467 13.5 45.419 13.7371 45.841 14.159C46.2629 14.581 46.5 15.1533 46.5 15.75V18.7245Z" fill="#2187F1"/>
</g>
<defs>
<clipPath id="clip0_12138_78629">
<rect width="48" height="48" fill="white"/>
</clipPath>
</defs>
</svg>
