<svg width="48" height="48" viewBox="0 0 48 48" fill="none" xmlns="http://www.w3.org/2000/svg">
<path d="M40.6981 19.7926C40.6803 18.7163 39.9434 17.7118 38.8723 17.4685C38.4111 17.3635 37.9156 17.401 37.4459 17.401H35.4908C34.9648 17.401 34.4338 17.3743 33.9163 17.4873C33.2 17.6438 32.6159 18.061 32.1153 18.5757C32.0089 18.6849 31.9025 18.7946 31.7961 18.9038H28.6803C28.2181 18.9038 27.8431 19.2779 27.8431 19.7401V20.4169H26.443C26.2738 20.4169 26.1045 20.4184 25.9358 20.4169C25.8477 20.416 25.7609 20.4104 25.6733 20.4043C25.6723 20.4043 25.6709 20.4043 25.6695 20.4038C25.6531 20.4019 25.6236 20.3968 25.6114 20.3935C25.6123 20.394 25.6142 20.394 25.6161 20.394C25.5819 20.3869 25.5477 20.3804 25.5139 20.3724C25.422 20.3509 25.3311 20.3246 25.2425 20.2937C25.2284 20.289 25.1314 20.2463 25.1272 20.2463C25.0888 20.2285 25.0513 20.2093 25.0138 20.1891C24.9233 20.1394 24.8394 20.0827 24.7531 20.0265C24.7484 20.0232 24.7442 20.0204 24.74 20.018C24.7395 20.0176 24.7391 20.0176 24.7386 20.0171C24.695 19.9805 24.6523 19.9435 24.6106 19.9051C24.5436 19.8423 24.4827 19.7743 24.4198 19.7073C24.4077 19.6946 24.3823 19.6623 24.3692 19.6454L24.3678 19.644C24.3411 19.6069 24.3158 19.5694 24.2909 19.531C24.2352 19.4438 24.1902 19.3529 24.1405 19.2624C24.1363 19.2549 24.133 19.2484 24.1292 19.2427C24.1292 19.2418 24.1288 19.2413 24.1283 19.2409C24.1273 19.238 24.1264 19.2348 24.125 19.2315C24.1063 19.1827 24.0884 19.134 24.0725 19.0848C24.0402 18.984 24.02 18.8813 23.9938 18.7796C23.9905 18.7665 23.9844 18.7294 23.982 18.7159V18.7154C23.9773 18.6713 23.9745 18.6273 23.9727 18.5832C23.9614 18.354 23.9694 18.1229 23.9694 17.8937V11.6902C23.9694 11.1924 23.9389 10.6998 23.848 10.2085C23.6539 9.15523 23.1688 8.17835 22.5008 7.34726C21.2098 5.74179 19.1173 4.83523 17.0633 4.98476C15.268 5.11554 13.5603 5.97476 12.4395 7.39413C11.4866 8.60023 11.008 10.044 11.008 11.5787C11.0075 13.5338 11.0075 15.4885 11.0075 17.4437V17.6194C11.0075 17.6302 11.008 17.6405 11.0084 17.6513C10.6864 17.746 10.4516 18.0441 10.4516 18.3971V39.4684H6.36125C5.98484 39.4684 5.67969 39.7735 5.67969 40.1494V42.3249H17.7416V40.1494C17.7416 39.7735 17.4369 39.4684 17.0605 39.4684H12.9702V18.3971C12.9702 18.0441 12.7353 17.746 12.4128 17.6513C12.4133 17.641 12.4137 17.6302 12.4137 17.6194C12.4137 15.7712 12.4138 13.9224 12.4142 12.0737C12.4142 11.844 12.4119 11.6138 12.4142 11.3841C12.417 11.1826 12.4297 10.981 12.4527 10.7809C12.4555 10.771 12.4747 10.6398 12.4808 10.6055C12.5033 10.4804 12.53 10.3562 12.5605 10.2334C12.6088 10.0402 12.6669 9.84991 12.7348 9.66335C12.7452 9.63382 12.8056 9.48523 12.808 9.47445C12.8516 9.37413 12.8989 9.27476 12.9486 9.17726C13.033 9.01273 13.1248 8.85195 13.2247 8.69632C13.2795 8.61007 13.3372 8.5257 13.3967 8.44226C13.3967 8.44226 13.4352 8.3907 13.4563 8.3621C13.4563 8.36163 13.4572 8.3607 13.4581 8.35929C13.4863 8.3246 13.5406 8.2557 13.5495 8.24538C13.8045 7.94023 14.0909 7.66132 14.4031 7.41429C14.405 7.41288 14.4069 7.41148 14.4083 7.4096C14.4083 7.4096 14.4083 7.4096 14.4088 7.4096C14.4153 7.40538 14.4228 7.40023 14.4313 7.39413C14.4645 7.3707 14.4973 7.34632 14.5311 7.32288C14.6145 7.26382 14.7003 7.20757 14.787 7.1532C14.9698 7.03882 15.1597 6.93476 15.3542 6.84195C15.3814 6.82882 15.5197 6.76929 15.5366 6.76038C15.5361 6.76038 15.5347 6.76085 15.5333 6.76085C15.6181 6.7271 15.7039 6.69523 15.7902 6.66523C15.9884 6.59679 16.19 6.53913 16.3948 6.49273C16.498 6.46929 16.602 6.44913 16.7066 6.43132C16.707 6.43132 16.7469 6.42523 16.7816 6.4196C16.7848 6.4196 16.7895 6.41866 16.7956 6.41773H16.797C16.8336 6.41351 16.902 6.40507 16.902 6.40507C17.1223 6.38304 17.3441 6.3732 17.5658 6.37601C17.6928 6.37788 17.8203 6.38351 17.9473 6.39335C17.9975 6.39757 18.0477 6.4032 18.0978 6.40741C18.1217 6.40929 18.14 6.41116 18.1531 6.41163C18.1658 6.41398 18.1841 6.41726 18.2094 6.42148C18.4531 6.46179 18.6941 6.51429 18.9317 6.58366C19.7853 6.83351 20.5489 7.30366 21.177 7.96413C21.7859 8.60491 22.2167 9.39523 22.4309 10.2915C22.5345 10.726 22.5608 10.9805 22.5631 11.4526C22.5636 11.5144 22.5631 11.5763 22.5631 11.6377V17.7535C22.5631 17.9841 22.5608 18.2148 22.5631 18.4454C22.5716 19.3285 22.91 20.1807 23.5288 20.814C24.1639 21.4632 25.0438 21.8152 25.947 21.8232C26.4298 21.8274 26.9127 21.8232 27.395 21.8232H27.8431V22.9665C27.0538 23.7629 26.2039 24.5448 25.5767 25.4715C24.7156 26.7437 24.3716 28.223 24.3716 29.7413V39.8298C24.3716 40.0801 24.3702 40.3304 24.3716 40.5807C24.3748 41.3912 24.7363 42.121 25.3963 42.5954C26.1125 43.1101 26.9727 43.028 27.8014 43.028H35.3286C35.1205 42.8157 34.9325 42.5809 34.768 42.3249C34.7277 42.2621 34.6888 42.1979 34.6513 42.1323C34.557 41.9668 34.4741 41.7962 34.4023 41.6218C34.0934 40.8666 33.9988 40.0374 34.1169 39.2391C34.2233 38.5154 34.5045 37.8169 34.9588 37.2221C34.9878 37.1841 35.0173 37.1466 35.0478 37.1096C36.2108 35.6813 38.1819 35.0452 39.9542 35.6527C40.0358 35.6809 40.1159 35.7109 40.1952 35.7432C40.4764 35.6466 40.6981 35.3457 40.6981 35.0579V20.1873C40.6981 20.056 40.7 19.9243 40.6981 19.7926ZM34.4881 23.708C34.4863 23.7362 34.483 23.7638 34.4802 23.7915C34.4806 23.7859 34.4806 23.7821 34.4806 23.7793C34.4769 23.7994 34.4652 23.8894 34.4623 23.9021C34.4422 24.0052 34.4173 24.1074 34.3883 24.2082C34.3644 24.2902 34.3367 24.3713 34.3067 24.451C34.3156 24.4243 34.265 24.5476 34.2584 24.5616C34.2317 24.6169 34.2031 24.6713 34.1736 24.7252C34.1136 24.833 34.0447 24.9334 33.9781 25.0369C33.973 25.0454 33.9594 25.0641 33.9495 25.0768C33.9495 25.0777 33.9486 25.0791 33.9472 25.0801C33.9463 25.0815 33.9453 25.0829 33.9444 25.0838C33.9172 25.1171 33.8891 25.1499 33.8609 25.1818C33.7939 25.2582 33.7231 25.3313 33.6495 25.4012C33.605 25.4434 33.5595 25.4841 33.5131 25.5235C33.5042 25.531 33.4288 25.5873 33.4194 25.5957V25.5962C33.4189 25.5966 33.4184 25.5966 33.4184 25.5966C33.2473 25.7148 33.0706 25.8151 32.8831 25.9074C32.8794 25.9093 32.8733 25.9116 32.8672 25.9144C32.8663 25.9149 32.8658 25.9154 32.8648 25.9159C32.8648 25.9159 32.8639 25.9163 32.8634 25.9163C32.8625 25.9163 32.8616 25.9168 32.8606 25.9173C32.8583 25.9182 32.8559 25.9191 32.8536 25.9201C32.8498 25.9215 32.8461 25.9229 32.8423 25.9243C32.7969 25.9416 32.7514 25.958 32.705 25.9735C32.5859 26.0134 32.4645 26.0462 32.3417 26.0719C32.2841 26.0846 32.2269 26.0949 32.1688 26.1038H32.1683C32.1627 26.1043 32.1566 26.1048 32.15 26.1052C32.0413 26.1132 31.9334 26.1198 31.8247 26.1202C31.8027 26.1207 31.7811 26.1202 31.7591 26.1202C30.7494 26.1221 29.7392 26.1202 28.7291 26.1202H26.833C26.8334 26.1198 26.8334 26.1193 26.8339 26.1188C27.1555 25.6552 27.6908 25.1419 28.1422 24.6779C28.4661 24.3446 28.7895 24.0118 29.1139 23.679C30.0889 22.6759 31.0648 21.6727 32.0403 20.6696C32.3844 20.3157 32.7289 19.9618 33.073 19.6079C33.1391 19.5399 33.2042 19.471 33.2713 19.404C33.567 19.1063 33.8872 18.9254 34.3297 18.8354C34.3569 18.8298 34.3864 18.8255 34.4173 18.8218C34.4431 18.819 34.4698 18.8166 34.498 18.8143V22.7073C34.498 23.0391 34.5134 23.3766 34.4881 23.708Z" fill="#2187F1"/>
<path d="M41.6166 39.9081C41.6157 40.0014 41.6134 40.0942 41.6063 40.1875C41.6045 40.2151 41.6016 40.2428 41.5993 40.2709C41.5993 40.2714 41.5993 40.2723 41.5988 40.2733C41.5988 40.2742 41.5988 40.2756 41.5984 40.277C41.5988 40.278 41.5984 40.2789 41.5984 40.2798C41.5984 40.2808 41.5984 40.2817 41.5979 40.2826V40.2855C41.5979 40.2864 41.5974 40.2869 41.5974 40.2873V40.2901C41.597 40.2925 41.597 40.2953 41.5965 40.2981C41.5965 40.299 41.596 40.3 41.596 40.3005C41.596 40.3023 41.5955 40.3042 41.5955 40.3065C41.5955 40.3075 41.5955 40.308 41.5951 40.3089V40.3108C41.5951 40.3131 41.5946 40.3159 41.5941 40.3183C41.5927 40.3281 41.5918 40.3365 41.5909 40.3412C41.5566 40.5297 41.5145 40.7148 41.4549 40.8972C41.4413 40.9394 41.4268 40.9815 41.4113 41.0233C41.408 41.0317 41.393 41.0706 41.3837 41.0955C41.3832 41.0959 41.3832 41.0959 41.3832 41.0964C41.3724 41.1203 41.3579 41.1531 41.3546 41.1606C41.3359 41.2005 41.3162 41.2398 41.2965 41.2787C41.2112 41.4447 41.1113 41.6008 41.0059 41.754C41.0002 41.762 40.9829 41.785 40.9726 41.7981C40.9716 41.8 40.9707 41.8014 40.9693 41.8028C40.9679 41.8047 40.967 41.8061 40.966 41.807C40.9655 41.808 40.9646 41.8084 40.9646 41.8089C40.9477 41.829 40.9309 41.8492 40.914 41.8689C40.8577 41.935 40.7987 41.9987 40.7377 42.0611C40.6768 42.123 40.6135 42.183 40.5484 42.2406C40.5277 42.2589 40.4209 42.3437 40.4096 42.3559C40.119 42.5664 39.7965 42.7337 39.542 42.8181C39.2752 42.9062 39.0484 42.9559 38.8055 42.9756H38.8051C38.6612 42.9869 38.5112 42.9873 38.3448 42.9784C38.2745 42.9747 38.2046 42.969 38.1348 42.9611C38.1348 42.9587 37.9852 42.9353 37.959 42.9301C37.7846 42.8945 37.613 42.8458 37.4452 42.7853C37.4096 42.7726 37.3749 42.759 37.3393 42.7455C37.3374 42.7445 37.3351 42.7436 37.3332 42.7426C37.3313 42.7412 37.329 42.7403 37.3262 42.7389C37.2615 42.7075 37.1959 42.677 37.1321 42.6437C36.969 42.557 36.8152 42.4572 36.6643 42.3508C36.6624 42.3494 36.6605 42.348 36.6582 42.3461C36.6554 42.3433 36.6521 42.3409 36.6493 42.3386C36.6446 42.3353 36.6395 42.3311 36.6348 42.3273C36.6245 42.3194 36.616 42.3119 36.6141 42.3095C36.5987 42.2964 36.5832 42.2833 36.5677 42.2701C36.5138 42.2233 36.4613 42.175 36.4102 42.1258C36.3516 42.069 36.2949 42.0105 36.2401 41.95C36.2223 41.9303 36.114 41.8005 36.1107 41.8005C36.0202 41.6814 35.9396 41.5544 35.8651 41.425C35.8243 41.3537 35.7859 41.2811 35.7502 41.207C35.7385 41.1836 35.7277 41.1601 35.717 41.1367C35.716 41.1353 35.7155 41.1339 35.7146 41.1315C35.7127 41.1273 35.7109 41.1231 35.7085 41.1189C35.708 41.118 35.7076 41.1165 35.7071 41.1151C35.7066 41.1137 35.7057 41.1123 35.7052 41.1109C35.7048 41.11 35.7043 41.1086 35.7038 41.1076C35.7034 41.1062 35.7024 41.1044 35.701 41.1015C35.6959 41.0894 35.6902 41.0753 35.6855 41.0622C35.6771 41.0397 35.6691 41.0172 35.6616 40.9947V40.9942C35.6138 40.8592 35.5721 40.7228 35.5398 40.5831C35.5229 40.5109 35.5093 40.4383 35.4952 40.3656C35.4934 40.3562 35.492 40.3478 35.4905 40.3403C35.484 40.2836 35.4788 40.2264 35.4746 40.1697C35.4629 39.9958 35.4629 39.8209 35.4746 39.647C35.4774 39.6081 35.4995 39.4412 35.4924 39.4726C35.5037 39.4028 35.5168 39.333 35.5323 39.264C35.5351 39.2509 35.5384 39.2378 35.5416 39.2247C35.5768 39.0751 35.6213 38.9275 35.6748 38.7831C35.6818 38.7639 35.6893 38.7447 35.6963 38.7255C35.6968 38.7255 35.6968 38.725 35.6968 38.725C35.6977 38.7226 35.6982 38.7208 35.6991 38.7184C35.7005 38.7156 35.7024 38.7114 35.7048 38.7058C35.7113 38.6912 35.7193 38.673 35.7235 38.665C35.7657 38.5825 35.8046 38.499 35.8501 38.4184C35.9284 38.2792 36.0155 38.1451 36.1102 38.0167C36.1107 38.0162 36.1107 38.0162 36.1112 38.0158C36.114 38.013 36.1168 38.0092 36.1205 38.005C36.1473 37.974 36.1726 37.9426 36.1998 37.9117C36.2602 37.8433 36.323 37.7762 36.3882 37.712C36.4463 37.6548 36.5063 37.5995 36.5677 37.5465C36.5968 37.5217 36.6259 37.4973 36.6554 37.4725C36.6568 37.4715 36.6587 37.4701 36.6601 37.4687C36.6605 37.4687 36.6605 37.4683 36.661 37.4683C36.662 37.4678 36.6629 37.4669 36.6643 37.4659C36.8068 37.3651 36.9516 37.2705 37.1054 37.1875C37.1687 37.1533 37.2338 37.1233 37.298 37.0905C37.3074 37.0858 37.3149 37.0815 37.322 37.0783C37.3529 37.0656 37.3848 37.0534 37.4162 37.0417C37.5929 36.9765 37.7743 36.9245 37.959 36.8861C37.9979 36.8781 38.1774 36.8509 38.123 36.8561C38.1859 36.849 38.2491 36.8434 38.3124 36.8397C38.5285 36.827 38.7493 36.8284 38.9645 36.8565C39.3465 36.9062 39.7327 37.0436 40.082 37.2465C40.1668 37.2958 40.2502 37.3483 40.3309 37.404C40.3538 37.42 40.3763 37.4359 40.3988 37.4523C40.3998 37.4523 40.4002 37.4533 40.4012 37.4537C40.4007 37.4533 40.4002 37.4533 40.3998 37.4533C40.4063 37.4594 40.4626 37.502 40.4743 37.5123C40.6323 37.645 40.7795 37.7908 40.914 37.9478C40.9337 37.9703 40.9529 37.9937 40.9716 38.0167C40.9754 38.0228 41.0077 38.065 41.0246 38.0889C41.0813 38.1695 41.1348 38.2515 41.1849 38.3364C41.2355 38.4212 41.2824 38.508 41.326 38.5965C41.3452 38.6359 41.364 38.6758 41.3823 38.7156C41.3837 38.7194 41.3851 38.7222 41.3865 38.7245V38.725C41.3865 38.7255 41.387 38.7259 41.3874 38.7264C41.3898 38.7339 41.3935 38.7456 41.3996 38.762C41.4704 38.9636 41.5323 39.1651 41.573 39.3747C41.5791 39.4084 41.5852 39.4417 41.5909 39.475C41.5937 39.4909 41.596 39.504 41.5979 39.5139C41.5984 39.5251 41.5993 39.5401 41.6007 39.5603C41.6091 39.6765 41.6152 39.7919 41.6166 39.9081Z" fill="#2187F1"/>
</svg>
