<svg width="48" height="48" viewBox="0 0 48 48" fill="none" xmlns="http://www.w3.org/2000/svg">
    <g clip-path="url(#clip0_14_13769)">
        <path d="M0.703125 8.39746C1.31183 8.39746 1.91457 8.51735 2.47693 8.75029C3.0393 8.98323 3.55028 9.32466 3.9807 9.75508C4.41111 10.1855 4.75254 10.6965 4.98548 11.2588C5.21842 11.8212 5.33831 12.4239 5.33831 13.0326V32.7667C5.33831 33.9961 4.84996 35.175 3.9807 36.0443C3.11143 36.9136 1.93245 37.4019 0.703125 37.4019V8.39746Z" fill="#AEADB3"/>
        <path d="M39.4799 44.5084C39.3252 44.5083 39.1748 44.4571 39.0521 44.3629C38.9294 44.2686 38.8412 44.1366 38.8012 43.9871L38.4243 42.5809C38.376 42.4008 38.4013 42.2088 38.4945 42.0473C38.5877 41.8858 38.7413 41.7679 38.9214 41.7197C39.1015 41.6714 39.2935 41.6966 39.455 41.7898C39.6165 41.8831 39.7344 42.0366 39.7826 42.2168L40.1595 43.6231C40.1874 43.7273 40.1909 43.8366 40.1698 43.9423C40.1487 44.0481 40.1035 44.1477 40.0378 44.2332C39.9721 44.3188 39.8876 44.3881 39.7909 44.4358C39.6941 44.4835 39.5877 44.5084 39.4798 44.5084H39.4799ZM38.3493 40.2895C38.1946 40.2894 38.0442 40.2382 37.9215 40.144C37.7989 40.0497 37.7107 39.9176 37.6706 39.7682L37.294 38.3619C37.2689 38.2724 37.2618 38.1788 37.2732 38.0865C37.2846 37.9942 37.3141 37.905 37.3602 37.8242C37.4062 37.7435 37.4678 37.6726 37.5415 37.6158C37.6151 37.559 37.6992 37.5173 37.7891 37.4932C37.8789 37.4692 37.9726 37.4632 38.0648 37.4756C38.1569 37.488 38.2457 37.5185 38.326 37.5655C38.4063 37.6124 38.4764 37.6748 38.5324 37.7491C38.5884 37.8233 38.6291 37.9079 38.6522 37.998L39.029 39.4043C39.0568 39.5085 39.0603 39.6177 39.0392 39.7235C39.0181 39.8293 38.973 39.9288 38.9073 40.0144C38.8416 40.1 38.7571 40.1693 38.6604 40.217C38.5636 40.2647 38.4572 40.2895 38.3493 40.2895ZM37.219 36.0706C37.0642 36.0705 36.9139 36.0193 36.7912 35.9251C36.6685 35.8309 36.5803 35.6988 36.5402 35.5494L36.1634 34.1431C36.1385 34.0536 36.1316 33.9601 36.1431 33.8679C36.1545 33.7757 36.1842 33.6867 36.2302 33.606C36.2763 33.5254 36.3379 33.4546 36.4114 33.3979C36.485 33.3411 36.5691 33.2996 36.6588 33.2755C36.7485 33.2515 36.8421 33.2454 36.9342 33.2578C37.0263 33.2701 37.115 33.3006 37.1952 33.3474C37.2755 33.3942 37.3456 33.4565 37.4016 33.5306C37.4577 33.6047 37.4985 33.6891 37.5217 33.7791L37.8985 35.1853C37.9264 35.2895 37.9299 35.3988 37.9088 35.5045C37.8877 35.6103 37.8426 35.7098 37.7769 35.7954C37.7112 35.881 37.6267 35.9503 37.53 35.998C37.4332 36.0457 37.3268 36.0706 37.219 36.0706ZM40.4155 48.0002C40.2608 48.0001 40.1105 47.9489 39.9878 47.8547C39.8651 47.7605 39.7768 47.6284 39.7368 47.4789L39.5548 46.7997C39.5085 46.6203 39.535 46.4298 39.6284 46.2697C39.7218 46.1097 39.8746 45.993 40.0537 45.945C40.2327 45.897 40.4234 45.9216 40.5843 46.0135C40.7453 46.1054 40.8634 46.2572 40.9131 46.4357L41.0951 47.1149C41.123 47.2191 41.1264 47.3284 41.1053 47.4341C41.0842 47.5399 41.0391 47.6394 40.9734 47.725C40.9077 47.8106 40.8232 47.8799 40.7265 47.9276C40.6297 47.9753 40.5233 48.0002 40.4155 48.0002H40.4155ZM42.8396 43.6072C42.6849 43.607 42.5346 43.5559 42.4119 43.4617C42.2892 43.3674 42.2009 43.2354 42.1609 43.0859L41.784 41.6791C41.7591 41.5896 41.7522 41.4961 41.7637 41.4039C41.7751 41.3117 41.8048 41.2227 41.8508 41.142C41.8969 41.0614 41.9585 40.9906 42.032 40.9339C42.1056 40.8771 42.1897 40.8356 42.2794 40.8115C42.3691 40.7875 42.4627 40.7814 42.5548 40.7938C42.6469 40.8061 42.7356 40.8366 42.8158 40.8834C42.8961 40.9302 42.9662 40.9925 43.0222 41.0666C43.0783 41.1407 43.1191 41.2251 43.1423 41.3151L43.5192 42.7219C43.547 42.8261 43.5505 42.9353 43.5294 43.0411C43.5083 43.1469 43.4632 43.2464 43.3975 43.3319C43.3318 43.4175 43.2474 43.4868 43.1506 43.5345C43.0539 43.5823 42.9475 43.6071 42.8396 43.6072ZM41.7087 39.3867C41.554 39.3866 41.4037 39.3354 41.281 39.2412C41.1583 39.147 41.0701 39.0149 41.0301 38.8655L40.6531 37.4587C40.6068 37.2792 40.6333 37.0887 40.7267 36.9287C40.8201 36.7686 40.9729 36.6519 41.1519 36.6039C41.3309 36.556 41.5217 36.5806 41.6826 36.6725C41.8435 36.7644 41.9617 36.9161 42.0114 37.0946L42.3884 38.5015C42.4162 38.6057 42.4197 38.7149 42.3986 38.8207C42.3775 38.9265 42.3324 39.026 42.2667 39.1115C42.201 39.1971 42.1165 39.2664 42.0198 39.3141C41.923 39.3618 41.8166 39.3867 41.7087 39.3867ZM40.5778 35.1664C40.4231 35.1663 40.2728 35.1151 40.15 35.0209C40.0273 34.9266 39.9391 34.7946 39.8991 34.6451L39.5222 33.2383C39.4983 33.1491 39.4922 33.0561 39.5043 32.9646C39.5163 32.873 39.5463 32.7847 39.5925 32.7048C39.6386 32.6248 39.7001 32.5547 39.7733 32.4985C39.8466 32.4423 39.9302 32.4011 40.0194 32.3772C40.1086 32.3533 40.2016 32.3472 40.2932 32.3592C40.3847 32.3713 40.473 32.4013 40.5529 32.4474C40.6329 32.4936 40.703 32.5551 40.7592 32.6283C40.8154 32.7016 40.8566 32.7852 40.8805 32.8744L41.2574 34.2812C41.2852 34.3854 41.2887 34.4946 41.2676 34.6004C41.2465 34.7062 41.2014 34.8057 41.1357 34.8912C41.07 34.9768 40.9856 35.0461 40.8888 35.0938C40.7921 35.1415 40.6857 35.1663 40.5778 35.1664ZM43.7754 47.0998C43.6207 47.0996 43.4703 47.0485 43.3476 46.9543C43.2249 46.86 43.1367 46.728 43.0966 46.5786L42.9147 45.8994C42.8665 45.7192 42.8918 45.5273 42.985 45.3658C43.0783 45.2043 43.2319 45.0865 43.412 45.0382C43.5922 44.99 43.7841 45.0153 43.9456 45.1085C44.1071 45.2018 44.2249 45.3554 44.2732 45.5355L44.455 46.2147C44.4828 46.3189 44.4863 46.4282 44.4652 46.5339C44.4441 46.6397 44.3989 46.7392 44.3333 46.8248C44.2676 46.9103 44.1831 46.9796 44.0864 47.0273C43.9896 47.075 43.8832 47.0998 43.7754 47.0998ZM46.3626 42.6621C46.2078 42.6619 46.0574 42.6107 45.9346 42.5163C45.8119 42.422 45.7237 42.2898 45.6837 42.1403L45.3075 40.7327C45.2594 40.5525 45.2848 40.3606 45.3781 40.1992C45.4715 40.0377 45.6251 39.92 45.8053 39.8718C45.9854 39.8237 46.1774 39.8491 46.3388 39.9424C46.5002 40.0358 46.618 40.1894 46.6661 40.3696L47.0424 41.7772C47.0701 41.8814 47.0735 41.9905 47.0524 42.0963C47.0313 42.202 46.9861 42.3015 46.9204 42.387C46.8547 42.4725 46.7703 42.5418 46.6736 42.5895C46.5769 42.6372 46.4705 42.662 46.3627 42.6621H46.3626ZM45.2343 38.4394C45.0795 38.4392 44.9291 38.388 44.8063 38.2936C44.6836 38.1993 44.5954 38.0671 44.5555 37.9176L44.1792 36.51C44.1554 36.4208 44.1494 36.3278 44.1615 36.2362C44.1736 36.1447 44.2036 36.0564 44.2498 35.9765C44.296 35.8966 44.3576 35.8265 44.4309 35.7703C44.5042 35.7142 44.5878 35.673 44.677 35.6492C44.7662 35.6253 44.8592 35.6193 44.9508 35.6314C45.0423 35.6435 45.1306 35.6735 45.2105 35.7197C45.2905 35.766 45.3605 35.8275 45.4167 35.9008C45.4728 35.9741 45.514 36.0577 45.5379 36.1469L45.9141 37.5545C45.9418 37.6587 45.9453 37.7679 45.9241 37.8736C45.903 37.9794 45.8578 38.0788 45.7921 38.1643C45.7264 38.2499 45.642 38.3191 45.5452 38.3668C45.4485 38.4145 45.3421 38.4393 45.2343 38.4394ZM44.1058 34.2167C43.951 34.2165 43.8006 34.1653 43.6779 34.071C43.5551 33.9766 43.467 33.8444 43.427 33.6949L43.0509 32.2872C43.0027 32.1071 43.0281 31.9152 43.1215 31.7537C43.2148 31.5923 43.3685 31.4746 43.5487 31.4264C43.7288 31.3783 43.9207 31.4037 44.0822 31.497C44.2436 31.5904 44.3613 31.7441 44.4095 31.9242L44.7856 33.3319C44.8133 33.4361 44.8168 33.5453 44.7956 33.651C44.7745 33.7567 44.7293 33.8562 44.6636 33.9417C44.5979 34.0272 44.5134 34.0965 44.4167 34.1441C44.32 34.1918 44.2137 34.2167 44.1058 34.2167ZM47.2964 46.1564C47.1416 46.1563 46.9912 46.105 46.8685 46.0107C46.7458 45.9164 46.6576 45.7842 46.6176 45.6347L46.436 44.9554C46.3878 44.7752 46.4132 44.5833 46.5066 44.4218C46.5999 44.2604 46.7536 44.1426 46.9338 44.0945C47.114 44.0463 47.3059 44.0717 47.4673 44.1651C47.6288 44.2584 47.7466 44.4121 47.7947 44.5923L47.9762 45.2716C48.0039 45.3758 48.0074 45.485 47.9862 45.5907C47.9651 45.6964 47.9199 45.7959 47.8542 45.8814C47.7885 45.9669 47.7041 46.0361 47.6074 46.0838C47.5107 46.1315 47.4043 46.1564 47.2965 46.1564H47.2964Z" fill="#52BBE9"/>
        <path d="M42.1244 29.966L37.1328 31.3036C36.7844 31.3969 36.4134 31.3529 36.0966 31.1804C35.7798 31.008 35.5413 30.7204 35.4305 30.3771L33.749 25.1669L41.6916 22.9177L43.1188 28.2438C43.1666 28.4221 43.1788 28.6082 43.1547 28.7913C43.1305 28.9744 43.0706 29.1509 42.9783 29.3108C42.8859 29.4708 42.763 29.611 42.6165 29.7234C42.47 29.8358 42.3027 29.9182 42.1244 29.966Z" fill="#C8C5CC"/>
        <path d="M43.1186 28.2438L41.6915 22.9177L39.5367 23.5279L40.8002 28.2438C40.8968 28.604 40.8462 28.9878 40.6598 29.3108C40.4733 29.6338 40.1662 29.8695 39.8059 29.966L35.8652 31.0219C36.0382 31.1674 36.2438 31.269 36.4645 31.318C36.6852 31.3671 36.9144 31.3621 37.1327 31.3036L42.1243 29.966C42.3026 29.9182 42.4699 29.8358 42.6164 29.7234C42.7629 29.611 42.8858 29.4708 42.9782 29.3108C43.0705 29.1509 43.1304 28.9744 43.1545 28.7913C43.1787 28.6082 43.1665 28.4221 43.1187 28.2438H43.1186Z" fill="#AEADB3"/>
        <path d="M44.5029 23.3897V26.415H34.2026C33.1568 25.8362 32.0279 25.4223 30.8557 25.1879C24.8211 23.9991 21.1704 28.4907 14.7786 27.5616C13.4799 27.3697 12.2176 26.9832 11.0342 26.415V19.3838H13.452C13.6367 19.3839 13.8196 19.3476 13.9902 19.2769C14.1609 19.2063 14.316 19.1027 14.4466 18.9721C14.5772 18.8415 14.6807 18.6864 14.7514 18.5158C14.822 18.3451 14.8583 18.1622 14.8582 17.9775V10.9463C14.8584 10.5734 15.0066 10.2158 15.2703 9.95206C15.534 9.68836 15.8916 9.54016 16.2645 9.54004H25.2645C25.4492 9.54003 25.632 9.57639 25.8027 9.64706C25.9733 9.71772 26.1283 9.82131 26.2589 9.95189C26.3895 10.0825 26.4931 10.2375 26.5637 10.4081C26.6344 10.5787 26.6708 10.7616 26.6707 10.9463V18.0844C26.6706 18.4382 26.804 18.779 27.0442 19.0388C27.2843 19.2986 27.6136 19.4583 27.9664 19.486L41.9117 20.5857C42.6171 20.6415 43.2756 20.9611 43.7558 21.4808C44.2361 22.0005 44.5028 22.6821 44.5029 23.3897Z" fill="#AEADB3"/>
        <path d="M41.9118 20.5857L27.9665 19.486C27.6138 19.4583 27.2845 19.2986 27.0443 19.0388C26.8042 18.779 26.6708 18.4382 26.6709 18.0844V10.9463C26.6709 10.7616 26.6345 10.5787 26.5639 10.4081C26.4932 10.2375 26.3896 10.0825 26.259 9.95189C26.1285 9.82131 25.9734 9.71772 25.8028 9.64706C25.6322 9.57639 25.4493 9.54003 25.2646 9.54004H16.2646C15.8917 9.54016 15.5341 9.68836 15.2704 9.95206C15.0067 10.2158 14.8585 10.5734 14.8584 10.9463H21.0459C21.2306 10.9463 21.4134 10.9826 21.5841 11.0533C21.7547 11.124 21.9097 11.2276 22.0403 11.3581C22.1709 11.4887 22.2745 11.6438 22.3451 11.8144C22.4158 11.985 22.4522 12.1679 22.4521 12.3525V19.4907C22.4521 19.8445 22.5854 20.1853 22.8256 20.4451C23.0657 20.7049 23.3951 20.8646 23.7478 20.8922L37.6931 21.9919C38.3985 22.0478 39.057 22.3674 39.5372 22.8871C40.0175 23.4068 40.2842 24.0884 40.2843 24.796V26.415H44.5031V23.3897C44.503 22.6821 44.2362 22.0005 43.756 21.4808C43.2757 20.9611 42.6172 20.6415 41.9118 20.5857Z" fill="#8B8893"/>
        <path d="M15.2741 3.41436C14.1827 3.69205 14.3811 5.29686 15.5072 5.29686H18.1867V9.54027H23.3429V5.29686C29.5523 4.28558 35.8807 4.24068 42.1037 5.16374C42.2102 5.17929 42.3188 5.17173 42.422 5.14156C42.5253 5.11139 42.6209 5.05932 42.7023 4.9889C42.7836 4.91848 42.8488 4.83136 42.8935 4.73347C42.9382 4.63558 42.9612 4.52921 42.9611 4.42161V2.75455C42.9613 2.57458 42.8967 2.40055 42.7792 2.26426C42.6616 2.12796 42.499 2.03851 42.3209 2.01224C33.3013 0.686228 24.1082 1.16283 15.2741 3.41446V3.41436Z" fill="#AEADB3"/>
        <path d="M42.3211 2.01219C38.6212 1.46835 34.8833 1.22646 31.1442 1.28891C30.8219 1.29429 30.5022 1.30207 30.1851 1.31225C32.8354 1.39331 35.4788 1.62701 38.1022 2.01219C38.2803 2.03842 38.443 2.12786 38.5606 2.26415C38.6782 2.40045 38.7427 2.57451 38.7426 2.7545V4.42157C38.7426 4.537 38.7158 4.65086 38.6644 4.75419C39.8145 4.85832 40.9614 4.99488 42.1039 5.16369C42.2103 5.17925 42.3189 5.17168 42.4222 5.14151C42.5255 5.11134 42.621 5.05927 42.7024 4.98885C42.7837 4.91843 42.849 4.83131 42.8936 4.73342C42.9383 4.63553 42.9613 4.52916 42.9612 4.42157V2.7545C42.9614 2.57453 42.8968 2.4005 42.7793 2.26421C42.6618 2.12792 42.4991 2.03846 42.3211 2.01219Z" fill="#8B8893"/>
        <path d="M26.6709 10.9463V13.4316H14.9765L14.8584 13.4025V10.9463C14.8585 10.5734 15.0067 10.2158 15.2704 9.95206C15.5341 9.68836 15.8917 9.54016 16.2646 9.54004H25.2646C25.4493 9.54003 25.6322 9.57639 25.8028 9.64706C25.9734 9.71772 26.1285 9.82131 26.259 9.95189C26.3896 10.0825 26.4932 10.2375 26.5639 10.4081C26.6345 10.5787 26.6709 10.7616 26.6709 10.9463Z" fill="#C8C5CC"/>
        <path d="M25.2646 9.54004H21.0459C21.2306 9.54003 21.4134 9.57639 21.5841 9.64706C21.7547 9.71772 21.9097 9.82131 22.0403 9.95189C22.1709 10.0825 22.2745 10.2375 22.3451 10.4081C22.4158 10.5787 22.4522 10.7616 22.4521 10.9463V13.4316H26.6709V10.9463C26.6709 10.7616 26.6345 10.5787 26.5639 10.4081C26.4932 10.2375 26.3896 10.0825 26.259 9.95189C26.1285 9.82131 25.9734 9.71772 25.8028 9.64706C25.6322 9.57639 25.4493 9.54003 25.2646 9.54004Z" fill="#AEADB3"/>
        <path d="M5.33838 17.9163H9.62791C10.0009 17.9163 10.3586 18.0644 10.6223 18.3281C10.886 18.5919 11.0342 18.9495 11.0342 19.3225V26.4768C11.0342 26.8497 10.886 27.2074 10.6223 27.4711C10.3586 27.7349 10.0009 27.883 9.62791 27.883H5.33838V17.9163Z" fill="#C8C5CC"/>
        <g clip-path="url(#clip1_14_13769)">
            <path d="M17.4791 24.8844L16.876 26.1573C16.6447 26.6448 17.2728 27.0812 17.651 26.7031L18.3739 25.9802C18.4396 25.9144 18.5255 25.8725 18.6178 25.8612C18.7101 25.8499 18.8036 25.8698 18.8833 25.9177L19.3093 26.1729C19.4006 26.2273 19.5067 26.2514 19.6125 26.2417C19.7183 26.2319 19.8183 26.1889 19.8981 26.1187C19.9779 26.0485 20.0333 25.9549 20.0565 25.8512C20.0797 25.7475 20.0693 25.6391 20.027 25.5416L19.8593 25.1646C19.8265 25.0914 19.8156 25.0103 19.8278 24.931C19.84 24.8517 19.8748 24.7777 19.9281 24.7177L20.3249 24.2719C20.4037 24.1835 20.4553 24.0742 20.4734 23.9572C20.4914 23.8402 20.4753 23.7205 20.4268 23.6124C20.3784 23.5044 20.2997 23.4127 20.2003 23.3484C20.1009 23.2841 19.985 23.2499 19.8666 23.25H19.7499V22.9666C19.7494 22.8503 19.712 22.7372 19.6433 22.6434C19.5745 22.5496 19.4778 22.48 19.3671 22.4445C19.2563 22.409 19.1372 22.4095 19.0267 22.4458C18.9162 22.4822 18.8201 22.5525 18.752 22.6469L18.5749 22.8958C18.5231 22.9683 18.4495 23.0223 18.3647 23.0499C18.28 23.0774 18.1886 23.0771 18.1041 23.0489L17.7864 22.9448C17.6828 22.9105 17.5714 22.9072 17.466 22.9353C17.3606 22.9635 17.2656 23.0217 17.1929 23.103C17.1201 23.1843 17.0726 23.2851 17.0563 23.393C17.04 23.5009 17.0555 23.6112 17.101 23.7104L17.4812 24.5333C17.5064 24.5884 17.5193 24.6484 17.5189 24.7091C17.5186 24.7697 17.505 24.8295 17.4791 24.8844Z" fill="white"/>
            <path d="M19.8248 25.0147L19.7206 25.1324C19.4175 25.474 19.855 25.798 19.8613 26.1511C19.9544 26.0838 20.0217 25.9866 20.0519 25.8757C20.082 25.7648 20.0732 25.6469 20.0269 25.5417C19.854 25.1501 19.83 25.1251 19.8248 25.0147ZM19.8665 23.2501H19.7498V22.9667C19.7499 22.8945 19.7358 22.8229 19.7082 22.7561C19.6806 22.6893 19.6401 22.6286 19.589 22.5775C19.5379 22.5264 19.4772 22.4859 19.4104 22.4583C19.3437 22.4307 19.2721 22.4166 19.1998 22.4167C18.8696 22.4167 18.7508 22.649 18.5748 22.8959C18.523 22.9684 18.4493 23.0224 18.3646 23.05C18.2799 23.0776 18.1885 23.0772 18.104 23.049L17.7863 22.9449C17.7035 22.9174 17.6155 22.9097 17.5293 22.9222C17.443 22.9348 17.3609 22.9673 17.2894 23.0171C17.2179 23.067 17.159 23.1328 17.1174 23.2094C17.0758 23.286 17.0527 23.3713 17.0498 23.4584C17.5477 23.0563 18.0123 23.8095 18.3665 23.3147L18.5436 23.0657C18.6115 22.9715 18.7075 22.9012 18.8177 22.8648C18.928 22.8284 19.047 22.8278 19.1576 22.863C19.2683 22.8982 19.365 22.9675 19.4339 23.061C19.5028 23.1544 19.5405 23.2673 19.5415 23.3834V23.6667H19.6581C19.7435 23.6661 19.8281 23.6833 19.9064 23.7174C19.9847 23.7515 20.055 23.8016 20.1127 23.8645C20.1705 23.9274 20.2143 24.0018 20.2415 24.0827C20.2687 24.1637 20.2787 24.2494 20.2706 24.3345L20.3279 24.2699C20.4062 24.1812 20.4573 24.0719 20.4749 23.9549C20.4925 23.838 20.4759 23.7184 20.4271 23.6107C20.3784 23.5029 20.2995 23.4116 20.2 23.3476C20.1006 23.2836 19.9847 23.2498 19.8665 23.2501Z" fill="white"/>
            <path d="M20.6676 25.75C20.6206 25.7559 20.5729 25.7488 20.5296 25.7295C20.4863 25.7103 20.449 25.6796 20.4219 25.6407C20.3948 25.6019 20.3788 25.5563 20.3756 25.5091C20.3724 25.4618 20.3822 25.4145 20.4039 25.3724C20.4256 25.3303 20.4584 25.2948 20.4987 25.27C20.539 25.2451 20.5854 25.2317 20.6328 25.2312C20.6802 25.2307 20.7268 25.2432 20.7676 25.2673C20.8085 25.2913 20.8419 25.3261 20.8645 25.3677C20.8846 25.405 20.8954 25.4466 20.8958 25.489C20.8962 25.5314 20.8863 25.5732 20.8669 25.6108C20.8475 25.6485 20.8192 25.6809 20.7845 25.7051C20.7498 25.7294 20.7097 25.7448 20.6676 25.75Z" fill="white"/>
            <path d="M20.8956 25.4574C20.8885 25.403 20.8644 25.3522 20.8267 25.3122C20.789 25.2723 20.7396 25.2454 20.6856 25.2352C20.6317 25.225 20.5759 25.2322 20.5262 25.2556C20.4766 25.2791 20.4356 25.3176 20.4092 25.3657C20.4584 25.3388 20.515 25.3285 20.5705 25.3365C20.6261 25.3444 20.6775 25.3701 20.7172 25.4098C20.7568 25.4495 20.7826 25.5009 20.7905 25.5565C20.7985 25.612 20.7882 25.6686 20.7613 25.7178C20.8073 25.693 20.8448 25.6549 20.8688 25.6084C20.8927 25.5619 20.9021 25.5093 20.8956 25.4574Z" fill="white"/>
            <path d="M18.2917 22.3126C18.2917 22.3538 18.2794 22.3941 18.2566 22.4283C18.2337 22.4626 18.2011 22.4893 18.1631 22.5051C18.125 22.5208 18.0831 22.525 18.0427 22.5169C18.0023 22.5089 17.9652 22.489 17.936 22.4599C17.9069 22.4308 17.887 22.3936 17.879 22.3532C17.871 22.3128 17.8751 22.2709 17.8909 22.2329C17.9066 22.1948 17.9333 22.1623 17.9676 22.1394C18.0018 22.1165 18.0421 22.1042 18.0833 22.1042C18.1386 22.1042 18.1916 22.1262 18.2306 22.1653C18.2697 22.2043 18.2917 22.2573 18.2917 22.3126Z" fill="white"/>
            <path d="M18.2727 22.2269C18.2561 22.1906 18.2295 22.1597 18.1958 22.1381C18.1622 22.1165 18.1231 22.105 18.0831 22.105C18.0432 22.105 18.004 22.1165 17.9704 22.1381C17.9368 22.1597 17.9101 22.1906 17.8936 22.2269C17.932 22.2098 17.9748 22.2048 18.0162 22.2125C18.0576 22.2202 18.0957 22.2402 18.1255 22.27C18.1553 22.2998 18.1753 22.3379 18.183 22.3793C18.1907 22.4207 18.1857 22.4635 18.1686 22.5019C18.2188 22.4792 18.2579 22.4375 18.2774 22.386C18.297 22.3344 18.2953 22.2772 18.2727 22.2269Z" fill="white"/>
            <path d="M16.9373 24.4999C16.9373 24.5823 16.9129 24.6629 16.8671 24.7314C16.8213 24.7999 16.7563 24.8533 16.6801 24.8849C16.604 24.9164 16.5202 24.9247 16.4394 24.9086C16.3586 24.8925 16.2843 24.8528 16.226 24.7945C16.1678 24.7363 16.1281 24.662 16.112 24.5812C16.0959 24.5004 16.1042 24.4166 16.1357 24.3405C16.1673 24.2643 16.2207 24.1993 16.2892 24.1535C16.3577 24.1077 16.4383 24.0833 16.5207 24.0833C16.6312 24.0833 16.7372 24.1272 16.8153 24.2053C16.8934 24.2834 16.9373 24.3894 16.9373 24.4999ZM18.8123 26.6874C18.8123 26.7286 18.8001 26.7689 18.7772 26.8032C18.7543 26.8374 18.7218 26.8641 18.6837 26.8799C18.6457 26.8957 18.6038 26.8998 18.5634 26.8917C18.5229 26.8837 18.4858 26.8639 18.4567 26.8347C18.4276 26.8056 18.4077 26.7685 18.3997 26.7281C18.3916 26.6877 18.3958 26.6458 18.4115 26.6077C18.4273 26.5696 18.454 26.5371 18.4883 26.5142C18.5225 26.4913 18.5628 26.4791 18.604 26.4791C18.6593 26.4791 18.7122 26.501 18.7513 26.5401C18.7904 26.5792 18.8123 26.6322 18.8123 26.6874Z" fill="white"/>
            <path d="M19.9586 25.125C19.9343 25.0701 19.9263 25.0094 19.9355 24.9501C19.9447 24.8908 19.9708 24.8354 20.0107 24.7906L20.4065 24.3448C20.5001 24.2413 20.5614 24.1128 20.5831 23.975C20.6048 23.8372 20.5859 23.6961 20.5286 23.5689C20.4714 23.4417 20.3783 23.334 20.2608 23.2588C20.1433 23.1837 20.0064 23.1444 19.867 23.1458C19.8545 23.1458 19.8545 23.1729 19.8545 22.9666C19.8538 22.8284 19.8094 22.6939 19.7276 22.5824C19.6458 22.4709 19.5309 22.3881 19.3992 22.346C19.2676 22.3038 19.1259 22.3043 18.9946 22.3475C18.8632 22.3907 18.7489 22.4743 18.668 22.5864L18.4899 22.8333C18.4511 22.8878 18.3959 22.9285 18.3324 22.9493C18.2688 22.9701 18.2002 22.97 18.1368 22.9489L17.8243 22.8448C17.7013 22.8039 17.5691 22.7998 17.4439 22.8331C17.3186 22.8663 17.2059 22.9355 17.1194 23.032C17.033 23.1285 16.9766 23.2482 16.9573 23.3763C16.938 23.5044 16.9566 23.6354 17.0107 23.7531L17.3909 24.576C17.4753 24.7583 17.4326 24.7489 16.7868 26.1135C16.5107 26.6968 17.2638 27.2427 17.7243 26.7781L18.4472 26.0552C18.4963 26.0059 18.5605 25.9744 18.6296 25.9657C18.6986 25.957 18.7686 25.9716 18.8284 26.0073L19.2555 26.2635C19.366 26.3296 19.4946 26.3588 19.6228 26.3469C19.7509 26.335 19.872 26.2826 19.9684 26.1974C20.0648 26.1121 20.1316 25.9983 20.1591 25.8726C20.1865 25.7468 20.1732 25.6156 20.1211 25.4979L19.9586 25.125ZM19.368 26.0895L18.9409 25.8333C18.8413 25.7735 18.7246 25.7486 18.6092 25.7628C18.4939 25.777 18.3866 25.8293 18.3045 25.9114L17.5816 26.6343C17.5187 26.6967 17.4359 26.7349 17.3477 26.7423C17.2595 26.7498 17.1715 26.726 17.0991 26.675C17.0267 26.6241 16.9745 26.5493 16.9517 26.4638C16.9289 26.3783 16.9369 26.2875 16.9743 26.2073L17.5732 24.9291C17.606 24.8601 17.623 24.7847 17.623 24.7083C17.623 24.6319 17.606 24.5565 17.5732 24.4875L17.1961 23.6666C17.1572 23.5821 17.1451 23.4876 17.1615 23.396C17.1779 23.3043 17.2219 23.2199 17.2878 23.1541C17.5232 22.9177 17.7732 23.05 18.0711 23.1489C18.1767 23.1842 18.2909 23.1848 18.3968 23.1505C18.5027 23.1161 18.5948 23.0488 18.6597 22.9583L18.8368 22.7093C18.8918 22.6329 18.9696 22.5759 19.059 22.5463C19.1484 22.5168 19.2449 22.5162 19.3347 22.5448C19.4244 22.5733 19.5028 22.6294 19.5588 22.7052C19.6147 22.781 19.6453 22.8725 19.6461 22.9666V23.25C19.6461 23.2776 19.6571 23.3041 19.6766 23.3236C19.6962 23.3432 19.7227 23.3541 19.7503 23.3541H19.867C19.9649 23.3544 20.0608 23.3829 20.143 23.4362C20.2252 23.4896 20.2902 23.5655 20.3303 23.6549C20.3705 23.7443 20.384 23.8433 20.3692 23.9402C20.3545 24.0371 20.3121 24.1276 20.2472 24.201L19.8545 24.6468C19.7879 24.7215 19.7443 24.8138 19.7287 24.9126C19.7132 25.0114 19.7265 25.1126 19.767 25.2041L19.9347 25.5812C19.9698 25.6588 19.9791 25.7456 19.9612 25.8289C19.9433 25.9122 19.8992 25.9875 19.8353 26.0438C19.7714 26.1001 19.6911 26.1345 19.6062 26.1418C19.5214 26.1491 19.4364 26.1289 19.3638 26.0843L19.368 26.0895Z" fill="#231F20"/>
            <path d="M21 25.4438C20.9912 25.3743 20.9626 25.3088 20.9175 25.2552C20.8725 25.2015 20.813 25.162 20.7461 25.1413C20.6792 25.1206 20.6078 25.1196 20.5403 25.1384C20.4729 25.1573 20.4122 25.1951 20.3657 25.2475C20.3192 25.2998 20.2888 25.3645 20.278 25.4337C20.2673 25.5029 20.2767 25.5737 20.3052 25.6377C20.3336 25.7017 20.3799 25.7561 20.4384 25.7945C20.497 25.8329 20.5654 25.8536 20.6354 25.8542C20.6874 25.8546 20.7389 25.8439 20.7864 25.8227C20.8339 25.8016 20.8764 25.7706 20.9109 25.7317C20.9454 25.6929 20.9712 25.647 20.9866 25.5974C21.002 25.5477 21.0065 25.4953 21 25.4438ZM20.6552 25.6458C20.6138 25.6511 20.5719 25.6397 20.5389 25.6141C20.5059 25.5885 20.4844 25.5508 20.4792 25.5094C20.4739 25.4679 20.4853 25.4261 20.5109 25.3931C20.5365 25.3601 20.5742 25.3386 20.6156 25.3333C20.6571 25.3281 20.6989 25.3395 20.7319 25.3651C20.7649 25.3907 20.7864 25.4284 20.7917 25.4698C20.7969 25.5112 20.7855 25.5531 20.7599 25.5861C20.7343 25.6191 20.6966 25.6406 20.6552 25.6458ZM18.0833 22.625C18.1451 22.625 18.2056 22.6067 18.2569 22.5723C18.3083 22.538 18.3484 22.4892 18.372 22.4321C18.3957 22.375 18.4019 22.3122 18.3898 22.2515C18.3778 22.1909 18.348 22.1352 18.3043 22.0915C18.2606 22.0478 18.2049 22.0181 18.1443 22.006C18.0837 21.9939 18.0208 22.0001 17.9637 22.0238C17.9066 22.0474 17.8578 22.0875 17.8235 22.1389C17.7892 22.1903 17.7708 22.2507 17.7708 22.3125C17.7708 22.3954 17.8038 22.4749 17.8624 22.5335C17.921 22.5921 18.0005 22.625 18.0833 22.625ZM18.0833 22.2083C18.111 22.2083 18.1375 22.2193 18.157 22.2388C18.1765 22.2584 18.1875 22.2849 18.1875 22.3125C18.1875 22.3401 18.1765 22.3666 18.157 22.3862C18.1375 22.4057 18.111 22.4167 18.0833 22.4167C18.0557 22.4167 18.0292 22.4057 18.0097 22.3862C17.9901 22.3666 17.9792 22.3401 17.9792 22.3125C17.9792 22.2849 17.9901 22.2584 18.0097 22.2388C18.0292 22.2193 18.0557 22.2083 18.0833 22.2083ZM17.0417 24.5C17.0417 24.397 17.0111 24.2963 16.9539 24.2106C16.8967 24.125 16.8153 24.0582 16.7201 24.0188C16.625 23.9794 16.5203 23.9691 16.4192 23.9892C16.3182 24.0093 16.2254 24.0589 16.1525 24.1317C16.0797 24.2046 16.0301 24.2974 16.01 24.3984C15.9899 24.4994 16.0002 24.6041 16.0396 24.6993C16.0791 24.7945 16.1458 24.8758 16.2315 24.9331C16.3171 24.9903 16.4178 25.0208 16.5208 25.0208C16.659 25.0208 16.7914 24.966 16.8891 24.8683C16.9868 24.7706 17.0417 24.6381 17.0417 24.5ZM16.5208 24.8125C16.459 24.8125 16.3986 24.7942 16.3472 24.7598C16.2958 24.7255 16.2558 24.6767 16.2321 24.6196C16.2085 24.5625 16.2023 24.4997 16.2143 24.439C16.2264 24.3784 16.2562 24.3227 16.2999 24.279C16.3436 24.2353 16.3992 24.2056 16.4599 24.1935C16.5205 24.1814 16.5833 24.1876 16.6404 24.2113C16.6975 24.2349 16.7463 24.275 16.7807 24.3264C16.815 24.3778 16.8333 24.4382 16.8333 24.5C16.8333 24.5829 16.8004 24.6624 16.7418 24.721C16.6832 24.7796 16.6037 24.8125 16.5208 24.8125ZM18.6042 26.375C18.5424 26.375 18.4819 26.3933 18.4306 26.4277C18.3792 26.462 18.3391 26.5108 18.3155 26.5679C18.2918 26.625 18.2856 26.6878 18.2977 26.7485C18.3097 26.8091 18.3395 26.8648 18.3832 26.9085C18.4269 26.9522 18.4826 26.9819 18.5432 26.994C18.6038 27.0061 18.6667 26.9999 18.7238 26.9762C18.7809 26.9526 18.8297 26.9125 18.864 26.8611C18.8983 26.8097 18.9167 26.7493 18.9167 26.6875C18.9167 26.6046 18.8837 26.5251 18.8251 26.4665C18.7665 26.4079 18.687 26.375 18.6042 26.375ZM18.6042 26.7917C18.5765 26.7917 18.55 26.7807 18.5305 26.7612C18.511 26.7416 18.5 26.7151 18.5 26.6875C18.5 26.6599 18.511 26.6334 18.5305 26.6138C18.55 26.5943 18.5765 26.5833 18.6042 26.5833C18.6318 26.5833 18.6583 26.5943 18.6778 26.6138C18.6974 26.6334 18.7083 26.6599 18.7083 26.6875C18.7083 26.7151 18.6974 26.7416 18.6778 26.7612C18.6583 26.7807 18.6318 26.7917 18.6042 26.7917Z" fill="#231F20"/>
        </g>
        <g clip-path="url(#clip2_14_13769)">
            <path d="M25.4791 22.8844L24.876 24.1573C24.6447 24.6448 25.2728 25.0812 25.651 24.7031L26.3739 23.9802C26.4396 23.9144 26.5255 23.8725 26.6178 23.8612C26.7101 23.8499 26.8036 23.8698 26.8833 23.9177L27.3093 24.1729C27.4006 24.2273 27.5067 24.2514 27.6125 24.2417C27.7183 24.2319 27.8183 24.1889 27.8981 24.1187C27.9779 24.0485 28.0333 23.9549 28.0565 23.8512C28.0797 23.7475 28.0693 23.6391 28.027 23.5416L27.8593 23.1646C27.8265 23.0914 27.8156 23.0103 27.8278 22.931C27.84 22.8517 27.8748 22.7777 27.9281 22.7177L28.3249 22.2719C28.4037 22.1835 28.4553 22.0742 28.4734 21.9572C28.4914 21.8402 28.4753 21.7205 28.4268 21.6124C28.3784 21.5044 28.2997 21.4127 28.2003 21.3484C28.1009 21.2841 27.985 21.2499 27.8666 21.25H27.7499V20.9666C27.7494 20.8503 27.712 20.7372 27.6433 20.6434C27.5745 20.5496 27.4778 20.48 27.3671 20.4445C27.2563 20.409 27.1372 20.4095 27.0267 20.4458C26.9162 20.4822 26.8201 20.5525 26.752 20.6469L26.5749 20.8958C26.5231 20.9683 26.4495 21.0223 26.3647 21.0499C26.28 21.0774 26.1886 21.0771 26.1041 21.0489L25.7864 20.9448C25.6828 20.9105 25.5714 20.9072 25.466 20.9353C25.3606 20.9635 25.2656 21.0217 25.1929 21.103C25.1201 21.1843 25.0726 21.2851 25.0563 21.393C25.04 21.5009 25.0555 21.6112 25.101 21.7104L25.4812 22.5333C25.5064 22.5884 25.5193 22.6484 25.5189 22.7091C25.5186 22.7697 25.505 22.8295 25.4791 22.8844Z" fill="white"/>
            <path d="M27.8248 23.0147L27.7206 23.1324C27.4175 23.474 27.855 23.798 27.8613 24.1511C27.9544 24.0838 28.0217 23.9866 28.0519 23.8757C28.082 23.7648 28.0732 23.6469 28.0269 23.5417C27.854 23.1501 27.83 23.1251 27.8248 23.0147ZM27.8665 21.2501H27.7498V20.9667C27.7499 20.8945 27.7358 20.8229 27.7082 20.7561C27.6806 20.6893 27.6401 20.6286 27.589 20.5775C27.5379 20.5264 27.4772 20.4859 27.4104 20.4583C27.3437 20.4307 27.2721 20.4166 27.1998 20.4167C26.8696 20.4167 26.7508 20.649 26.5748 20.8959C26.523 20.9684 26.4493 21.0224 26.3646 21.05C26.2799 21.0776 26.1885 21.0772 26.104 21.049L25.7863 20.9449C25.7035 20.9174 25.6155 20.9097 25.5293 20.9222C25.443 20.9348 25.3609 20.9673 25.2894 21.0171C25.2179 21.067 25.159 21.1328 25.1174 21.2094C25.0758 21.286 25.0527 21.3713 25.0498 21.4584C25.5477 21.0563 26.0123 21.8095 26.3665 21.3147L26.5436 21.0657C26.6115 20.9715 26.7075 20.9012 26.8177 20.8648C26.928 20.8284 27.047 20.8278 27.1576 20.863C27.2683 20.8982 27.365 20.9675 27.4339 21.061C27.5028 21.1544 27.5405 21.2673 27.5415 21.3834V21.6667H27.6581C27.7435 21.6661 27.8281 21.6833 27.9064 21.7174C27.9847 21.7515 28.055 21.8016 28.1127 21.8645C28.1705 21.9274 28.2143 22.0018 28.2415 22.0827C28.2687 22.1637 28.2787 22.2494 28.2706 22.3345L28.3279 22.2699C28.4062 22.1812 28.4573 22.0719 28.4749 21.9549C28.4925 21.838 28.4759 21.7184 28.4271 21.6107C28.3784 21.5029 28.2995 21.4116 28.2 21.3476C28.1006 21.2836 27.9847 21.2498 27.8665 21.2501Z" fill="white"/>
            <path d="M28.6676 23.75C28.6206 23.7559 28.5729 23.7488 28.5296 23.7295C28.4863 23.7103 28.449 23.6796 28.4219 23.6407C28.3948 23.6019 28.3788 23.5563 28.3756 23.5091C28.3724 23.4618 28.3822 23.4145 28.4039 23.3724C28.4256 23.3303 28.4584 23.2948 28.4987 23.27C28.539 23.2451 28.5854 23.2317 28.6328 23.2312C28.6802 23.2307 28.7268 23.2432 28.7676 23.2673C28.8085 23.2913 28.8419 23.3261 28.8645 23.3677C28.8846 23.405 28.8954 23.4466 28.8958 23.489C28.8962 23.5314 28.8863 23.5732 28.8669 23.6108C28.8475 23.6485 28.8192 23.6809 28.7845 23.7051C28.7498 23.7294 28.7097 23.7448 28.6676 23.75Z" fill="white"/>
            <path d="M28.8956 23.4574C28.8885 23.403 28.8644 23.3522 28.8267 23.3122C28.789 23.2723 28.7396 23.2454 28.6856 23.2352C28.6317 23.225 28.5759 23.2322 28.5262 23.2556C28.4766 23.2791 28.4356 23.3176 28.4092 23.3657C28.4584 23.3388 28.515 23.3285 28.5705 23.3365C28.6261 23.3444 28.6775 23.3701 28.7172 23.4098C28.7568 23.4495 28.7826 23.5009 28.7905 23.5565C28.7985 23.612 28.7882 23.6686 28.7613 23.7178C28.8073 23.693 28.8448 23.6549 28.8688 23.6084C28.8927 23.5619 28.9021 23.5093 28.8956 23.4574Z" fill="white"/>
            <path d="M26.2917 20.3126C26.2917 20.3538 26.2794 20.3941 26.2566 20.4283C26.2337 20.4626 26.2011 20.4893 26.1631 20.5051C26.125 20.5208 26.0831 20.525 26.0427 20.5169C26.0023 20.5089 25.9652 20.489 25.936 20.4599C25.9069 20.4308 25.887 20.3936 25.879 20.3532C25.871 20.3128 25.8751 20.2709 25.8909 20.2329C25.9066 20.1948 25.9333 20.1623 25.9676 20.1394C26.0018 20.1165 26.0421 20.1042 26.0833 20.1042C26.1386 20.1042 26.1916 20.1262 26.2306 20.1653C26.2697 20.2043 26.2917 20.2573 26.2917 20.3126Z" fill="white"/>
            <path d="M26.2727 20.2269C26.2561 20.1906 26.2295 20.1597 26.1958 20.1381C26.1622 20.1165 26.1231 20.105 26.0831 20.105C26.0432 20.105 26.004 20.1165 25.9704 20.1381C25.9368 20.1597 25.9101 20.1906 25.8936 20.2269C25.932 20.2098 25.9748 20.2048 26.0162 20.2125C26.0576 20.2202 26.0957 20.2402 26.1255 20.27C26.1553 20.2998 26.1753 20.3379 26.183 20.3793C26.1907 20.4207 26.1857 20.4635 26.1686 20.5019C26.2188 20.4792 26.2579 20.4375 26.2774 20.386C26.297 20.3344 26.2953 20.2772 26.2727 20.2269Z" fill="white"/>
            <path d="M24.9373 22.4999C24.9373 22.5823 24.9129 22.6629 24.8671 22.7314C24.8213 22.7999 24.7563 22.8533 24.6801 22.8849C24.604 22.9164 24.5202 22.9247 24.4394 22.9086C24.3586 22.8925 24.2843 22.8528 24.226 22.7945C24.1678 22.7363 24.1281 22.662 24.112 22.5812C24.0959 22.5004 24.1042 22.4166 24.1357 22.3405C24.1673 22.2643 24.2207 22.1993 24.2892 22.1535C24.3577 22.1077 24.4383 22.0833 24.5207 22.0833C24.6312 22.0833 24.7372 22.1272 24.8153 22.2053C24.8934 22.2834 24.9373 22.3894 24.9373 22.4999ZM26.8123 24.6874C26.8123 24.7286 26.8001 24.7689 26.7772 24.8032C26.7543 24.8374 26.7218 24.8641 26.6837 24.8799C26.6457 24.8957 26.6038 24.8998 26.5634 24.8917C26.5229 24.8837 26.4858 24.8639 26.4567 24.8347C26.4276 24.8056 26.4077 24.7685 26.3997 24.7281C26.3916 24.6877 26.3958 24.6458 26.4115 24.6077C26.4273 24.5696 26.454 24.5371 26.4883 24.5142C26.5225 24.4913 26.5628 24.4791 26.604 24.4791C26.6593 24.4791 26.7122 24.501 26.7513 24.5401C26.7904 24.5792 26.8123 24.6322 26.8123 24.6874Z" fill="white"/>
            <path d="M27.9586 23.125C27.9343 23.0701 27.9263 23.0094 27.9355 22.9501C27.9447 22.8908 27.9708 22.8354 28.0107 22.7906L28.4065 22.3448C28.5001 22.2413 28.5614 22.1128 28.5831 21.975C28.6048 21.8372 28.5859 21.6961 28.5286 21.5689C28.4714 21.4417 28.3783 21.334 28.2608 21.2588C28.1433 21.1837 28.0064 21.1444 27.867 21.1458C27.8545 21.1458 27.8545 21.1729 27.8545 20.9666C27.8538 20.8284 27.8094 20.6939 27.7276 20.5824C27.6458 20.4709 27.5309 20.3881 27.3992 20.346C27.2676 20.3038 27.1259 20.3043 26.9946 20.3475C26.8632 20.3907 26.7489 20.4743 26.668 20.5864L26.4899 20.8333C26.4511 20.8878 26.3959 20.9285 26.3324 20.9493C26.2688 20.9701 26.2002 20.97 26.1368 20.9489L25.8243 20.8448C25.7013 20.8039 25.5691 20.7998 25.4439 20.8331C25.3186 20.8663 25.2059 20.9355 25.1194 21.032C25.033 21.1285 24.9766 21.2482 24.9573 21.3763C24.938 21.5044 24.9566 21.6354 25.0107 21.7531L25.3909 22.576C25.4753 22.7583 25.4326 22.7489 24.7868 24.1135C24.5107 24.6968 25.2638 25.2427 25.7243 24.7781L26.4472 24.0552C26.4963 24.0059 26.5605 23.9744 26.6296 23.9657C26.6986 23.957 26.7686 23.9716 26.8284 24.0073L27.2555 24.2635C27.366 24.3296 27.4946 24.3588 27.6228 24.3469C27.7509 24.335 27.872 24.2826 27.9684 24.1974C28.0648 24.1121 28.1316 23.9983 28.1591 23.8726C28.1865 23.7468 28.1732 23.6156 28.1211 23.4979L27.9586 23.125ZM27.368 24.0895L26.9409 23.8333C26.8413 23.7735 26.7246 23.7486 26.6092 23.7628C26.4939 23.777 26.3866 23.8293 26.3045 23.9114L25.5816 24.6343C25.5187 24.6967 25.4359 24.7349 25.3477 24.7423C25.2595 24.7498 25.1715 24.726 25.0991 24.675C25.0267 24.6241 24.9745 24.5493 24.9517 24.4638C24.9289 24.3783 24.9369 24.2875 24.9743 24.2073L25.5732 22.9291C25.606 22.8601 25.623 22.7847 25.623 22.7083C25.623 22.6319 25.606 22.5565 25.5732 22.4875L25.1961 21.6666C25.1572 21.5821 25.1451 21.4876 25.1615 21.396C25.1779 21.3043 25.2219 21.2199 25.2878 21.1541C25.5232 20.9177 25.7732 21.05 26.0711 21.1489C26.1767 21.1842 26.2909 21.1848 26.3968 21.1505C26.5027 21.1161 26.5948 21.0488 26.6597 20.9583L26.8368 20.7093C26.8918 20.6329 26.9696 20.5759 27.059 20.5463C27.1484 20.5168 27.2449 20.5162 27.3347 20.5448C27.4244 20.5733 27.5028 20.6294 27.5588 20.7052C27.6147 20.781 27.6453 20.8725 27.6461 20.9666V21.25C27.6461 21.2776 27.6571 21.3041 27.6766 21.3236C27.6962 21.3432 27.7227 21.3541 27.7503 21.3541H27.867C27.9649 21.3544 28.0608 21.3829 28.143 21.4362C28.2252 21.4896 28.2902 21.5655 28.3303 21.6549C28.3705 21.7443 28.384 21.8433 28.3692 21.9402C28.3545 22.0371 28.3121 22.1276 28.2472 22.201L27.8545 22.6468C27.7879 22.7215 27.7443 22.8138 27.7287 22.9126C27.7132 23.0114 27.7265 23.1126 27.767 23.2041L27.9347 23.5812C27.9698 23.6588 27.9791 23.7456 27.9612 23.8289C27.9433 23.9122 27.8992 23.9875 27.8353 24.0438C27.7714 24.1001 27.6911 24.1345 27.6062 24.1418C27.5214 24.1491 27.4364 24.1289 27.3638 24.0843L27.368 24.0895Z" fill="#231F20"/>
            <path d="M29 23.4438C28.9912 23.3743 28.9626 23.3088 28.9175 23.2552C28.8725 23.2015 28.813 23.162 28.7461 23.1413C28.6792 23.1206 28.6078 23.1196 28.5403 23.1384C28.4729 23.1573 28.4122 23.1951 28.3657 23.2475C28.3192 23.2998 28.2888 23.3645 28.278 23.4337C28.2673 23.5029 28.2767 23.5737 28.3052 23.6377C28.3336 23.7017 28.3799 23.7561 28.4384 23.7945C28.497 23.8329 28.5654 23.8536 28.6354 23.8542C28.6874 23.8546 28.7389 23.8439 28.7864 23.8227C28.8339 23.8016 28.8764 23.7706 28.9109 23.7317C28.9454 23.6929 28.9712 23.647 28.9866 23.5974C29.002 23.5477 29.0065 23.4953 29 23.4438ZM28.6552 23.6458C28.6138 23.6511 28.5719 23.6397 28.5389 23.6141C28.5059 23.5885 28.4844 23.5508 28.4792 23.5094C28.4739 23.4679 28.4853 23.4261 28.5109 23.3931C28.5365 23.3601 28.5742 23.3386 28.6156 23.3333C28.6571 23.3281 28.6989 23.3395 28.7319 23.3651C28.7649 23.3907 28.7864 23.4284 28.7917 23.4698C28.7969 23.5112 28.7855 23.5531 28.7599 23.5861C28.7343 23.6191 28.6966 23.6406 28.6552 23.6458ZM26.0833 20.625C26.1451 20.625 26.2056 20.6067 26.2569 20.5723C26.3083 20.538 26.3484 20.4892 26.372 20.4321C26.3957 20.375 26.4019 20.3122 26.3898 20.2515C26.3778 20.1909 26.348 20.1352 26.3043 20.0915C26.2606 20.0478 26.2049 20.0181 26.1443 20.006C26.0837 19.9939 26.0208 20.0001 25.9637 20.0238C25.9066 20.0474 25.8578 20.0875 25.8235 20.1389C25.7892 20.1903 25.7708 20.2507 25.7708 20.3125C25.7708 20.3954 25.8038 20.4749 25.8624 20.5335C25.921 20.5921 26.0005 20.625 26.0833 20.625ZM26.0833 20.2083C26.111 20.2083 26.1375 20.2193 26.157 20.2388C26.1765 20.2584 26.1875 20.2849 26.1875 20.3125C26.1875 20.3401 26.1765 20.3666 26.157 20.3862C26.1375 20.4057 26.111 20.4167 26.0833 20.4167C26.0557 20.4167 26.0292 20.4057 26.0097 20.3862C25.9901 20.3666 25.9792 20.3401 25.9792 20.3125C25.9792 20.2849 25.9901 20.2584 26.0097 20.2388C26.0292 20.2193 26.0557 20.2083 26.0833 20.2083ZM25.0417 22.5C25.0417 22.397 25.0111 22.2963 24.9539 22.2106C24.8967 22.125 24.8153 22.0582 24.7201 22.0188C24.625 21.9794 24.5203 21.9691 24.4192 21.9892C24.3182 22.0093 24.2254 22.0589 24.1525 22.1317C24.0797 22.2046 24.0301 22.2974 24.01 22.3984C23.9899 22.4994 24.0002 22.6041 24.0396 22.6993C24.0791 22.7945 24.1458 22.8758 24.2315 22.9331C24.3171 22.9903 24.4178 23.0208 24.5208 23.0208C24.659 23.0208 24.7914 22.966 24.8891 22.8683C24.9868 22.7706 25.0417 22.6381 25.0417 22.5ZM24.5208 22.8125C24.459 22.8125 24.3986 22.7942 24.3472 22.7598C24.2958 22.7255 24.2558 22.6767 24.2321 22.6196C24.2085 22.5625 24.2023 22.4997 24.2143 22.439C24.2264 22.3784 24.2562 22.3227 24.2999 22.279C24.3436 22.2353 24.3992 22.2056 24.4599 22.1935C24.5205 22.1814 24.5833 22.1876 24.6404 22.2113C24.6975 22.2349 24.7463 22.275 24.7807 22.3264C24.815 22.3778 24.8333 22.4382 24.8333 22.5C24.8333 22.5829 24.8004 22.6624 24.7418 22.721C24.6832 22.7796 24.6037 22.8125 24.5208 22.8125ZM26.6042 24.375C26.5424 24.375 26.4819 24.3933 26.4306 24.4277C26.3792 24.462 26.3391 24.5108 26.3155 24.5679C26.2918 24.625 26.2856 24.6878 26.2977 24.7485C26.3097 24.8091 26.3395 24.8648 26.3832 24.9085C26.4269 24.9522 26.4826 24.9819 26.5432 24.994C26.6038 25.0061 26.6667 24.9999 26.7238 24.9762C26.7809 24.9526 26.8297 24.9125 26.864 24.8611C26.8983 24.8097 26.9167 24.7493 26.9167 24.6875C26.9167 24.6046 26.8837 24.5251 26.8251 24.4665C26.7665 24.4079 26.687 24.375 26.6042 24.375ZM26.6042 24.7917C26.5765 24.7917 26.55 24.7807 26.5305 24.7612C26.511 24.7416 26.5 24.7151 26.5 24.6875C26.5 24.6599 26.511 24.6334 26.5305 24.6138C26.55 24.5943 26.5765 24.5833 26.6042 24.5833C26.6318 24.5833 26.6583 24.5943 26.6778 24.6138C26.6974 24.6334 26.7083 24.6599 26.7083 24.6875C26.7083 24.7151 26.6974 24.7416 26.6778 24.7612C26.6583 24.7807 26.6318 24.7917 26.6042 24.7917Z" fill="#231F20"/>
        </g>
        <g clip-path="url(#clip3_14_13769)">
            <path d="M34.4791 23.8844L33.876 25.1573C33.6447 25.6448 34.2728 26.0812 34.651 25.7031L35.3739 24.9802C35.4396 24.9144 35.5255 24.8725 35.6178 24.8612C35.7101 24.8499 35.8036 24.8698 35.8833 24.9177L36.3093 25.1729C36.4006 25.2273 36.5067 25.2514 36.6125 25.2417C36.7183 25.2319 36.8183 25.1889 36.8981 25.1187C36.9779 25.0485 37.0333 24.9549 37.0565 24.8512C37.0797 24.7475 37.0693 24.6391 37.027 24.5416L36.8593 24.1646C36.8265 24.0914 36.8156 24.0103 36.8278 23.931C36.84 23.8517 36.8748 23.7777 36.9281 23.7177L37.3249 23.2719C37.4037 23.1835 37.4553 23.0742 37.4734 22.9572C37.4914 22.8402 37.4753 22.7205 37.4268 22.6124C37.3784 22.5044 37.2997 22.4127 37.2003 22.3484C37.1009 22.2841 36.985 22.2499 36.8666 22.25H36.7499V21.9666C36.7494 21.8503 36.712 21.7372 36.6433 21.6434C36.5745 21.5496 36.4778 21.48 36.3671 21.4445C36.2563 21.409 36.1372 21.4095 36.0267 21.4458C35.9162 21.4822 35.8201 21.5525 35.752 21.6469L35.5749 21.8958C35.5231 21.9683 35.4495 22.0223 35.3647 22.0499C35.28 22.0774 35.1886 22.0771 35.1041 22.0489L34.7864 21.9448C34.6828 21.9105 34.5714 21.9072 34.466 21.9353C34.3606 21.9635 34.2656 22.0217 34.1929 22.103C34.1201 22.1843 34.0726 22.2851 34.0563 22.393C34.04 22.5009 34.0555 22.6112 34.101 22.7104L34.4812 23.5333C34.5064 23.5884 34.5193 23.6484 34.5189 23.7091C34.5186 23.7697 34.505 23.8295 34.4791 23.8844Z" fill="white"/>
            <path d="M36.8248 24.0147L36.7206 24.1324C36.4175 24.474 36.855 24.798 36.8613 25.1511C36.9544 25.0838 37.0217 24.9866 37.0519 24.8757C37.082 24.7648 37.0732 24.6469 37.0269 24.5417C36.854 24.1501 36.83 24.1251 36.8248 24.0147ZM36.8665 22.2501H36.7498V21.9667C36.7499 21.8945 36.7358 21.8229 36.7082 21.7561C36.6806 21.6893 36.6401 21.6286 36.589 21.5775C36.5379 21.5264 36.4772 21.4859 36.4104 21.4583C36.3437 21.4307 36.2721 21.4166 36.1998 21.4167C35.8696 21.4167 35.7508 21.649 35.5748 21.8959C35.523 21.9684 35.4493 22.0224 35.3646 22.05C35.2799 22.0776 35.1885 22.0772 35.104 22.049L34.7863 21.9449C34.7035 21.9174 34.6155 21.9097 34.5293 21.9222C34.443 21.9348 34.3609 21.9673 34.2894 22.0171C34.2179 22.067 34.159 22.1328 34.1174 22.2094C34.0758 22.286 34.0527 22.3713 34.0498 22.4584C34.5477 22.0563 35.0123 22.8095 35.3665 22.3147L35.5436 22.0657C35.6115 21.9715 35.7075 21.9012 35.8177 21.8648C35.928 21.8284 36.047 21.8278 36.1576 21.863C36.2683 21.8982 36.365 21.9675 36.4339 22.061C36.5028 22.1544 36.5405 22.2673 36.5415 22.3834V22.6667H36.6581C36.7435 22.6661 36.8281 22.6833 36.9064 22.7174C36.9847 22.7515 37.055 22.8016 37.1127 22.8645C37.1705 22.9274 37.2143 23.0018 37.2415 23.0827C37.2687 23.1637 37.2787 23.2494 37.2706 23.3345L37.3279 23.2699C37.4062 23.1812 37.4573 23.0719 37.4749 22.9549C37.4925 22.838 37.4759 22.7184 37.4271 22.6107C37.3784 22.5029 37.2995 22.4116 37.2 22.3476C37.1006 22.2836 36.9847 22.2498 36.8665 22.2501Z" fill="white"/>
            <path d="M37.6676 24.75C37.6206 24.7559 37.5729 24.7488 37.5296 24.7295C37.4863 24.7103 37.449 24.6796 37.4219 24.6407C37.3948 24.6019 37.3788 24.5563 37.3756 24.5091C37.3724 24.4618 37.3822 24.4145 37.4039 24.3724C37.4256 24.3303 37.4584 24.2948 37.4987 24.27C37.539 24.2451 37.5854 24.2317 37.6328 24.2312C37.6802 24.2307 37.7268 24.2432 37.7676 24.2673C37.8085 24.2913 37.8419 24.3261 37.8645 24.3677C37.8846 24.405 37.8954 24.4466 37.8958 24.489C37.8962 24.5314 37.8863 24.5732 37.8669 24.6108C37.8475 24.6485 37.8192 24.6809 37.7845 24.7051C37.7498 24.7294 37.7097 24.7448 37.6676 24.75Z" fill="white"/>
            <path d="M37.8956 24.4574C37.8885 24.403 37.8644 24.3522 37.8267 24.3122C37.789 24.2723 37.7396 24.2454 37.6856 24.2352C37.6317 24.225 37.5759 24.2322 37.5262 24.2556C37.4766 24.2791 37.4356 24.3176 37.4092 24.3657C37.4584 24.3388 37.515 24.3285 37.5705 24.3365C37.6261 24.3444 37.6775 24.3701 37.7172 24.4098C37.7568 24.4495 37.7826 24.5009 37.7905 24.5565C37.7985 24.612 37.7882 24.6686 37.7613 24.7178C37.8073 24.693 37.8448 24.6549 37.8688 24.6084C37.8927 24.5619 37.9021 24.5093 37.8956 24.4574Z" fill="white"/>
            <path d="M35.2917 21.3126C35.2917 21.3538 35.2794 21.3941 35.2566 21.4283C35.2337 21.4626 35.2011 21.4893 35.1631 21.5051C35.125 21.5208 35.0831 21.525 35.0427 21.5169C35.0023 21.5089 34.9652 21.489 34.936 21.4599C34.9069 21.4308 34.887 21.3936 34.879 21.3532C34.871 21.3128 34.8751 21.2709 34.8909 21.2329C34.9066 21.1948 34.9333 21.1623 34.9676 21.1394C35.0018 21.1165 35.0421 21.1042 35.0833 21.1042C35.1386 21.1042 35.1916 21.1262 35.2306 21.1653C35.2697 21.2043 35.2917 21.2573 35.2917 21.3126Z" fill="white"/>
            <path d="M35.2727 21.2269C35.2561 21.1906 35.2295 21.1597 35.1958 21.1381C35.1622 21.1165 35.1231 21.105 35.0831 21.105C35.0432 21.105 35.004 21.1165 34.9704 21.1381C34.9368 21.1597 34.9101 21.1906 34.8936 21.2269C34.932 21.2098 34.9748 21.2048 35.0162 21.2125C35.0576 21.2202 35.0957 21.2402 35.1255 21.27C35.1553 21.2998 35.1753 21.3379 35.183 21.3793C35.1907 21.4207 35.1857 21.4635 35.1686 21.5019C35.2188 21.4792 35.2579 21.4375 35.2774 21.386C35.297 21.3344 35.2953 21.2772 35.2727 21.2269Z" fill="white"/>
            <path d="M33.9373 23.4999C33.9373 23.5823 33.9129 23.6629 33.8671 23.7314C33.8213 23.7999 33.7563 23.8533 33.6801 23.8849C33.604 23.9164 33.5202 23.9247 33.4394 23.9086C33.3586 23.8925 33.2843 23.8528 33.226 23.7945C33.1678 23.7363 33.1281 23.662 33.112 23.5812C33.0959 23.5004 33.1042 23.4166 33.1357 23.3405C33.1673 23.2643 33.2207 23.1993 33.2892 23.1535C33.3577 23.1077 33.4383 23.0833 33.5207 23.0833C33.6312 23.0833 33.7372 23.1272 33.8153 23.2053C33.8934 23.2834 33.9373 23.3894 33.9373 23.4999ZM35.8123 25.6874C35.8123 25.7286 35.8001 25.7689 35.7772 25.8032C35.7543 25.8374 35.7218 25.8641 35.6837 25.8799C35.6457 25.8957 35.6038 25.8998 35.5634 25.8917C35.5229 25.8837 35.4858 25.8639 35.4567 25.8347C35.4276 25.8056 35.4077 25.7685 35.3997 25.7281C35.3916 25.6877 35.3958 25.6458 35.4115 25.6077C35.4273 25.5696 35.454 25.5371 35.4883 25.5142C35.5225 25.4913 35.5628 25.4791 35.604 25.4791C35.6593 25.4791 35.7122 25.501 35.7513 25.5401C35.7904 25.5792 35.8123 25.6322 35.8123 25.6874Z" fill="white"/>
            <path d="M36.9586 24.125C36.9343 24.0701 36.9263 24.0094 36.9355 23.9501C36.9447 23.8908 36.9708 23.8354 37.0107 23.7906L37.4065 23.3448C37.5001 23.2413 37.5614 23.1128 37.5831 22.975C37.6048 22.8372 37.5859 22.6961 37.5286 22.5689C37.4714 22.4417 37.3783 22.334 37.2608 22.2588C37.1433 22.1837 37.0064 22.1444 36.867 22.1458C36.8545 22.1458 36.8545 22.1729 36.8545 21.9666C36.8538 21.8284 36.8094 21.6939 36.7276 21.5824C36.6458 21.4709 36.5309 21.3881 36.3992 21.346C36.2676 21.3038 36.1259 21.3043 35.9946 21.3475C35.8632 21.3907 35.7489 21.4743 35.668 21.5864L35.4899 21.8333C35.4511 21.8878 35.3959 21.9285 35.3324 21.9493C35.2688 21.9701 35.2002 21.97 35.1368 21.9489L34.8243 21.8448C34.7013 21.8039 34.5691 21.7998 34.4439 21.8331C34.3186 21.8663 34.2059 21.9355 34.1194 22.032C34.033 22.1285 33.9766 22.2482 33.9573 22.3763C33.938 22.5044 33.9566 22.6354 34.0107 22.7531L34.3909 23.576C34.4753 23.7583 34.4326 23.7489 33.7868 25.1135C33.5107 25.6968 34.2638 26.2427 34.7243 25.7781L35.4472 25.0552C35.4963 25.0059 35.5605 24.9744 35.6296 24.9657C35.6986 24.957 35.7686 24.9716 35.8284 25.0073L36.2555 25.2635C36.366 25.3296 36.4946 25.3588 36.6228 25.3469C36.7509 25.335 36.872 25.2826 36.9684 25.1974C37.0648 25.1121 37.1316 24.9983 37.1591 24.8726C37.1865 24.7468 37.1732 24.6156 37.1211 24.4979L36.9586 24.125ZM36.368 25.0895L35.9409 24.8333C35.8413 24.7735 35.7246 24.7486 35.6092 24.7628C35.4939 24.777 35.3866 24.8293 35.3045 24.9114L34.5816 25.6343C34.5187 25.6967 34.4359 25.7349 34.3477 25.7423C34.2595 25.7498 34.1715 25.726 34.0991 25.675C34.0267 25.6241 33.9745 25.5493 33.9517 25.4638C33.9289 25.3783 33.9369 25.2875 33.9743 25.2073L34.5732 23.9291C34.606 23.8601 34.623 23.7847 34.623 23.7083C34.623 23.6319 34.606 23.5565 34.5732 23.4875L34.1961 22.6666C34.1572 22.5821 34.1451 22.4876 34.1615 22.396C34.1779 22.3043 34.2219 22.2199 34.2878 22.1541C34.5232 21.9177 34.7732 22.05 35.0711 22.1489C35.1767 22.1842 35.2909 22.1848 35.3968 22.1505C35.5027 22.1161 35.5948 22.0488 35.6597 21.9583L35.8368 21.7093C35.8918 21.6329 35.9696 21.5759 36.059 21.5463C36.1484 21.5168 36.2449 21.5162 36.3347 21.5448C36.4244 21.5733 36.5028 21.6294 36.5588 21.7052C36.6147 21.781 36.6453 21.8725 36.6461 21.9666V22.25C36.6461 22.2776 36.6571 22.3041 36.6766 22.3236C36.6962 22.3432 36.7227 22.3541 36.7503 22.3541H36.867C36.9649 22.3544 37.0608 22.3829 37.143 22.4362C37.2252 22.4896 37.2902 22.5655 37.3303 22.6549C37.3705 22.7443 37.384 22.8433 37.3692 22.9402C37.3545 23.0371 37.3121 23.1276 37.2472 23.201L36.8545 23.6468C36.7879 23.7215 36.7443 23.8138 36.7287 23.9126C36.7132 24.0114 36.7265 24.1126 36.767 24.2041L36.9347 24.5812C36.9698 24.6588 36.9791 24.7456 36.9612 24.8289C36.9433 24.9122 36.8992 24.9875 36.8353 25.0438C36.7714 25.1001 36.6911 25.1345 36.6062 25.1418C36.5214 25.1491 36.4364 25.1289 36.3638 25.0843L36.368 25.0895Z" fill="#231F20"/>
            <path d="M38 24.4438C37.9912 24.3743 37.9626 24.3088 37.9175 24.2552C37.8725 24.2015 37.813 24.162 37.7461 24.1413C37.6792 24.1206 37.6078 24.1196 37.5403 24.1384C37.4729 24.1573 37.4122 24.1951 37.3657 24.2475C37.3192 24.2998 37.2888 24.3645 37.278 24.4337C37.2673 24.5029 37.2767 24.5737 37.3052 24.6377C37.3336 24.7017 37.3799 24.7561 37.4384 24.7945C37.497 24.8329 37.5654 24.8536 37.6354 24.8542C37.6874 24.8546 37.7389 24.8439 37.7864 24.8227C37.8339 24.8016 37.8764 24.7706 37.9109 24.7317C37.9454 24.6929 37.9712 24.647 37.9866 24.5974C38.002 24.5477 38.0065 24.4953 38 24.4438ZM37.6552 24.6458C37.6138 24.6511 37.5719 24.6397 37.5389 24.6141C37.5059 24.5885 37.4844 24.5508 37.4792 24.5094C37.4739 24.4679 37.4853 24.4261 37.5109 24.3931C37.5365 24.3601 37.5742 24.3386 37.6156 24.3333C37.6571 24.3281 37.6989 24.3395 37.7319 24.3651C37.7649 24.3907 37.7864 24.4284 37.7917 24.4698C37.7969 24.5112 37.7855 24.5531 37.7599 24.5861C37.7343 24.6191 37.6966 24.6406 37.6552 24.6458ZM35.0833 21.625C35.1451 21.625 35.2056 21.6067 35.2569 21.5723C35.3083 21.538 35.3484 21.4892 35.372 21.4321C35.3957 21.375 35.4019 21.3122 35.3898 21.2515C35.3778 21.1909 35.348 21.1352 35.3043 21.0915C35.2606 21.0478 35.2049 21.0181 35.1443 21.006C35.0837 20.9939 35.0208 21.0001 34.9637 21.0238C34.9066 21.0474 34.8578 21.0875 34.8235 21.1389C34.7892 21.1903 34.7708 21.2507 34.7708 21.3125C34.7708 21.3954 34.8038 21.4749 34.8624 21.5335C34.921 21.5921 35.0005 21.625 35.0833 21.625ZM35.0833 21.2083C35.111 21.2083 35.1375 21.2193 35.157 21.2388C35.1765 21.2584 35.1875 21.2849 35.1875 21.3125C35.1875 21.3401 35.1765 21.3666 35.157 21.3862C35.1375 21.4057 35.111 21.4167 35.0833 21.4167C35.0557 21.4167 35.0292 21.4057 35.0097 21.3862C34.9901 21.3666 34.9792 21.3401 34.9792 21.3125C34.9792 21.2849 34.9901 21.2584 35.0097 21.2388C35.0292 21.2193 35.0557 21.2083 35.0833 21.2083ZM34.0417 23.5C34.0417 23.397 34.0111 23.2963 33.9539 23.2106C33.8967 23.125 33.8153 23.0582 33.7201 23.0188C33.625 22.9794 33.5203 22.9691 33.4192 22.9892C33.3182 23.0093 33.2254 23.0589 33.1525 23.1317C33.0797 23.2046 33.0301 23.2974 33.01 23.3984C32.9899 23.4994 33.0002 23.6041 33.0396 23.6993C33.0791 23.7945 33.1458 23.8758 33.2315 23.9331C33.3171 23.9903 33.4178 24.0208 33.5208 24.0208C33.659 24.0208 33.7914 23.966 33.8891 23.8683C33.9868 23.7706 34.0417 23.6381 34.0417 23.5ZM33.5208 23.8125C33.459 23.8125 33.3986 23.7942 33.3472 23.7598C33.2958 23.7255 33.2558 23.6767 33.2321 23.6196C33.2085 23.5625 33.2023 23.4997 33.2143 23.439C33.2264 23.3784 33.2562 23.3227 33.2999 23.279C33.3436 23.2353 33.3992 23.2056 33.4599 23.1935C33.5205 23.1814 33.5833 23.1876 33.6404 23.2113C33.6975 23.2349 33.7463 23.275 33.7807 23.3264C33.815 23.3778 33.8333 23.4382 33.8333 23.5C33.8333 23.5829 33.8004 23.6624 33.7418 23.721C33.6832 23.7796 33.6037 23.8125 33.5208 23.8125ZM35.6042 25.375C35.5424 25.375 35.4819 25.3933 35.4306 25.4277C35.3792 25.462 35.3391 25.5108 35.3155 25.5679C35.2918 25.625 35.2856 25.6878 35.2977 25.7485C35.3097 25.8091 35.3395 25.8648 35.3832 25.9085C35.4269 25.9522 35.4826 25.9819 35.5432 25.994C35.6038 26.0061 35.6667 25.9999 35.7238 25.9762C35.7809 25.9526 35.8297 25.9125 35.864 25.8611C35.8983 25.8097 35.9167 25.7493 35.9167 25.6875C35.9167 25.6046 35.8837 25.5251 35.8251 25.4665C35.7665 25.4079 35.687 25.375 35.6042 25.375ZM35.6042 25.7917C35.5765 25.7917 35.55 25.7807 35.5305 25.7612C35.511 25.7416 35.5 25.7151 35.5 25.6875C35.5 25.6599 35.511 25.6334 35.5305 25.6138C35.55 25.5943 35.5765 25.5833 35.6042 25.5833C35.6318 25.5833 35.6583 25.5943 35.6778 25.6138C35.6974 25.6334 35.7083 25.6599 35.7083 25.6875C35.7083 25.7151 35.6974 25.7416 35.6778 25.7612C35.6583 25.7807 35.6318 25.7917 35.6042 25.7917Z" fill="#231F20"/>
        </g>
    </g>
    <defs>
        <clipPath id="clip0_14_13769">
            <rect width="48" height="48" fill="white"/>
        </clipPath>
        <clipPath id="clip1_14_13769">
            <rect width="5" height="5" fill="white" transform="translate(16 22)"/>
        </clipPath>
        <clipPath id="clip2_14_13769">
            <rect width="5" height="5" fill="white" transform="translate(24 20)"/>
        </clipPath>
        <clipPath id="clip3_14_13769">
            <rect width="5" height="5" fill="white" transform="translate(33 21)"/>
        </clipPath>
    </defs>
</svg>
