<svg width="48" height="48" viewBox="0 0 48 48" fill="none" xmlns="http://www.w3.org/2000/svg">
    <path d="M18 1.5H9V43.5H18V1.5Z" fill="#DCDDDF"/>
    <path d="M39 1.5H18V43.5H39V1.5Z" fill="#DCDDDF"/>
    <path d="M11.3528 1.5H9V43.5H39V42.0195C31.1738 38.3759 24.4751 32.6891 19.6095 25.5581C14.7439 18.4271 11.8915 10.116 11.3528 1.5Z" fill="#B2AFB0"/>
    <path d="M34.5 15.75C34.5 14.9544 34.1839 14.1913 33.6213 13.6287C33.0587 13.0661 32.2956 12.75 31.5 12.75C30.7044 12.75 29.9413 13.0661 29.3787 13.6287C28.8161 14.1913 28.5 14.9544 28.5 15.75H34.5Z" fill="#656161"/>
    <path d="M31.5 15C31.0529 14.9989 30.6117 14.8973 30.2093 14.7025C29.8068 14.5078 29.4533 14.2249 29.175 13.875C28.7409 14.4037 28.5025 15.0659 28.5 15.75H34.5C34.4975 15.0659 34.2591 14.4037 33.825 13.875C33.5467 14.2249 33.1932 14.5078 32.7907 14.7025C32.3883 14.8973 31.9471 14.9989 31.5 15Z" fill="#2C2B2C"/>
    <path d="M30.75 18H29.25V19.5H30.75V18Z" fill="#8ED8F8"/>
    <path d="M15.75 19.5H14.25V28.5H15.75V19.5Z" fill="#484545"/>
    <path d="M15 19.5H14.25V28.5H15V19.5Z" fill="#2C2B2C"/>
    <path d="M9 43.5H39C39.7956 43.5 40.5587 43.8161 41.1213 44.3787C41.6839 44.9413 42 45.7044 42 46.5H6C6 45.7044 6.31607 44.9413 6.87868 44.3787C7.44129 43.8161 8.20435 43.5 9 43.5Z" fill="#A29FA0"/>
    <path d="M9.00016 45H39.0002C39.7247 44.9979 40.4235 44.7311 40.9652 44.25C40.4235 43.7689 39.7247 43.5021 39.0002 43.5H9.00016C8.27564 43.5021 7.57685 43.7689 7.03516 44.25C7.57685 44.7311 8.27564 44.9979 9.00016 45Z" fill="#DCDDDF"/>
    <path d="M39 10.2674C38.4659 9.46219 37.6867 8.85027 36.7779 8.52219C35.869 8.19412 34.8786 8.16731 33.9533 8.44574C33.028 8.72417 32.2169 9.29305 31.64 10.0682C31.0631 10.8434 30.7511 11.7836 30.75 12.7499V13.4999H32.25V12.7499C32.25 11.9543 32.5661 11.1912 33.1287 10.6286C33.6913 10.066 34.4544 9.74992 35.25 9.74992C36.0456 9.74992 36.8087 10.066 37.3713 10.6286C37.9339 11.1912 38.25 11.9543 38.25 12.7499H39V10.2674Z" fill="#656161"/>
    <path d="M30.75 12.75H32.25L31.35 10.509C30.956 11.1901 30.749 11.9632 30.75 12.75Z" fill="#2C2B2C"/>
    <path d="M29.25 18L30.75 19.5H29.25V18Z" fill="#3777BC"/>
    <path d="M33.75 18H32.25V19.5H33.75V18Z" fill="#8ED8F8"/>
    <path d="M32.25 18L33.75 19.5H32.25V18Z" fill="#3777BC"/>
    <path d="M30.75 21H29.25V22.5H30.75V21Z" fill="#8ED8F8"/>
    <path d="M29.25 21L30.75 22.5H29.25V21Z" fill="#3777BC"/>
    <path d="M33.75 21H32.25V22.5H33.75V21Z" fill="#8ED8F8"/>
    <path d="M32.25 21L33.75 22.5H32.25V21Z" fill="#3777BC"/>
    <path d="M30.75 24H29.25V25.5H30.75V24Z" fill="#8ED8F8"/>
    <path d="M29.25 24L30.75 25.5H29.25V24Z" fill="#3777BC"/>
    <path d="M33.75 24H32.25V25.5H33.75V24Z" fill="#8ED8F8"/>
    <path d="M32.25 24L33.75 25.5H32.25V24Z" fill="#3777BC"/>
    <path d="M21 1.5V27.477C22.7939 29.8432 24.8024 32.0388 27 34.0358V1.5H21Z" fill="#F7F5F5"/>
    <path d="M21 27.4771V43.5H27V34.0358C24.8024 32.0389 22.7939 29.8433 21 27.4771Z" fill="#C9C7C9"/>
    <path d="M39 42H9V43.5H39V42Z" fill="#8E8E8F"/>
    <path d="M27 42H21V43.5H27V42Z" fill="#A5A4A5"/>
    <path d="M18.75 1.5H17.25V43.5H18.75V1.5Z" fill="#7B7C7D"/>
    <path d="M18 1.5H17.25V43.5H18V1.5Z" fill="#2C2B2C"/>
    <g clip-path="url(#clip0_14_13866)">
        <path d="M33.4791 38.8844L32.876 40.1573C32.6447 40.6448 33.2728 41.0812 33.651 40.7031L34.3739 39.9802C34.4396 39.9144 34.5255 39.8725 34.6178 39.8612C34.7101 39.8499 34.8036 39.8698 34.8833 39.9177L35.3093 40.1729C35.4006 40.2273 35.5067 40.2514 35.6125 40.2417C35.7183 40.2319 35.8183 40.1889 35.8981 40.1187C35.9779 40.0485 36.0333 39.9549 36.0565 39.8512C36.0797 39.7475 36.0693 39.6391 36.027 39.5416L35.8593 39.1646C35.8265 39.0914 35.8156 39.0103 35.8278 38.931C35.84 38.8517 35.8748 38.7777 35.9281 38.7177L36.3249 38.2719C36.4037 38.1835 36.4553 38.0742 36.4734 37.9572C36.4914 37.8402 36.4753 37.7205 36.4268 37.6124C36.3784 37.5044 36.2997 37.4127 36.2003 37.3484C36.1009 37.2841 35.985 37.2499 35.8666 37.25H35.7499V36.9666C35.7494 36.8503 35.712 36.7372 35.6433 36.6434C35.5745 36.5496 35.4778 36.48 35.3671 36.4445C35.2563 36.409 35.1372 36.4095 35.0267 36.4458C34.9162 36.4822 34.8201 36.5525 34.752 36.6469L34.5749 36.8958C34.5231 36.9683 34.4495 37.0223 34.3647 37.0499C34.28 37.0774 34.1886 37.0771 34.1041 37.0489L33.7864 36.9448C33.6828 36.9105 33.5714 36.9072 33.466 36.9353C33.3606 36.9635 33.2656 37.0217 33.1929 37.103C33.1201 37.1843 33.0726 37.2851 33.0563 37.393C33.04 37.5009 33.0555 37.6112 33.101 37.7104L33.4812 38.5333C33.5064 38.5884 33.5193 38.6484 33.5189 38.7091C33.5186 38.7697 33.505 38.8295 33.4791 38.8844Z" fill="black"/>
        <path d="M35.8248 39.0147L35.7206 39.1324C35.4175 39.474 35.855 39.798 35.8613 40.1511C35.9544 40.0838 36.0217 39.9866 36.0519 39.8757C36.082 39.7648 36.0732 39.6469 36.0269 39.5417C35.854 39.1501 35.83 39.1251 35.8248 39.0147ZM35.8665 37.2501H35.7498V36.9667C35.7499 36.8945 35.7358 36.8229 35.7082 36.7561C35.6806 36.6893 35.6401 36.6286 35.589 36.5775C35.5379 36.5264 35.4772 36.4859 35.4104 36.4583C35.3437 36.4307 35.2721 36.4166 35.1998 36.4167C34.8696 36.4167 34.7508 36.649 34.5748 36.8959C34.523 36.9684 34.4493 37.0224 34.3646 37.05C34.2799 37.0776 34.1885 37.0772 34.104 37.049L33.7863 36.9449C33.7035 36.9174 33.6155 36.9097 33.5293 36.9222C33.443 36.9348 33.3609 36.9673 33.2894 37.0171C33.2179 37.067 33.159 37.1328 33.1174 37.2094C33.0758 37.286 33.0527 37.3713 33.0498 37.4584C33.5477 37.0563 34.0123 37.8095 34.3665 37.3147L34.5436 37.0657C34.6115 36.9715 34.7075 36.9012 34.8177 36.8648C34.928 36.8284 35.047 36.8278 35.1576 36.863C35.2683 36.8982 35.365 36.9675 35.4339 37.061C35.5028 37.1544 35.5405 37.2673 35.5415 37.3834V37.6667H35.6581C35.7435 37.6661 35.8281 37.6833 35.9064 37.7174C35.9847 37.7515 36.055 37.8016 36.1127 37.8645C36.1705 37.9274 36.2143 38.0018 36.2415 38.0827C36.2687 38.1637 36.2787 38.2494 36.2706 38.3345L36.3279 38.2699C36.4062 38.1812 36.4573 38.0719 36.4749 37.9549C36.4925 37.838 36.4759 37.7184 36.4271 37.6107C36.3784 37.5029 36.2995 37.4116 36.2 37.3476C36.1006 37.2836 35.9847 37.2498 35.8665 37.2501Z" fill="black"/>
        <path d="M36.6676 39.75C36.6206 39.7559 36.5729 39.7488 36.5296 39.7295C36.4863 39.7103 36.449 39.6796 36.4219 39.6407C36.3948 39.6019 36.3788 39.5563 36.3756 39.5091C36.3724 39.4618 36.3822 39.4145 36.4039 39.3724C36.4256 39.3303 36.4584 39.2948 36.4987 39.27C36.539 39.2451 36.5854 39.2317 36.6328 39.2312C36.6802 39.2307 36.7268 39.2432 36.7676 39.2673C36.8085 39.2913 36.8419 39.3261 36.8645 39.3677C36.8846 39.405 36.8954 39.4466 36.8958 39.489C36.8962 39.5314 36.8863 39.5732 36.8669 39.6108C36.8475 39.6485 36.8192 39.6809 36.7845 39.7051C36.7498 39.7294 36.7097 39.7448 36.6676 39.75Z" fill="black"/>
        <path d="M36.8956 39.4574C36.8885 39.403 36.8644 39.3522 36.8267 39.3122C36.789 39.2723 36.7396 39.2454 36.6856 39.2352C36.6317 39.225 36.5759 39.2322 36.5262 39.2556C36.4766 39.2791 36.4356 39.3176 36.4092 39.3657C36.4584 39.3388 36.515 39.3285 36.5705 39.3365C36.6261 39.3444 36.6775 39.3701 36.7172 39.4098C36.7568 39.4495 36.7826 39.5009 36.7905 39.5565C36.7985 39.612 36.7882 39.6686 36.7613 39.7178C36.8073 39.693 36.8448 39.6549 36.8688 39.6084C36.8927 39.5619 36.9021 39.5093 36.8956 39.4574Z" fill="black"/>
        <path d="M34.2917 36.3126C34.2917 36.3538 34.2794 36.3941 34.2566 36.4283C34.2337 36.4626 34.2011 36.4893 34.1631 36.5051C34.125 36.5208 34.0831 36.525 34.0427 36.5169C34.0023 36.5089 33.9652 36.489 33.936 36.4599C33.9069 36.4308 33.887 36.3936 33.879 36.3532C33.871 36.3128 33.8751 36.2709 33.8909 36.2329C33.9066 36.1948 33.9333 36.1623 33.9676 36.1394C34.0018 36.1165 34.0421 36.1042 34.0833 36.1042C34.1386 36.1042 34.1916 36.1262 34.2306 36.1653C34.2697 36.2043 34.2917 36.2573 34.2917 36.3126Z" fill="black"/>
        <path d="M34.2727 36.2269C34.2561 36.1906 34.2295 36.1597 34.1958 36.1381C34.1622 36.1165 34.1231 36.105 34.0831 36.105C34.0432 36.105 34.004 36.1165 33.9704 36.1381C33.9368 36.1597 33.9101 36.1906 33.8936 36.2269C33.932 36.2098 33.9748 36.2048 34.0162 36.2125C34.0576 36.2202 34.0957 36.2402 34.1255 36.27C34.1553 36.2998 34.1753 36.3379 34.183 36.3793C34.1907 36.4207 34.1857 36.4635 34.1686 36.5019C34.2188 36.4792 34.2579 36.4375 34.2774 36.386C34.297 36.3344 34.2953 36.2772 34.2727 36.2269Z" fill="black"/>
        <path d="M32.9373 38.4999C32.9373 38.5823 32.9129 38.6629 32.8671 38.7314C32.8213 38.7999 32.7563 38.8533 32.6801 38.8849C32.604 38.9164 32.5202 38.9247 32.4394 38.9086C32.3586 38.8925 32.2843 38.8528 32.226 38.7945C32.1678 38.7363 32.1281 38.662 32.112 38.5812C32.0959 38.5004 32.1042 38.4166 32.1357 38.3405C32.1673 38.2643 32.2207 38.1993 32.2892 38.1535C32.3577 38.1077 32.4383 38.0833 32.5207 38.0833C32.6312 38.0833 32.7372 38.1272 32.8153 38.2053C32.8934 38.2834 32.9373 38.3894 32.9373 38.4999ZM34.8123 40.6874C34.8123 40.7286 34.8001 40.7689 34.7772 40.8032C34.7543 40.8374 34.7218 40.8641 34.6837 40.8799C34.6457 40.8957 34.6038 40.8998 34.5634 40.8917C34.5229 40.8837 34.4858 40.8639 34.4567 40.8347C34.4276 40.8056 34.4077 40.7685 34.3997 40.7281C34.3916 40.6877 34.3958 40.6458 34.4115 40.6077C34.4273 40.5696 34.454 40.5371 34.4883 40.5142C34.5225 40.4913 34.5628 40.4791 34.604 40.4791C34.6593 40.4791 34.7122 40.501 34.7513 40.5401C34.7904 40.5792 34.8123 40.6322 34.8123 40.6874Z" fill="black"/>
        <path d="M35.9586 39.125C35.9343 39.0701 35.9263 39.0094 35.9355 38.9501C35.9447 38.8908 35.9708 38.8354 36.0107 38.7906L36.4065 38.3448C36.5001 38.2413 36.5614 38.1128 36.5831 37.975C36.6048 37.8372 36.5859 37.6961 36.5286 37.5689C36.4714 37.4417 36.3783 37.334 36.2608 37.2588C36.1433 37.1837 36.0064 37.1444 35.867 37.1458C35.8545 37.1458 35.8545 37.1729 35.8545 36.9666C35.8538 36.8284 35.8094 36.6939 35.7276 36.5824C35.6458 36.4709 35.5309 36.3881 35.3992 36.346C35.2676 36.3038 35.1259 36.3043 34.9946 36.3475C34.8632 36.3907 34.7489 36.4743 34.668 36.5864L34.4899 36.8333C34.4511 36.8878 34.3959 36.9285 34.3324 36.9493C34.2688 36.9701 34.2002 36.97 34.1368 36.9489L33.8243 36.8448C33.7013 36.8039 33.5691 36.7998 33.4439 36.8331C33.3186 36.8663 33.2059 36.9355 33.1194 37.032C33.033 37.1285 32.9766 37.2482 32.9573 37.3763C32.938 37.5044 32.9566 37.6354 33.0107 37.7531L33.3909 38.576C33.4753 38.7583 33.4326 38.7489 32.7868 40.1135C32.5107 40.6968 33.2638 41.2427 33.7243 40.7781L34.4472 40.0552C34.4963 40.0059 34.5605 39.9744 34.6296 39.9657C34.6986 39.957 34.7686 39.9716 34.8284 40.0073L35.2555 40.2635C35.366 40.3296 35.4946 40.3588 35.6228 40.3469C35.7509 40.335 35.872 40.2826 35.9684 40.1974C36.0648 40.1121 36.1316 39.9983 36.1591 39.8726C36.1865 39.7468 36.1732 39.6156 36.1211 39.4979L35.9586 39.125ZM35.368 40.0895L34.9409 39.8333C34.8413 39.7735 34.7246 39.7486 34.6092 39.7628C34.4939 39.777 34.3866 39.8293 34.3045 39.9114L33.5816 40.6343C33.5187 40.6967 33.4359 40.7349 33.3477 40.7423C33.2595 40.7498 33.1715 40.726 33.0991 40.675C33.0267 40.6241 32.9745 40.5493 32.9517 40.4638C32.9289 40.3783 32.9369 40.2875 32.9743 40.2073L33.5732 38.9291C33.606 38.8601 33.623 38.7847 33.623 38.7083C33.623 38.6319 33.606 38.5565 33.5732 38.4875L33.1961 37.6666C33.1572 37.5821 33.1451 37.4876 33.1615 37.396C33.1779 37.3043 33.2219 37.2199 33.2878 37.1541C33.5232 36.9177 33.7732 37.05 34.0711 37.1489C34.1767 37.1842 34.2909 37.1848 34.3968 37.1505C34.5027 37.1161 34.5948 37.0488 34.6597 36.9583L34.8368 36.7093C34.8918 36.6329 34.9696 36.5759 35.059 36.5463C35.1484 36.5168 35.2449 36.5162 35.3347 36.5448C35.4244 36.5733 35.5028 36.6294 35.5588 36.7052C35.6147 36.781 35.6453 36.8725 35.6461 36.9666V37.25C35.6461 37.2776 35.6571 37.3041 35.6766 37.3236C35.6962 37.3432 35.7227 37.3541 35.7503 37.3541H35.867C35.9649 37.3544 36.0608 37.3829 36.143 37.4362C36.2252 37.4896 36.2902 37.5655 36.3303 37.6549C36.3705 37.7443 36.384 37.8433 36.3692 37.9402C36.3545 38.0371 36.3121 38.1276 36.2472 38.201L35.8545 38.6468C35.7879 38.7215 35.7443 38.8138 35.7287 38.9126C35.7132 39.0114 35.7265 39.1126 35.767 39.2041L35.9347 39.5812C35.9698 39.6588 35.9791 39.7456 35.9612 39.8289C35.9433 39.9122 35.8992 39.9875 35.8353 40.0438C35.7714 40.1001 35.6911 40.1345 35.6062 40.1418C35.5214 40.1491 35.4364 40.1289 35.3638 40.0843L35.368 40.0895Z" fill="#231F20"/>
        <path d="M37 39.4438C36.9912 39.3743 36.9626 39.3088 36.9175 39.2552C36.8725 39.2015 36.813 39.162 36.7461 39.1413C36.6792 39.1206 36.6078 39.1196 36.5403 39.1384C36.4729 39.1573 36.4122 39.1951 36.3657 39.2475C36.3192 39.2998 36.2888 39.3645 36.278 39.4337C36.2673 39.5029 36.2767 39.5737 36.3052 39.6377C36.3336 39.7017 36.3799 39.7561 36.4384 39.7945C36.497 39.8329 36.5654 39.8536 36.6354 39.8542C36.6874 39.8546 36.7389 39.8439 36.7864 39.8227C36.8339 39.8016 36.8764 39.7706 36.9109 39.7317C36.9454 39.6929 36.9712 39.647 36.9866 39.5974C37.002 39.5477 37.0065 39.4953 37 39.4438ZM36.6552 39.6458C36.6138 39.6511 36.5719 39.6397 36.5389 39.6141C36.5059 39.5885 36.4844 39.5508 36.4792 39.5094C36.4739 39.4679 36.4853 39.4261 36.5109 39.3931C36.5365 39.3601 36.5742 39.3386 36.6156 39.3333C36.6571 39.3281 36.6989 39.3395 36.7319 39.3651C36.7649 39.3907 36.7864 39.4284 36.7917 39.4698C36.7969 39.5112 36.7855 39.5531 36.7599 39.5861C36.7343 39.6191 36.6966 39.6406 36.6552 39.6458ZM34.0833 36.625C34.1451 36.625 34.2056 36.6067 34.2569 36.5723C34.3083 36.538 34.3484 36.4892 34.372 36.4321C34.3957 36.375 34.4019 36.3122 34.3898 36.2515C34.3778 36.1909 34.348 36.1352 34.3043 36.0915C34.2606 36.0478 34.2049 36.0181 34.1443 36.006C34.0837 35.9939 34.0208 36.0001 33.9637 36.0238C33.9066 36.0474 33.8578 36.0875 33.8235 36.1389C33.7892 36.1903 33.7708 36.2507 33.7708 36.3125C33.7708 36.3954 33.8038 36.4749 33.8624 36.5335C33.921 36.5921 34.0005 36.625 34.0833 36.625ZM34.0833 36.2083C34.111 36.2083 34.1375 36.2193 34.157 36.2388C34.1765 36.2584 34.1875 36.2849 34.1875 36.3125C34.1875 36.3401 34.1765 36.3666 34.157 36.3862C34.1375 36.4057 34.111 36.4167 34.0833 36.4167C34.0557 36.4167 34.0292 36.4057 34.0097 36.3862C33.9901 36.3666 33.9792 36.3401 33.9792 36.3125C33.9792 36.2849 33.9901 36.2584 34.0097 36.2388C34.0292 36.2193 34.0557 36.2083 34.0833 36.2083ZM33.0417 38.5C33.0417 38.397 33.0111 38.2963 32.9539 38.2106C32.8967 38.125 32.8153 38.0582 32.7201 38.0188C32.625 37.9794 32.5203 37.9691 32.4192 37.9892C32.3182 38.0093 32.2254 38.0589 32.1525 38.1317C32.0797 38.2046 32.0301 38.2974 32.01 38.3984C31.9899 38.4994 32.0002 38.6041 32.0396 38.6993C32.0791 38.7945 32.1458 38.8758 32.2315 38.9331C32.3171 38.9903 32.4178 39.0208 32.5208 39.0208C32.659 39.0208 32.7914 38.966 32.8891 38.8683C32.9868 38.7706 33.0417 38.6381 33.0417 38.5ZM32.5208 38.8125C32.459 38.8125 32.3986 38.7942 32.3472 38.7598C32.2958 38.7255 32.2558 38.6767 32.2321 38.6196C32.2085 38.5625 32.2023 38.4997 32.2143 38.439C32.2264 38.3784 32.2562 38.3227 32.2999 38.279C32.3436 38.2353 32.3992 38.2056 32.4599 38.1935C32.5205 38.1814 32.5833 38.1876 32.6404 38.2113C32.6975 38.2349 32.7463 38.275 32.7807 38.3264C32.815 38.3778 32.8333 38.4382 32.8333 38.5C32.8333 38.5829 32.8004 38.6624 32.7418 38.721C32.6832 38.7796 32.6037 38.8125 32.5208 38.8125ZM34.6042 40.375C34.5424 40.375 34.4819 40.3933 34.4306 40.4277C34.3792 40.462 34.3391 40.5108 34.3155 40.5679C34.2918 40.625 34.2856 40.6878 34.2977 40.7485C34.3097 40.8091 34.3395 40.8648 34.3832 40.9085C34.4269 40.9522 34.4826 40.9819 34.5432 40.994C34.6038 41.0061 34.6667 40.9999 34.7238 40.9762C34.7809 40.9526 34.8297 40.9125 34.864 40.8611C34.8983 40.8097 34.9167 40.7493 34.9167 40.6875C34.9167 40.6046 34.8837 40.5251 34.8251 40.4665C34.7665 40.4079 34.687 40.375 34.6042 40.375ZM34.6042 40.7917C34.5765 40.7917 34.55 40.7807 34.5305 40.7612C34.511 40.7416 34.5 40.7151 34.5 40.6875C34.5 40.6599 34.511 40.6334 34.5305 40.6138C34.55 40.5943 34.5765 40.5833 34.6042 40.5833C34.6318 40.5833 34.6583 40.5943 34.6778 40.6138C34.6974 40.6334 34.7083 40.6599 34.7083 40.6875C34.7083 40.7151 34.6974 40.7416 34.6778 40.7612C34.6583 40.7807 34.6318 40.7917 34.6042 40.7917Z" fill="#231F20"/>
    </g>
    <g clip-path="url(#clip1_14_13866)">
        <path d="M23.4791 39.8844L22.876 41.1573C22.6447 41.6448 23.2728 42.0812 23.651 41.7031L24.3739 40.9802C24.4396 40.9144 24.5255 40.8725 24.6178 40.8612C24.7101 40.8499 24.8036 40.8698 24.8833 40.9177L25.3093 41.1729C25.4006 41.2273 25.5067 41.2514 25.6125 41.2417C25.7183 41.2319 25.8183 41.1889 25.8981 41.1187C25.9779 41.0485 26.0333 40.9549 26.0565 40.8512C26.0797 40.7475 26.0693 40.6391 26.027 40.5416L25.8593 40.1646C25.8265 40.0914 25.8156 40.0103 25.8278 39.931C25.84 39.8517 25.8748 39.7777 25.9281 39.7177L26.3249 39.2719C26.4037 39.1835 26.4553 39.0742 26.4734 38.9572C26.4914 38.8402 26.4753 38.7205 26.4268 38.6124C26.3784 38.5044 26.2997 38.4127 26.2003 38.3484C26.1009 38.2841 25.985 38.2499 25.8666 38.25H25.7499V37.9666C25.7494 37.8503 25.712 37.7372 25.6433 37.6434C25.5745 37.5496 25.4778 37.48 25.3671 37.4445C25.2563 37.409 25.1372 37.4095 25.0267 37.4458C24.9162 37.4822 24.8201 37.5525 24.752 37.6469L24.5749 37.8958C24.5231 37.9683 24.4495 38.0223 24.3647 38.0499C24.28 38.0774 24.1886 38.0771 24.1041 38.0489L23.7864 37.9448C23.6828 37.9105 23.5714 37.9072 23.466 37.9353C23.3606 37.9635 23.2656 38.0217 23.1929 38.103C23.1201 38.1843 23.0726 38.2851 23.0563 38.393C23.04 38.5009 23.0555 38.6112 23.101 38.7104L23.4812 39.5333C23.5064 39.5884 23.5193 39.6484 23.5189 39.7091C23.5186 39.7697 23.505 39.8295 23.4791 39.8844Z" fill="black"/>
        <path d="M25.8248 40.0147L25.7206 40.1324C25.4175 40.474 25.855 40.798 25.8613 41.1511C25.9544 41.0838 26.0217 40.9866 26.0519 40.8757C26.082 40.7648 26.0732 40.6469 26.0269 40.5417C25.854 40.1501 25.83 40.1251 25.8248 40.0147ZM25.8665 38.2501H25.7498V37.9667C25.7499 37.8945 25.7358 37.8229 25.7082 37.7561C25.6806 37.6893 25.6401 37.6286 25.589 37.5775C25.5379 37.5264 25.4772 37.4859 25.4104 37.4583C25.3437 37.4307 25.2721 37.4166 25.1998 37.4167C24.8696 37.4167 24.7508 37.649 24.5748 37.8959C24.523 37.9684 24.4493 38.0224 24.3646 38.05C24.2799 38.0776 24.1885 38.0772 24.104 38.049L23.7863 37.9449C23.7035 37.9174 23.6155 37.9097 23.5293 37.9222C23.443 37.9348 23.3609 37.9673 23.2894 38.0171C23.2179 38.067 23.159 38.1328 23.1174 38.2094C23.0758 38.286 23.0527 38.3713 23.0498 38.4584C23.5477 38.0563 24.0123 38.8095 24.3665 38.3147L24.5436 38.0657C24.6115 37.9715 24.7075 37.9012 24.8177 37.8648C24.928 37.8284 25.047 37.8278 25.1576 37.863C25.2683 37.8982 25.365 37.9675 25.4339 38.061C25.5028 38.1544 25.5405 38.2673 25.5415 38.3834V38.6667H25.6581C25.7435 38.6661 25.8281 38.6833 25.9064 38.7174C25.9847 38.7515 26.055 38.8016 26.1127 38.8645C26.1705 38.9274 26.2143 39.0018 26.2415 39.0827C26.2687 39.1637 26.2787 39.2494 26.2706 39.3345L26.3279 39.2699C26.4062 39.1812 26.4573 39.0719 26.4749 38.9549C26.4925 38.838 26.4759 38.7184 26.4271 38.6107C26.3784 38.5029 26.2995 38.4116 26.2 38.3476C26.1006 38.2836 25.9847 38.2498 25.8665 38.2501Z" fill="black"/>
        <path d="M26.6676 40.75C26.6206 40.7559 26.5729 40.7488 26.5296 40.7295C26.4863 40.7103 26.449 40.6796 26.4219 40.6407C26.3948 40.6019 26.3788 40.5563 26.3756 40.5091C26.3724 40.4618 26.3822 40.4145 26.4039 40.3724C26.4256 40.3303 26.4584 40.2948 26.4987 40.27C26.539 40.2451 26.5854 40.2317 26.6328 40.2312C26.6802 40.2307 26.7268 40.2432 26.7676 40.2673C26.8085 40.2913 26.8419 40.3261 26.8645 40.3677C26.8846 40.405 26.8954 40.4466 26.8958 40.489C26.8962 40.5314 26.8863 40.5732 26.8669 40.6108C26.8475 40.6485 26.8192 40.6809 26.7845 40.7051C26.7498 40.7294 26.7097 40.7448 26.6676 40.75Z" fill="black"/>
        <path d="M26.8956 40.4574C26.8885 40.403 26.8644 40.3522 26.8267 40.3122C26.789 40.2723 26.7396 40.2454 26.6856 40.2352C26.6317 40.225 26.5759 40.2322 26.5262 40.2556C26.4766 40.2791 26.4356 40.3176 26.4092 40.3657C26.4584 40.3388 26.515 40.3285 26.5705 40.3365C26.6261 40.3444 26.6775 40.3701 26.7172 40.4098C26.7568 40.4495 26.7826 40.5009 26.7905 40.5565C26.7985 40.612 26.7882 40.6686 26.7613 40.7178C26.8073 40.693 26.8448 40.6549 26.8688 40.6084C26.8927 40.5619 26.9021 40.5093 26.8956 40.4574Z" fill="black"/>
        <path d="M24.2917 37.3126C24.2917 37.3538 24.2794 37.3941 24.2566 37.4283C24.2337 37.4626 24.2011 37.4893 24.1631 37.5051C24.125 37.5208 24.0831 37.525 24.0427 37.5169C24.0023 37.5089 23.9652 37.489 23.936 37.4599C23.9069 37.4308 23.887 37.3936 23.879 37.3532C23.871 37.3128 23.8751 37.2709 23.8909 37.2329C23.9066 37.1948 23.9333 37.1623 23.9676 37.1394C24.0018 37.1165 24.0421 37.1042 24.0833 37.1042C24.1386 37.1042 24.1916 37.1262 24.2306 37.1653C24.2697 37.2043 24.2917 37.2573 24.2917 37.3126Z" fill="black"/>
        <path d="M24.2727 37.2269C24.2561 37.1906 24.2295 37.1597 24.1958 37.1381C24.1622 37.1165 24.1231 37.105 24.0831 37.105C24.0432 37.105 24.004 37.1165 23.9704 37.1381C23.9368 37.1597 23.9101 37.1906 23.8936 37.2269C23.932 37.2098 23.9748 37.2048 24.0162 37.2125C24.0576 37.2202 24.0957 37.2402 24.1255 37.27C24.1553 37.2998 24.1753 37.3379 24.183 37.3793C24.1907 37.4207 24.1857 37.4635 24.1686 37.5019C24.2188 37.4792 24.2579 37.4375 24.2774 37.386C24.297 37.3344 24.2953 37.2772 24.2727 37.2269Z" fill="black"/>
        <path d="M22.9373 39.4999C22.9373 39.5823 22.9129 39.6629 22.8671 39.7314C22.8213 39.7999 22.7563 39.8533 22.6801 39.8849C22.604 39.9164 22.5202 39.9247 22.4394 39.9086C22.3586 39.8925 22.2843 39.8528 22.226 39.7945C22.1678 39.7363 22.1281 39.662 22.112 39.5812C22.0959 39.5004 22.1042 39.4166 22.1357 39.3405C22.1673 39.2643 22.2207 39.1993 22.2892 39.1535C22.3577 39.1077 22.4383 39.0833 22.5207 39.0833C22.6312 39.0833 22.7372 39.1272 22.8153 39.2053C22.8934 39.2834 22.9373 39.3894 22.9373 39.4999ZM24.8123 41.6874C24.8123 41.7286 24.8001 41.7689 24.7772 41.8032C24.7543 41.8374 24.7218 41.8641 24.6837 41.8799C24.6457 41.8957 24.6038 41.8998 24.5634 41.8917C24.5229 41.8837 24.4858 41.8639 24.4567 41.8347C24.4276 41.8056 24.4077 41.7685 24.3997 41.7281C24.3916 41.6877 24.3958 41.6458 24.4115 41.6077C24.4273 41.5696 24.454 41.5371 24.4883 41.5142C24.5225 41.4913 24.5628 41.4791 24.604 41.4791C24.6593 41.4791 24.7122 41.501 24.7513 41.5401C24.7904 41.5792 24.8123 41.6322 24.8123 41.6874Z" fill="black"/>
        <path d="M25.9586 40.125C25.9343 40.0701 25.9263 40.0094 25.9355 39.9501C25.9447 39.8908 25.9708 39.8354 26.0107 39.7906L26.4065 39.3448C26.5001 39.2413 26.5614 39.1128 26.5831 38.975C26.6048 38.8372 26.5859 38.6961 26.5286 38.5689C26.4714 38.4417 26.3783 38.334 26.2608 38.2588C26.1433 38.1837 26.0064 38.1444 25.867 38.1458C25.8545 38.1458 25.8545 38.1729 25.8545 37.9666C25.8538 37.8284 25.8094 37.6939 25.7276 37.5824C25.6458 37.4709 25.5309 37.3881 25.3992 37.346C25.2676 37.3038 25.1259 37.3043 24.9946 37.3475C24.8632 37.3907 24.7489 37.4743 24.668 37.5864L24.4899 37.8333C24.4511 37.8878 24.3959 37.9285 24.3324 37.9493C24.2688 37.9701 24.2002 37.97 24.1368 37.9489L23.8243 37.8448C23.7013 37.8039 23.5691 37.7998 23.4439 37.8331C23.3186 37.8663 23.2059 37.9355 23.1194 38.032C23.033 38.1285 22.9766 38.2482 22.9573 38.3763C22.938 38.5044 22.9566 38.6354 23.0107 38.7531L23.3909 39.576C23.4753 39.7583 23.4326 39.7489 22.7868 41.1135C22.5107 41.6968 23.2638 42.2427 23.7243 41.7781L24.4472 41.0552C24.4963 41.0059 24.5605 40.9744 24.6296 40.9657C24.6986 40.957 24.7686 40.9716 24.8284 41.0073L25.2555 41.2635C25.366 41.3296 25.4946 41.3588 25.6228 41.3469C25.7509 41.335 25.872 41.2826 25.9684 41.1974C26.0648 41.1121 26.1316 40.9983 26.1591 40.8726C26.1865 40.7468 26.1732 40.6156 26.1211 40.4979L25.9586 40.125ZM25.368 41.0895L24.9409 40.8333C24.8413 40.7735 24.7246 40.7486 24.6092 40.7628C24.4939 40.777 24.3866 40.8293 24.3045 40.9114L23.5816 41.6343C23.5187 41.6967 23.4359 41.7349 23.3477 41.7423C23.2595 41.7498 23.1715 41.726 23.0991 41.675C23.0267 41.6241 22.9745 41.5493 22.9517 41.4638C22.9289 41.3783 22.9369 41.2875 22.9743 41.2073L23.5732 39.9291C23.606 39.8601 23.623 39.7847 23.623 39.7083C23.623 39.6319 23.606 39.5565 23.5732 39.4875L23.1961 38.6666C23.1572 38.5821 23.1451 38.4876 23.1615 38.396C23.1779 38.3043 23.2219 38.2199 23.2878 38.1541C23.5232 37.9177 23.7732 38.05 24.0711 38.1489C24.1767 38.1842 24.2909 38.1848 24.3968 38.1505C24.5027 38.1161 24.5948 38.0488 24.6597 37.9583L24.8368 37.7093C24.8918 37.6329 24.9696 37.5759 25.059 37.5463C25.1484 37.5168 25.2449 37.5162 25.3347 37.5448C25.4244 37.5733 25.5028 37.6294 25.5588 37.7052C25.6147 37.781 25.6453 37.8725 25.6461 37.9666V38.25C25.6461 38.2776 25.6571 38.3041 25.6766 38.3236C25.6962 38.3432 25.7227 38.3541 25.7503 38.3541H25.867C25.9649 38.3544 26.0608 38.3829 26.143 38.4362C26.2252 38.4896 26.2902 38.5655 26.3303 38.6549C26.3705 38.7443 26.384 38.8433 26.3692 38.9402C26.3545 39.0371 26.3121 39.1276 26.2472 39.201L25.8545 39.6468C25.7879 39.7215 25.7443 39.8138 25.7287 39.9126C25.7132 40.0114 25.7265 40.1126 25.767 40.2041L25.9347 40.5812C25.9698 40.6588 25.9791 40.7456 25.9612 40.8289C25.9433 40.9122 25.8992 40.9875 25.8353 41.0438C25.7714 41.1001 25.6911 41.1345 25.6062 41.1418C25.5214 41.1491 25.4364 41.1289 25.3638 41.0843L25.368 41.0895Z" fill="#231F20"/>
        <path d="M27 40.4438C26.9912 40.3743 26.9626 40.3088 26.9175 40.2552C26.8725 40.2015 26.813 40.162 26.7461 40.1413C26.6792 40.1206 26.6078 40.1196 26.5403 40.1384C26.4729 40.1573 26.4122 40.1951 26.3657 40.2475C26.3192 40.2998 26.2888 40.3645 26.278 40.4337C26.2673 40.5029 26.2767 40.5737 26.3052 40.6377C26.3336 40.7017 26.3799 40.7561 26.4384 40.7945C26.497 40.8329 26.5654 40.8536 26.6354 40.8542C26.6874 40.8546 26.7389 40.8439 26.7864 40.8227C26.8339 40.8016 26.8764 40.7706 26.9109 40.7317C26.9454 40.6929 26.9712 40.647 26.9866 40.5974C27.002 40.5477 27.0065 40.4953 27 40.4438ZM26.6552 40.6458C26.6138 40.6511 26.5719 40.6397 26.5389 40.6141C26.5059 40.5885 26.4844 40.5508 26.4792 40.5094C26.4739 40.4679 26.4853 40.4261 26.5109 40.3931C26.5365 40.3601 26.5742 40.3386 26.6156 40.3333C26.6571 40.3281 26.6989 40.3395 26.7319 40.3651C26.7649 40.3907 26.7864 40.4284 26.7917 40.4698C26.7969 40.5112 26.7855 40.5531 26.7599 40.5861C26.7343 40.6191 26.6966 40.6406 26.6552 40.6458ZM24.0833 37.625C24.1451 37.625 24.2056 37.6067 24.2569 37.5723C24.3083 37.538 24.3484 37.4892 24.372 37.4321C24.3957 37.375 24.4019 37.3122 24.3898 37.2515C24.3778 37.1909 24.348 37.1352 24.3043 37.0915C24.2606 37.0478 24.2049 37.0181 24.1443 37.006C24.0837 36.9939 24.0208 37.0001 23.9637 37.0238C23.9066 37.0474 23.8578 37.0875 23.8235 37.1389C23.7892 37.1903 23.7708 37.2507 23.7708 37.3125C23.7708 37.3954 23.8038 37.4749 23.8624 37.5335C23.921 37.5921 24.0005 37.625 24.0833 37.625ZM24.0833 37.2083C24.111 37.2083 24.1375 37.2193 24.157 37.2388C24.1765 37.2584 24.1875 37.2849 24.1875 37.3125C24.1875 37.3401 24.1765 37.3666 24.157 37.3862C24.1375 37.4057 24.111 37.4167 24.0833 37.4167C24.0557 37.4167 24.0292 37.4057 24.0097 37.3862C23.9901 37.3666 23.9792 37.3401 23.9792 37.3125C23.9792 37.2849 23.9901 37.2584 24.0097 37.2388C24.0292 37.2193 24.0557 37.2083 24.0833 37.2083ZM23.0417 39.5C23.0417 39.397 23.0111 39.2963 22.9539 39.2106C22.8967 39.125 22.8153 39.0582 22.7201 39.0188C22.625 38.9794 22.5203 38.9691 22.4192 38.9892C22.3182 39.0093 22.2254 39.0589 22.1525 39.1317C22.0797 39.2046 22.0301 39.2974 22.01 39.3984C21.9899 39.4994 22.0002 39.6041 22.0396 39.6993C22.0791 39.7945 22.1458 39.8758 22.2315 39.9331C22.3171 39.9903 22.4178 40.0208 22.5208 40.0208C22.659 40.0208 22.7914 39.966 22.8891 39.8683C22.9868 39.7706 23.0417 39.6381 23.0417 39.5ZM22.5208 39.8125C22.459 39.8125 22.3986 39.7942 22.3472 39.7598C22.2958 39.7255 22.2558 39.6767 22.2321 39.6196C22.2085 39.5625 22.2023 39.4997 22.2143 39.439C22.2264 39.3784 22.2562 39.3227 22.2999 39.279C22.3436 39.2353 22.3992 39.2056 22.4599 39.1935C22.5205 39.1814 22.5833 39.1876 22.6404 39.2113C22.6975 39.2349 22.7463 39.275 22.7807 39.3264C22.815 39.3778 22.8333 39.4382 22.8333 39.5C22.8333 39.5829 22.8004 39.6624 22.7418 39.721C22.6832 39.7796 22.6037 39.8125 22.5208 39.8125ZM24.6042 41.375C24.5424 41.375 24.4819 41.3933 24.4306 41.4277C24.3792 41.462 24.3391 41.5108 24.3155 41.5679C24.2918 41.625 24.2856 41.6878 24.2977 41.7485C24.3097 41.8091 24.3395 41.8648 24.3832 41.9085C24.4269 41.9522 24.4826 41.9819 24.5432 41.994C24.6038 42.0061 24.6667 41.9999 24.7238 41.9762C24.7809 41.9526 24.8297 41.9125 24.864 41.8611C24.8983 41.8097 24.9167 41.7493 24.9167 41.6875C24.9167 41.6046 24.8837 41.5251 24.8251 41.4665C24.7665 41.4079 24.687 41.375 24.6042 41.375ZM24.6042 41.7917C24.5765 41.7917 24.55 41.7807 24.5305 41.7612C24.511 41.7416 24.5 41.7151 24.5 41.6875C24.5 41.6599 24.511 41.6334 24.5305 41.6138C24.55 41.5943 24.5765 41.5833 24.6042 41.5833C24.6318 41.5833 24.6583 41.5943 24.6778 41.6138C24.6974 41.6334 24.7083 41.6599 24.7083 41.6875C24.7083 41.7151 24.6974 41.7416 24.6778 41.7612C24.6583 41.7807 24.6318 41.7917 24.6042 41.7917Z" fill="#231F20"/>
    </g>
    <g clip-path="url(#clip2_14_13866)">
        <path d="M11.4791 39.8844L10.876 41.1573C10.6447 41.6448 11.2728 42.0812 11.651 41.7031L12.3739 40.9802C12.4396 40.9144 12.5255 40.8725 12.6178 40.8612C12.7101 40.8499 12.8036 40.8698 12.8833 40.9177L13.3093 41.1729C13.4006 41.2273 13.5067 41.2514 13.6125 41.2417C13.7183 41.2319 13.8183 41.1889 13.8981 41.1187C13.9779 41.0485 14.0333 40.9549 14.0565 40.8512C14.0797 40.7475 14.0693 40.6391 14.027 40.5416L13.8593 40.1646C13.8265 40.0914 13.8156 40.0103 13.8278 39.931C13.84 39.8517 13.8748 39.7777 13.9281 39.7177L14.3249 39.2719C14.4037 39.1835 14.4553 39.0742 14.4734 38.9572C14.4914 38.8402 14.4753 38.7205 14.4268 38.6124C14.3784 38.5044 14.2997 38.4127 14.2003 38.3484C14.1009 38.2841 13.985 38.2499 13.8666 38.25H13.7499V37.9666C13.7494 37.8503 13.712 37.7372 13.6433 37.6434C13.5745 37.5496 13.4778 37.48 13.3671 37.4445C13.2563 37.409 13.1372 37.4095 13.0267 37.4458C12.9162 37.4822 12.8201 37.5525 12.752 37.6469L12.5749 37.8958C12.5231 37.9683 12.4495 38.0223 12.3647 38.0499C12.28 38.0774 12.1886 38.0771 12.1041 38.0489L11.7864 37.9448C11.6828 37.9105 11.5714 37.9072 11.466 37.9353C11.3606 37.9635 11.2656 38.0217 11.1929 38.103C11.1201 38.1843 11.0726 38.2851 11.0563 38.393C11.04 38.5009 11.0555 38.6112 11.101 38.7104L11.4812 39.5333C11.5064 39.5884 11.5193 39.6484 11.5189 39.7091C11.5186 39.7697 11.505 39.8295 11.4791 39.8844Z" fill="black"/>
        <path d="M13.8248 40.0147L13.7206 40.1324C13.4175 40.474 13.855 40.798 13.8613 41.1511C13.9544 41.0838 14.0217 40.9866 14.0519 40.8757C14.082 40.7648 14.0732 40.6469 14.0269 40.5417C13.854 40.1501 13.83 40.1251 13.8248 40.0147ZM13.8665 38.2501H13.7498V37.9667C13.7499 37.8945 13.7358 37.8229 13.7082 37.7561C13.6806 37.6893 13.6401 37.6286 13.589 37.5775C13.5379 37.5264 13.4772 37.4859 13.4104 37.4583C13.3437 37.4307 13.2721 37.4166 13.1998 37.4167C12.8696 37.4167 12.7508 37.649 12.5748 37.8959C12.523 37.9684 12.4493 38.0224 12.3646 38.05C12.2799 38.0776 12.1885 38.0772 12.104 38.049L11.7863 37.9449C11.7035 37.9174 11.6155 37.9097 11.5293 37.9222C11.443 37.9348 11.3609 37.9673 11.2894 38.0171C11.2179 38.067 11.159 38.1328 11.1174 38.2094C11.0758 38.286 11.0527 38.3713 11.0498 38.4584C11.5477 38.0563 12.0123 38.8095 12.3665 38.3147L12.5436 38.0657C12.6115 37.9715 12.7075 37.9012 12.8177 37.8648C12.928 37.8284 13.047 37.8278 13.1576 37.863C13.2683 37.8982 13.365 37.9675 13.4339 38.061C13.5028 38.1544 13.5405 38.2673 13.5415 38.3834V38.6667H13.6581C13.7435 38.6661 13.8281 38.6833 13.9064 38.7174C13.9847 38.7515 14.055 38.8016 14.1127 38.8645C14.1705 38.9274 14.2143 39.0018 14.2415 39.0827C14.2687 39.1637 14.2787 39.2494 14.2706 39.3345L14.3279 39.2699C14.4062 39.1812 14.4573 39.0719 14.4749 38.9549C14.4925 38.838 14.4759 38.7184 14.4271 38.6107C14.3784 38.5029 14.2995 38.4116 14.2 38.3476C14.1006 38.2836 13.9847 38.2498 13.8665 38.2501Z" fill="black"/>
        <path d="M14.6676 40.75C14.6206 40.7559 14.5729 40.7488 14.5296 40.7295C14.4863 40.7103 14.449 40.6796 14.4219 40.6407C14.3948 40.6019 14.3788 40.5563 14.3756 40.5091C14.3724 40.4618 14.3822 40.4145 14.4039 40.3724C14.4256 40.3303 14.4584 40.2948 14.4987 40.27C14.539 40.2451 14.5854 40.2317 14.6328 40.2312C14.6802 40.2307 14.7268 40.2432 14.7676 40.2673C14.8085 40.2913 14.8419 40.3261 14.8645 40.3677C14.8846 40.405 14.8954 40.4466 14.8958 40.489C14.8962 40.5314 14.8863 40.5732 14.8669 40.6108C14.8475 40.6485 14.8192 40.6809 14.7845 40.7051C14.7498 40.7294 14.7097 40.7448 14.6676 40.75Z" fill="black"/>
        <path d="M14.8956 40.4574C14.8885 40.403 14.8644 40.3522 14.8267 40.3122C14.789 40.2723 14.7396 40.2454 14.6856 40.2352C14.6317 40.225 14.5759 40.2322 14.5262 40.2556C14.4766 40.2791 14.4356 40.3176 14.4092 40.3657C14.4584 40.3388 14.515 40.3285 14.5705 40.3365C14.6261 40.3444 14.6775 40.3701 14.7172 40.4098C14.7568 40.4495 14.7826 40.5009 14.7905 40.5565C14.7985 40.612 14.7882 40.6686 14.7613 40.7178C14.8073 40.693 14.8448 40.6549 14.8688 40.6084C14.8927 40.5619 14.9021 40.5093 14.8956 40.4574Z" fill="black"/>
        <path d="M12.2917 37.3126C12.2917 37.3538 12.2794 37.3941 12.2566 37.4283C12.2337 37.4626 12.2011 37.4893 12.1631 37.5051C12.125 37.5208 12.0831 37.525 12.0427 37.5169C12.0023 37.5089 11.9652 37.489 11.936 37.4599C11.9069 37.4308 11.887 37.3936 11.879 37.3532C11.871 37.3128 11.8751 37.2709 11.8909 37.2329C11.9066 37.1948 11.9333 37.1623 11.9676 37.1394C12.0018 37.1165 12.0421 37.1042 12.0833 37.1042C12.1386 37.1042 12.1916 37.1262 12.2306 37.1653C12.2697 37.2043 12.2917 37.2573 12.2917 37.3126Z" fill="black"/>
        <path d="M12.2727 37.2269C12.2561 37.1906 12.2295 37.1597 12.1958 37.1381C12.1622 37.1165 12.1231 37.105 12.0831 37.105C12.0432 37.105 12.004 37.1165 11.9704 37.1381C11.9368 37.1597 11.9101 37.1906 11.8936 37.2269C11.932 37.2098 11.9748 37.2048 12.0162 37.2125C12.0576 37.2202 12.0957 37.2402 12.1255 37.27C12.1553 37.2998 12.1753 37.3379 12.183 37.3793C12.1907 37.4207 12.1857 37.4635 12.1686 37.5019C12.2188 37.4792 12.2579 37.4375 12.2774 37.386C12.297 37.3344 12.2953 37.2772 12.2727 37.2269Z" fill="black"/>
        <path d="M10.9373 39.4999C10.9373 39.5823 10.9129 39.6629 10.8671 39.7314C10.8213 39.7999 10.7563 39.8533 10.6801 39.8849C10.604 39.9164 10.5202 39.9247 10.4394 39.9086C10.3586 39.8925 10.2843 39.8528 10.226 39.7945C10.1678 39.7363 10.1281 39.662 10.112 39.5812C10.0959 39.5004 10.1042 39.4166 10.1357 39.3405C10.1673 39.2643 10.2207 39.1993 10.2892 39.1535C10.3577 39.1077 10.4383 39.0833 10.5207 39.0833C10.6312 39.0833 10.7372 39.1272 10.8153 39.2053C10.8934 39.2834 10.9373 39.3894 10.9373 39.4999ZM12.8123 41.6874C12.8123 41.7286 12.8001 41.7689 12.7772 41.8032C12.7543 41.8374 12.7218 41.8641 12.6837 41.8799C12.6457 41.8957 12.6038 41.8998 12.5634 41.8917C12.5229 41.8837 12.4858 41.8639 12.4567 41.8347C12.4276 41.8056 12.4077 41.7685 12.3997 41.7281C12.3916 41.6877 12.3958 41.6458 12.4115 41.6077C12.4273 41.5696 12.454 41.5371 12.4883 41.5142C12.5225 41.4913 12.5628 41.4791 12.604 41.4791C12.6593 41.4791 12.7122 41.501 12.7513 41.5401C12.7904 41.5792 12.8123 41.6322 12.8123 41.6874Z" fill="black"/>
        <path d="M13.9586 40.125C13.9343 40.0701 13.9263 40.0094 13.9355 39.9501C13.9447 39.8908 13.9708 39.8354 14.0107 39.7906L14.4065 39.3448C14.5001 39.2413 14.5614 39.1128 14.5831 38.975C14.6048 38.8372 14.5859 38.6961 14.5286 38.5689C14.4714 38.4417 14.3783 38.334 14.2608 38.2588C14.1433 38.1837 14.0064 38.1444 13.867 38.1458C13.8545 38.1458 13.8545 38.1729 13.8545 37.9666C13.8538 37.8284 13.8094 37.6939 13.7276 37.5824C13.6458 37.4709 13.5309 37.3881 13.3992 37.346C13.2676 37.3038 13.1259 37.3043 12.9946 37.3475C12.8632 37.3907 12.7489 37.4743 12.668 37.5864L12.4899 37.8333C12.4511 37.8878 12.3959 37.9285 12.3324 37.9493C12.2688 37.9701 12.2002 37.97 12.1368 37.9489L11.8243 37.8448C11.7013 37.8039 11.5691 37.7998 11.4439 37.8331C11.3186 37.8663 11.2059 37.9355 11.1194 38.032C11.033 38.1285 10.9766 38.2482 10.9573 38.3763C10.938 38.5044 10.9566 38.6354 11.0107 38.7531L11.3909 39.576C11.4753 39.7583 11.4326 39.7489 10.7868 41.1135C10.5107 41.6968 11.2638 42.2427 11.7243 41.7781L12.4472 41.0552C12.4963 41.0059 12.5605 40.9744 12.6296 40.9657C12.6986 40.957 12.7686 40.9716 12.8284 41.0073L13.2555 41.2635C13.366 41.3296 13.4946 41.3588 13.6228 41.3469C13.7509 41.335 13.872 41.2826 13.9684 41.1974C14.0648 41.1121 14.1316 40.9983 14.1591 40.8726C14.1865 40.7468 14.1732 40.6156 14.1211 40.4979L13.9586 40.125ZM13.368 41.0895L12.9409 40.8333C12.8413 40.7735 12.7246 40.7486 12.6092 40.7628C12.4939 40.777 12.3866 40.8293 12.3045 40.9114L11.5816 41.6343C11.5187 41.6967 11.4359 41.7349 11.3477 41.7423C11.2595 41.7498 11.1715 41.726 11.0991 41.675C11.0267 41.6241 10.9745 41.5493 10.9517 41.4638C10.9289 41.3783 10.9369 41.2875 10.9743 41.2073L11.5732 39.9291C11.606 39.8601 11.623 39.7847 11.623 39.7083C11.623 39.6319 11.606 39.5565 11.5732 39.4875L11.1961 38.6666C11.1572 38.5821 11.1451 38.4876 11.1615 38.396C11.1779 38.3043 11.2219 38.2199 11.2878 38.1541C11.5232 37.9177 11.7732 38.05 12.0711 38.1489C12.1767 38.1842 12.2909 38.1848 12.3968 38.1505C12.5027 38.1161 12.5948 38.0488 12.6597 37.9583L12.8368 37.7093C12.8918 37.6329 12.9696 37.5759 13.059 37.5463C13.1484 37.5168 13.2449 37.5162 13.3347 37.5448C13.4244 37.5733 13.5028 37.6294 13.5588 37.7052C13.6147 37.781 13.6453 37.8725 13.6461 37.9666V38.25C13.6461 38.2776 13.6571 38.3041 13.6766 38.3236C13.6962 38.3432 13.7227 38.3541 13.7503 38.3541H13.867C13.9649 38.3544 14.0608 38.3829 14.143 38.4362C14.2252 38.4896 14.2902 38.5655 14.3303 38.6549C14.3705 38.7443 14.384 38.8433 14.3692 38.9402C14.3545 39.0371 14.3121 39.1276 14.2472 39.201L13.8545 39.6468C13.7879 39.7215 13.7443 39.8138 13.7287 39.9126C13.7132 40.0114 13.7265 40.1126 13.767 40.2041L13.9347 40.5812C13.9698 40.6588 13.9791 40.7456 13.9612 40.8289C13.9433 40.9122 13.8992 40.9875 13.8353 41.0438C13.7714 41.1001 13.6911 41.1345 13.6062 41.1418C13.5214 41.1491 13.4364 41.1289 13.3638 41.0843L13.368 41.0895Z" fill="#231F20"/>
        <path d="M15 40.4438C14.9912 40.3743 14.9626 40.3088 14.9175 40.2552C14.8725 40.2015 14.813 40.162 14.7461 40.1413C14.6792 40.1206 14.6078 40.1196 14.5403 40.1384C14.4729 40.1573 14.4122 40.1951 14.3657 40.2475C14.3192 40.2998 14.2888 40.3645 14.278 40.4337C14.2673 40.5029 14.2767 40.5737 14.3052 40.6377C14.3336 40.7017 14.3799 40.7561 14.4384 40.7945C14.497 40.8329 14.5654 40.8536 14.6354 40.8542C14.6874 40.8546 14.7389 40.8439 14.7864 40.8227C14.8339 40.8016 14.8764 40.7706 14.9109 40.7317C14.9454 40.6929 14.9712 40.647 14.9866 40.5974C15.002 40.5477 15.0065 40.4953 15 40.4438ZM14.6552 40.6458C14.6138 40.6511 14.5719 40.6397 14.5389 40.6141C14.5059 40.5885 14.4844 40.5508 14.4792 40.5094C14.4739 40.4679 14.4853 40.4261 14.5109 40.3931C14.5365 40.3601 14.5742 40.3386 14.6156 40.3333C14.6571 40.3281 14.6989 40.3395 14.7319 40.3651C14.7649 40.3907 14.7864 40.4284 14.7917 40.4698C14.7969 40.5112 14.7855 40.5531 14.7599 40.5861C14.7343 40.6191 14.6966 40.6406 14.6552 40.6458ZM12.0833 37.625C12.1451 37.625 12.2056 37.6067 12.2569 37.5723C12.3083 37.538 12.3484 37.4892 12.372 37.4321C12.3957 37.375 12.4019 37.3122 12.3898 37.2515C12.3778 37.1909 12.348 37.1352 12.3043 37.0915C12.2606 37.0478 12.2049 37.0181 12.1443 37.006C12.0837 36.9939 12.0208 37.0001 11.9637 37.0238C11.9066 37.0474 11.8578 37.0875 11.8235 37.1389C11.7892 37.1903 11.7708 37.2507 11.7708 37.3125C11.7708 37.3954 11.8038 37.4749 11.8624 37.5335C11.921 37.5921 12.0005 37.625 12.0833 37.625ZM12.0833 37.2083C12.111 37.2083 12.1375 37.2193 12.157 37.2388C12.1765 37.2584 12.1875 37.2849 12.1875 37.3125C12.1875 37.3401 12.1765 37.3666 12.157 37.3862C12.1375 37.4057 12.111 37.4167 12.0833 37.4167C12.0557 37.4167 12.0292 37.4057 12.0097 37.3862C11.9901 37.3666 11.9792 37.3401 11.9792 37.3125C11.9792 37.2849 11.9901 37.2584 12.0097 37.2388C12.0292 37.2193 12.0557 37.2083 12.0833 37.2083ZM11.0417 39.5C11.0417 39.397 11.0111 39.2963 10.9539 39.2106C10.8967 39.125 10.8153 39.0582 10.7201 39.0188C10.625 38.9794 10.5203 38.9691 10.4192 38.9892C10.3182 39.0093 10.2254 39.0589 10.1525 39.1317C10.0797 39.2046 10.0301 39.2974 10.01 39.3984C9.98991 39.4994 10.0002 39.6041 10.0396 39.6993C10.0791 39.7945 10.1458 39.8758 10.2315 39.9331C10.3171 39.9903 10.4178 40.0208 10.5208 40.0208C10.659 40.0208 10.7914 39.966 10.8891 39.8683C10.9868 39.7706 11.0417 39.6381 11.0417 39.5ZM10.5208 39.8125C10.459 39.8125 10.3986 39.7942 10.3472 39.7598C10.2958 39.7255 10.2558 39.6767 10.2321 39.6196C10.2085 39.5625 10.2023 39.4997 10.2143 39.439C10.2264 39.3784 10.2562 39.3227 10.2999 39.279C10.3436 39.2353 10.3992 39.2056 10.4599 39.1935C10.5205 39.1814 10.5833 39.1876 10.6404 39.2113C10.6975 39.2349 10.7463 39.275 10.7807 39.3264C10.815 39.3778 10.8333 39.4382 10.8333 39.5C10.8333 39.5829 10.8004 39.6624 10.7418 39.721C10.6832 39.7796 10.6037 39.8125 10.5208 39.8125ZM12.6042 41.375C12.5424 41.375 12.4819 41.3933 12.4306 41.4277C12.3792 41.462 12.3391 41.5108 12.3155 41.5679C12.2918 41.625 12.2856 41.6878 12.2977 41.7485C12.3097 41.8091 12.3395 41.8648 12.3832 41.9085C12.4269 41.9522 12.4826 41.9819 12.5432 41.994C12.6038 42.0061 12.6667 41.9999 12.7238 41.9762C12.7809 41.9526 12.8297 41.9125 12.864 41.8611C12.8983 41.8097 12.9167 41.7493 12.9167 41.6875C12.9167 41.6046 12.8837 41.5251 12.8251 41.4665C12.7665 41.4079 12.687 41.375 12.6042 41.375ZM12.6042 41.7917C12.5765 41.7917 12.55 41.7807 12.5305 41.7612C12.511 41.7416 12.5 41.7151 12.5 41.6875C12.5 41.6599 12.511 41.6334 12.5305 41.6138C12.55 41.5943 12.5765 41.5833 12.6042 41.5833C12.6318 41.5833 12.6583 41.5943 12.6778 41.6138C12.6974 41.6334 12.7083 41.6599 12.7083 41.6875C12.7083 41.7151 12.6974 41.7416 12.6778 41.7612C12.6583 41.7807 12.6318 41.7917 12.6042 41.7917Z" fill="#231F20"/>
    </g>
    <defs>
        <clipPath id="clip0_14_13866">
            <rect width="5" height="5" fill="white" transform="translate(32 36)"/>
        </clipPath>
        <clipPath id="clip1_14_13866">
            <rect width="5" height="5" fill="white" transform="translate(22 37)"/>
        </clipPath>
        <clipPath id="clip2_14_13866">
            <rect width="5" height="5" fill="white" transform="translate(10 37)"/>
        </clipPath>
    </defs>
</svg>
