<svg width="48" height="48" viewBox="0 0 48 48" fill="none" xmlns="http://www.w3.org/2000/svg">
    <g clip-path="url(#clip0_13_13769)">
        <path d="M47.039 0.959961H0.959961V47.04H47.039V0.959961Z" fill="#E9715F"/>
        <path d="M4.44577 0.963867H0.962891V4.81923H4.44577V0.963867Z" fill="#D75548"/>
        <path d="M13.9095 0.959961H5.69287V4.82588H13.9095V0.959961Z" fill="#D75548"/>
        <path d="M23.3748 0.959961H15.1582V4.82588H23.3748V0.959961Z" fill="#D75548"/>
        <path d="M32.8407 0.959961H24.624V4.82588H32.8407V0.959961Z" fill="#D75548"/>
        <path d="M42.3065 0.959961H34.0898V4.82588H42.3065V0.959961Z" fill="#D75548"/>
        <path d="M47.039 0.963867H43.5562V4.81923H47.039V0.963867Z" fill="#D75548"/>
        <path d="M4.44577 11.5115H0.962891V15.3812H4.44577V11.5115Z" fill="#D75548"/>
        <path d="M13.9095 11.5132H5.69287V15.3791H13.9095V11.5132Z" fill="#D75548"/>
        <path d="M23.3748 11.5132H15.1582V15.3791H23.3748V11.5132Z" fill="#D75548"/>
        <path d="M32.8407 11.5132H24.624V15.3791H32.8407V11.5132Z" fill="#D75548"/>
        <path d="M42.3065 11.5132H34.0898V15.3791H42.3065V11.5132Z" fill="#D75548"/>
        <path d="M47.039 11.5115H43.5562V15.3812H47.039V11.5115Z" fill="#D75548"/>
        <path d="M9.1766 6.23706H0.959961V10.103H9.1766V6.23706Z" fill="#D75548"/>
        <path d="M18.6424 6.23706H10.4258V10.103H18.6424V6.23706Z" fill="#D75548"/>
        <path d="M28.1078 6.23706H19.8911V10.103H28.1078V6.23706Z" fill="#D75548"/>
        <path d="M37.5736 6.23706H29.3569V10.103H37.5736V6.23706Z" fill="#D75548"/>
        <path d="M47.0389 6.23706H38.8223V10.103H47.0389V6.23706Z" fill="#D75548"/>
        <path d="M4.44577 22.0715H0.962891V25.9269H4.44577V22.0715Z" fill="#D75548"/>
        <path d="M13.9095 22.0667H5.69287V25.9326H13.9095V22.0667Z" fill="#D75548"/>
        <path d="M23.3748 22.0667H15.1582V25.9326H23.3748V22.0667Z" fill="#D75548"/>
        <path d="M32.8407 22.0667H24.624V25.9326H32.8407V22.0667Z" fill="#D75548"/>
        <path d="M42.3065 22.0667H34.0898V25.9326H42.3065V22.0667Z" fill="#D75548"/>
        <path d="M47.039 22.0715H43.5562V25.9269H47.039V22.0715Z" fill="#D75548"/>
        <path d="M9.1766 16.7903H0.959961V20.6562H9.1766V16.7903Z" fill="#D75548"/>
        <path d="M18.6424 16.7903H10.4258V20.6562H18.6424V16.7903Z" fill="#D75548"/>
        <path d="M28.1078 16.7903H19.8911V20.6562H28.1078V16.7903Z" fill="#D75548"/>
        <path d="M37.5736 16.7903H29.3569V20.6562H37.5736V16.7903Z" fill="#D75548"/>
        <path d="M47.0389 16.7903H38.8223V20.6562H47.0389V16.7903Z" fill="#D75548"/>
        <path d="M4.44577 32.6179H0.962891V36.4877H4.44577V32.6179Z" fill="#D75548"/>
        <path d="M13.9095 32.6208H5.69287V36.4868H13.9095V32.6208Z" fill="#D75548"/>
        <path d="M23.3748 32.6208H15.1582V36.4868H23.3748V32.6208Z" fill="#D75548"/>
        <path d="M32.8407 32.6208H24.624V36.4868H32.8407V32.6208Z" fill="#D75548"/>
        <path d="M42.3065 32.6208H34.0898V36.4868H42.3065V32.6208Z" fill="#D75548"/>
        <path d="M47.039 32.6179H43.5562V36.4877H47.039V32.6179Z" fill="#D75548"/>
        <path d="M9.1766 27.3438H0.959961V31.2097H9.1766V27.3438Z" fill="#D75548"/>
        <path d="M18.6424 27.3438H10.4258V31.2097H18.6424V27.3438Z" fill="#D75548"/>
        <path d="M28.1078 27.3438H19.8911V31.2097H28.1078V27.3438Z" fill="#D75548"/>
        <path d="M37.5736 27.3438H29.3569V31.2097H37.5736V27.3438Z" fill="#D75548"/>
        <path d="M47.0389 27.3438H38.8223V31.2097H47.0389V27.3438Z" fill="#D75548"/>
        <path d="M4.44577 43.179H0.962891V47.0343H4.44577V43.179Z" fill="#D75548"/>
        <path d="M13.9095 43.1741H5.69287V47.04H13.9095V43.1741Z" fill="#D75548"/>
        <path d="M23.3748 43.1741H15.1582V47.04H23.3748V43.1741Z" fill="#D75548"/>
        <path d="M32.8407 43.1741H24.624V47.04H32.8407V43.1741Z" fill="#D75548"/>
        <path d="M42.3065 43.1741H34.0898V47.04H42.3065V43.1741Z" fill="#D75548"/>
        <path d="M47.039 43.179H43.5562V47.0343H47.039V43.179Z" fill="#D75548"/>
        <path d="M9.1766 37.897H0.959961V41.7629H9.1766V37.897Z" fill="#D75548"/>
        <path d="M18.6424 37.897H10.4258V41.7629H18.6424V37.897Z" fill="#D75548"/>
        <path d="M28.1078 37.897H19.8911V41.7629H28.1078V37.897Z" fill="#D75548"/>
        <path d="M37.5736 37.897H29.3569V41.7629H37.5736V37.897Z" fill="#D75548"/>
        <path d="M47.0389 37.897H38.8223V41.7629H47.0389V37.897Z" fill="#D75548"/>
        <g clip-path="url(#clip1_13_13769)">
            <path d="M12.3581 14.2086L11.1518 16.7545C10.6893 17.7295 11.9456 18.6024 12.7018 17.8461L14.1477 16.4003C14.2792 16.2688 14.4509 16.185 14.6355 16.1624C14.8201 16.1397 15.007 16.1795 15.1664 16.2753L16.0185 16.7857C16.201 16.8946 16.4133 16.9427 16.625 16.9233C16.8366 16.9038 17.0365 16.8177 17.1961 16.6773C17.3557 16.537 17.4666 16.3496 17.5129 16.1423C17.5593 15.9349 17.5386 15.7181 17.4539 15.5232L17.1185 14.7691C17.053 14.6227 17.0311 14.4604 17.0555 14.3019C17.0799 14.1434 17.1495 13.9952 17.256 13.8753L18.0498 12.9836C18.2074 12.8069 18.3104 12.5884 18.3466 12.3543C18.3828 12.1203 18.3504 11.8809 18.2535 11.6648C18.1566 11.4487 17.9993 11.2653 17.8005 11.1367C17.6017 11.0081 17.3699 10.9397 17.1331 10.9399H16.8998V10.3732C16.8987 10.1406 16.824 9.91433 16.6864 9.72675C16.5489 9.53917 16.3555 9.39992 16.134 9.32894C15.9125 9.25796 15.6742 9.25888 15.4533 9.33157C15.2323 9.40427 15.04 9.54501 14.9039 9.73364L14.5498 10.2316C14.4462 10.3766 14.2988 10.4846 14.1294 10.5397C13.9599 10.5948 13.7772 10.5942 13.6081 10.5378L12.9727 10.3295C12.7655 10.2609 12.5428 10.2544 12.3319 10.3106C12.1211 10.3668 11.9312 10.4834 11.7856 10.646C11.6401 10.8086 11.5451 11.0102 11.5125 11.2259C11.4798 11.4417 11.5109 11.6623 11.6018 11.8607L12.3623 13.5066C12.4127 13.6168 12.4384 13.7368 12.4377 13.8581C12.437 13.9793 12.4098 14.099 12.3581 14.2086Z" fill="#F9C630"/>
            <path d="M17.05 14.469L16.8417 14.7044C16.2354 15.3878 17.1104 16.0357 17.1229 16.7419C17.3093 16.6074 17.4438 16.413 17.5041 16.1912C17.5644 15.9694 17.5468 15.7336 17.4542 15.5232C17.1083 14.7399 17.0604 14.6899 17.05 14.469ZM17.1333 10.9399H16.9V10.3732C16.9003 10.2287 16.872 10.0855 16.8168 9.95192C16.7616 9.81834 16.6806 9.69696 16.5784 9.59477C16.4762 9.49257 16.3549 9.41155 16.2213 9.35637C16.0877 9.30119 15.9445 9.27292 15.8 9.2732C15.1396 9.2732 14.9021 9.73778 14.55 10.2315C14.4464 10.3766 14.2991 10.4846 14.1296 10.5397C13.9601 10.5948 13.7774 10.5941 13.6083 10.5378L12.9729 10.3294C12.8074 10.2746 12.6315 10.2591 12.4589 10.2842C12.2864 10.3093 12.1221 10.3742 11.9791 10.474C11.8361 10.5737 11.7184 10.7054 11.6352 10.8586C11.552 11.0118 11.5057 11.1823 11.5 11.3565C12.4958 10.5524 13.425 12.0586 14.1333 11.069L14.4875 10.5711C14.6234 10.3828 14.8153 10.2421 15.0358 10.1693C15.2564 10.0965 15.4943 10.0953 15.7156 10.1657C15.9369 10.2362 16.1303 10.3748 16.2682 10.5617C16.4061 10.7486 16.4814 10.9743 16.4833 11.2065V11.7732H16.7167C16.8875 11.7719 17.0566 11.8064 17.2132 11.8745C17.3698 11.9426 17.5104 12.0429 17.6259 12.1687C17.7413 12.2946 17.8291 12.4433 17.8835 12.6052C17.9379 12.7671 17.9577 12.9386 17.9417 13.1086L18.0562 12.9794C18.2129 12.8022 18.3149 12.5835 18.3501 12.3496C18.3853 12.1157 18.3522 11.8766 18.2547 11.6611C18.1571 11.4456 17.9994 11.2628 17.8005 11.1349C17.6015 11.0069 17.3699 10.9392 17.1333 10.9399Z" fill="#F9C630"/>
            <path d="M18.7351 15.94C18.6411 15.9517 18.5456 15.9376 18.459 15.899C18.3724 15.8605 18.298 15.7991 18.2437 15.7214C18.1894 15.6437 18.1574 15.5526 18.1511 15.4581C18.1447 15.3635 18.1643 15.269 18.2077 15.1847C18.2511 15.1005 18.3167 15.0296 18.3973 14.9799C18.478 14.9301 18.5707 14.9033 18.6655 14.9024C18.7603 14.9014 18.8535 14.9263 18.9352 14.9745C19.0168 15.0226 19.0838 15.0921 19.1289 15.1754C19.1692 15.25 19.1907 15.3332 19.1915 15.4179C19.1924 15.5027 19.1726 15.5863 19.1338 15.6616C19.095 15.737 19.0384 15.8017 18.9689 15.8502C18.8995 15.8987 18.8192 15.9295 18.7351 15.94Z" fill="#F9C630"/>
            <path d="M19.1917 15.3545C19.1774 15.2456 19.1292 15.144 19.0537 15.0642C18.9783 14.9844 18.8796 14.9305 18.7717 14.9101C18.6638 14.8898 18.5522 14.9041 18.4529 14.951C18.3536 14.9978 18.2716 15.0749 18.2188 15.1712C18.3172 15.1173 18.4304 15.0967 18.5414 15.1126C18.6525 15.1285 18.7554 15.18 18.8347 15.2593C18.9141 15.3387 18.9656 15.4416 18.9815 15.5526C18.9973 15.6637 18.9768 15.7769 18.9229 15.8753C19.015 15.8257 19.0899 15.7494 19.1379 15.6565C19.1859 15.5636 19.2046 15.4583 19.1917 15.3545Z" fill="#F9C630"/>
            <path d="M13.9832 9.06486C13.9832 9.14727 13.9588 9.22783 13.913 9.29635C13.8672 9.36487 13.8022 9.41827 13.726 9.44981C13.6499 9.48135 13.5661 9.4896 13.4853 9.47352C13.4045 9.45744 13.3302 9.41776 13.2719 9.35949C13.2137 9.30122 13.174 9.22697 13.1579 9.14615C13.1418 9.06532 13.1501 8.98154 13.1816 8.90541C13.2132 8.82927 13.2666 8.7642 13.3351 8.71841C13.4036 8.67263 13.4842 8.64819 13.5666 8.64819C13.6771 8.64819 13.7831 8.69209 13.8612 8.77023C13.9393 8.84837 13.9832 8.95435 13.9832 9.06486Z" fill="#F9C630"/>
            <path d="M13.9458 8.89406C13.9127 8.82131 13.8593 8.75964 13.7921 8.71639C13.7249 8.67314 13.6466 8.65015 13.5667 8.65015C13.4867 8.65015 13.4085 8.67314 13.3412 8.71639C13.274 8.75964 13.2206 8.82131 13.1875 8.89406C13.2645 8.85984 13.35 8.84976 13.4328 8.86513C13.5156 8.8805 13.5918 8.92061 13.6514 8.98017C13.7109 9.03973 13.7511 9.11594 13.7664 9.19875C13.7818 9.28157 13.7717 9.36709 13.7375 9.44406C13.8379 9.39859 13.9162 9.31518 13.9553 9.21209C13.9943 9.10901 13.9909 8.99465 13.9458 8.89406Z" fill="#F9C630"/>
            <path d="M11.2751 13.44C11.2751 13.6048 11.2262 13.766 11.1346 13.903C11.0431 14.04 10.9129 14.1468 10.7606 14.2099C10.6084 14.273 10.4408 14.2895 10.2792 14.2573C10.1175 14.2252 9.96902 14.1458 9.85248 14.0293C9.73593 13.9127 9.65657 13.7642 9.62441 13.6026C9.59226 13.4409 9.60876 13.2734 9.67183 13.1211C9.73491 12.9688 9.84172 12.8387 9.97876 12.7471C10.1158 12.6556 10.2769 12.6067 10.4417 12.6067C10.6627 12.6067 10.8747 12.6945 11.031 12.8508C11.1873 13.007 11.2751 13.219 11.2751 13.44ZM15.0251 17.815C15.0251 17.8974 15.0006 17.978 14.9548 18.0465C14.9091 18.115 14.844 18.1684 14.7679 18.2C14.6917 18.2315 14.6079 18.2398 14.5271 18.2237C14.4463 18.2076 14.372 18.1679 14.3138 18.1097C14.2555 18.0514 14.2158 17.9771 14.1997 17.8963C14.1837 17.8155 14.1919 17.7317 14.2234 17.6556C14.255 17.5794 14.3084 17.5144 14.3769 17.4686C14.4454 17.4228 14.526 17.3984 14.6084 17.3984C14.7189 17.3984 14.8249 17.4423 14.903 17.5204C14.9812 17.5985 15.0251 17.7045 15.0251 17.815Z" fill="#F9C630"/>
            <path d="M17.3167 14.6899C17.268 14.5802 17.2519 14.4588 17.2704 14.3402C17.2889 14.2216 17.3411 14.1108 17.4208 14.0211L18.2125 13.1294C18.3996 12.9225 18.5223 12.6655 18.5657 12.39C18.609 12.1144 18.5711 11.8322 18.4566 11.5778C18.3422 11.3234 18.156 11.1079 17.921 10.9576C17.686 10.8073 17.4123 10.7287 17.1333 10.7315C17.1083 10.7315 17.1083 10.7857 17.1083 10.3732C17.107 10.0967 17.0181 9.82769 16.8546 9.60472C16.6911 9.38175 16.4612 9.21623 16.1978 9.13185C15.9345 9.04746 15.6512 9.04854 15.3886 9.13492C15.1259 9.22131 14.8973 9.38857 14.7354 9.61278L14.3792 10.1065C14.3017 10.2156 14.1913 10.2969 14.0642 10.3385C13.937 10.3801 13.7999 10.3799 13.6729 10.3378L13.0479 10.1294C12.802 10.0477 12.5376 10.0395 12.2872 10.106C12.0367 10.1726 11.8112 10.3109 11.6383 10.5039C11.4654 10.6969 11.3527 10.9363 11.3141 11.1925C11.2754 11.4487 11.3126 11.7107 11.4208 11.9461L12.1813 13.5919C12.35 13.9565 12.2646 13.9378 10.9729 16.6669C10.4208 17.8336 11.9271 18.9253 12.8479 17.9961L14.2938 16.5503C14.392 16.4517 14.5204 16.3887 14.6585 16.3713C14.7967 16.354 14.9366 16.3832 15.0563 16.4544L15.9104 16.9669C16.1314 17.0991 16.3886 17.1575 16.6449 17.1338C16.9013 17.11 17.1434 17.0052 17.3362 16.8347C17.5291 16.6641 17.6626 16.4366 17.7175 16.1851C17.7724 15.9336 17.7459 15.6711 17.6417 15.4357L17.3167 14.6899ZM16.1354 16.619L15.2813 16.1065C15.0821 15.9869 14.8486 15.9372 14.6179 15.9655C14.3873 15.9938 14.1727 16.0985 14.0083 16.2628L12.5625 17.7086C12.4368 17.8333 12.2713 17.9097 12.0949 17.9246C11.9185 17.9395 11.7424 17.8919 11.5976 17.79C11.4528 17.6882 11.3484 17.5386 11.3028 17.3676C11.2571 17.1965 11.2731 17.0149 11.3479 16.8544L12.5458 14.2982C12.6114 14.1602 12.6454 14.0093 12.6454 13.8565C12.6454 13.7037 12.6114 13.5529 12.5458 13.4149L11.7917 11.7732C11.7138 11.6041 11.6896 11.4152 11.7223 11.2319C11.7551 11.0486 11.8433 10.8798 11.975 10.7482C12.4458 10.2753 12.9458 10.5399 13.5417 10.7378C13.7529 10.8084 13.9811 10.8095 14.193 10.7408C14.4048 10.6722 14.5891 10.5375 14.7188 10.3565L15.0729 9.85861C15.1831 9.70582 15.3386 9.59173 15.5175 9.53262C15.6963 9.47351 15.8892 9.4724 16.0687 9.52946C16.2482 9.58652 16.4051 9.69883 16.517 9.85035C16.6288 10.0019 16.69 10.1849 16.6917 10.3732V10.9399C16.6917 10.9951 16.7136 11.0481 16.7527 11.0872C16.7918 11.1262 16.8448 11.1482 16.9 11.1482H17.1333C17.3293 11.1487 17.521 11.2057 17.6854 11.3124C17.8497 11.4191 17.9799 11.5709 18.0601 11.7497C18.1404 11.9285 18.1674 12.1266 18.1379 12.3203C18.1084 12.5141 18.0236 12.6952 17.8938 12.8419L17.1083 13.7336C16.9752 13.883 16.8879 14.0675 16.8569 14.2652C16.8258 14.4628 16.8524 14.6652 16.9333 14.8482L17.2688 15.6024C17.339 15.7576 17.3576 15.9312 17.3218 16.0977C17.2861 16.2643 17.1978 16.415 17.07 16.5276C16.9422 16.6402 16.7816 16.7089 16.6119 16.7235C16.4422 16.7381 16.2722 16.6978 16.1271 16.6086L16.1354 16.619Z" fill="#231F20"/>
            <path d="M19.3999 15.3274C19.3823 15.1885 19.325 15.0576 19.235 14.9503C19.1449 14.843 19.0259 14.764 18.8921 14.7226C18.7583 14.6812 18.6154 14.6792 18.4805 14.7168C18.3456 14.7545 18.2244 14.8302 18.1314 14.9349C18.0384 15.0396 17.9775 15.1689 17.956 15.3073C17.9345 15.4457 17.9533 15.5873 18.0102 15.7153C18.0671 15.8433 18.1596 15.9522 18.2768 16.029C18.3939 16.1057 18.5307 16.1472 18.6707 16.1483C18.7747 16.1491 18.8777 16.1277 18.9727 16.0854C19.0677 16.0432 19.1526 15.9811 19.2217 15.9034C19.2907 15.8257 19.3424 15.734 19.3731 15.6347C19.4038 15.5354 19.413 15.4306 19.3999 15.3274ZM18.7103 15.7316C18.6274 15.7421 18.5438 15.7193 18.4778 15.6681C18.4117 15.6169 18.3687 15.5416 18.3582 15.4587C18.3477 15.3758 18.3706 15.2922 18.4218 15.2261C18.473 15.1601 18.5483 15.1171 18.6312 15.1066C18.714 15.0961 18.7977 15.119 18.8637 15.1701C18.9297 15.2213 18.9727 15.2966 18.9832 15.3795C18.9937 15.4624 18.9709 15.5461 18.9197 15.6121C18.8685 15.6781 18.7932 15.7211 18.7103 15.7316ZM13.5666 9.68994C13.6902 9.68994 13.811 9.65329 13.9138 9.58461C14.0166 9.51593 14.0967 9.41832 14.144 9.30412C14.1913 9.18992 14.2037 9.06425 14.1796 8.94301C14.1554 8.82177 14.0959 8.71041 14.0085 8.623C13.9211 8.53559 13.8097 8.47607 13.6885 8.45195C13.5673 8.42784 13.4416 8.44021 13.3274 8.48752C13.2132 8.53482 13.1156 8.61493 13.0469 8.71771C12.9782 8.82049 12.9416 8.94133 12.9416 9.06494C12.9416 9.2307 13.0074 9.38967 13.1246 9.50688C13.2418 9.62409 13.4008 9.68994 13.5666 9.68994ZM13.5666 8.85661C13.6218 8.85661 13.6748 8.87856 13.7139 8.91763C13.753 8.9567 13.7749 9.00969 13.7749 9.06494C13.7749 9.1202 13.753 9.17319 13.7139 9.21226C13.6748 9.25133 13.6218 9.27328 13.5666 9.27328C13.5113 9.27328 13.4583 9.25133 13.4193 9.21226C13.3802 9.17319 13.3582 9.1202 13.3582 9.06494C13.3582 9.00969 13.3802 8.9567 13.4193 8.91763C13.4583 8.87856 13.5113 8.85661 13.5666 8.85661ZM11.4832 13.4399C11.4832 13.2339 11.4221 13.0325 11.3077 12.8612C11.1932 12.6899 11.0305 12.5564 10.8402 12.4776C10.6499 12.3987 10.4404 12.3781 10.2384 12.4183C10.0363 12.4585 9.85068 12.5577 9.705 12.7034C9.55932 12.8491 9.46011 13.0347 9.41992 13.2367C9.37973 13.4388 9.40035 13.6482 9.47919 13.8386C9.55804 14.0289 9.69155 14.1916 9.86285 14.3061C10.0342 14.4205 10.2355 14.4816 10.4416 14.4816C10.7178 14.4816 10.9828 14.3719 11.1781 14.1765C11.3735 13.9812 11.4832 13.7162 11.4832 13.4399ZM10.4416 14.0649C10.318 14.0649 10.1971 14.0283 10.0943 13.9596C9.99156 13.8909 9.91145 13.7933 9.86414 13.6791C9.81684 13.5649 9.80446 13.4392 9.82858 13.318C9.85269 13.1968 9.91222 13.0854 9.99963 12.998C10.087 12.9106 10.1984 12.8511 10.3196 12.827C10.4409 12.8028 10.5665 12.8152 10.6807 12.8625C10.795 12.9098 10.8926 12.9899 10.9612 13.0927C11.0299 13.1955 11.0666 13.3163 11.0666 13.4399C11.0666 13.6057 11.0007 13.7647 10.8835 13.8819C10.7663 13.9991 10.6073 14.0649 10.4416 14.0649ZM14.6082 17.1899C14.4846 17.1899 14.3638 17.2266 14.261 17.2953C14.1582 17.3639 14.0781 17.4616 14.0308 17.5758C13.9835 17.69 13.9711 17.8156 13.9952 17.9369C14.0194 18.0581 14.0789 18.1695 14.1663 18.2569C14.2537 18.3443 14.3651 18.4038 14.4863 18.4279C14.6075 18.452 14.7332 18.4397 14.8474 18.3924C14.9616 18.3451 15.0592 18.265 15.1279 18.1622C15.1966 18.0594 15.2332 17.9386 15.2332 17.8149C15.2332 17.6492 15.1674 17.4902 15.0502 17.373C14.933 17.2558 14.774 17.1899 14.6082 17.1899ZM14.6082 18.0233C14.553 18.0233 14.5 18.0013 14.4609 17.9623C14.4219 17.9232 14.3999 17.8702 14.3999 17.8149C14.3999 17.7597 14.4219 17.7067 14.4609 17.6676C14.5 17.6286 14.553 17.6066 14.6082 17.6066C14.6635 17.6066 14.7165 17.6286 14.7556 17.6676C14.7946 17.7067 14.8166 17.7597 14.8166 17.8149C14.8166 17.8702 14.7946 17.9232 14.7556 17.9623C14.7165 18.0013 14.6635 18.0233 14.6082 18.0233Z" fill="#231F20"/>
        </g>
    </g>
    <defs>
        <clipPath id="clip0_13_13769">
            <rect width="48" height="48" fill="white"/>
        </clipPath>
        <clipPath id="clip1_13_13769">
            <rect width="10" height="10" fill="white" transform="translate(9.3999 8.43994)"/>
        </clipPath>
    </defs>
</svg>
