<svg width="400" height="400" viewBox="0 0 400 400" fill="none" xmlns="http://www.w3.org/2000/svg">
    <rect x="2" y="2" width="396" height="396" rx="198" fill="white"/>
    <rect x="2" y="2" width="396" height="396" rx="198" stroke="url(#paint0_radial_11967_103310)" stroke-width="4"/>
    <path d="M117.443 264.875C116.274 264.875 115.317 264.503 114.573 263.759C113.829 263.015 113.457 262.058 113.457 260.888V175.413H84.4332C83.3701 175.413 82.4664 175.041 81.7222 174.297C80.9781 173.553 80.606 172.649 80.606 171.586V157.234C80.606 156.064 80.9781 155.107 81.7222 154.363C82.4664 153.619 83.3701 153.247 84.4332 153.247H167.995C169.164 153.247 170.121 153.619 170.865 154.363C171.609 155.107 171.982 156.064 171.982 157.234V171.586C171.982 172.649 171.609 173.553 170.865 174.297C170.121 175.041 169.164 175.413 167.995 175.413H139.131V260.888C139.131 262.058 138.759 263.015 138.015 263.759C137.271 264.503 136.314 264.875 135.144 264.875H117.443Z" fill="url(#paint1_radial_11967_103310)"/>
    <path d="M272.178 264.875C271.008 264.875 270.051 264.503 269.307 263.759C268.563 263.015 268.191 262.058 268.191 260.888V175.413H239.168C238.104 175.413 237.201 175.041 236.457 174.297C235.712 173.553 235.34 172.649 235.34 171.586V157.234C235.34 156.064 235.712 155.107 236.457 154.363C237.201 153.619 238.104 153.247 239.168 153.247H322.729C323.899 153.247 324.855 153.619 325.6 154.363C326.344 155.107 326.716 156.064 326.716 157.234V171.586C326.716 172.649 326.344 173.553 325.6 174.297C324.855 175.041 323.899 175.413 322.729 175.413H293.865V260.888C293.865 262.058 293.493 263.015 292.749 263.759C292.005 264.503 291.048 264.875 289.879 264.875H272.178Z" fill="url(#paint2_radial_11967_103310)"/>
    <path d="M211.689 153.355C212.859 153.355 213.816 153.728 214.56 154.472C215.304 155.216 215.676 156.173 215.676 157.342L215.676 192.425L252.992 259.881C253.098 260.2 253.204 260.465 253.311 260.678C253.417 260.997 253.47 261.316 253.47 261.635C253.47 262.485 253.151 263.229 252.513 263.867C251.769 264.611 250.972 264.984 250.121 264.984L233.218 264.984C231.729 264.984 230.56 264.611 229.709 263.867C228.859 263.123 228.274 262.432 227.955 261.794L202.918 217.94L177.882 261.794C177.563 262.432 176.978 263.123 176.128 263.867C175.277 264.611 174.108 264.984 172.619 264.984L155.716 264.984C154.865 264.984 154.121 264.611 153.483 263.867C152.739 263.229 152.367 262.485 152.367 261.635C152.367 261.316 152.42 260.997 152.526 260.678C152.633 260.465 152.739 260.2 152.845 259.881L190.161 192.425L190.161 157.342C190.161 156.173 190.533 155.216 191.277 154.472C192.021 153.728 192.978 153.355 194.148 153.355L211.689 153.355Z" fill="url(#paint3_radial_11967_103310)"/>
    <defs>
        <radialGradient id="paint0_radial_11967_103310" cx="0" cy="0" r="1" gradientUnits="userSpaceOnUse" gradientTransform="translate(200 200) rotate(90) scale(200)">
            <stop stop-color="#19286D"/>
            <stop offset="1" stop-color="#214AFF"/>
        </radialGradient>
        <radialGradient id="paint1_radial_11967_103310" cx="0" cy="0" r="1" gradientUnits="userSpaceOnUse" gradientTransform="translate(126.598 210.375) rotate(90) scale(94.5 49.5)">
            <stop stop-color="#19286D"/>
            <stop offset="1" stop-color="#214AFF"/>
        </radialGradient>
        <radialGradient id="paint2_radial_11967_103310" cx="0" cy="0" r="1" gradientUnits="userSpaceOnUse" gradientTransform="translate(281.332 210.375) rotate(90) scale(94.5 49.5)">
            <stop stop-color="#19286D"/>
            <stop offset="1" stop-color="#214AFF"/>
        </radialGradient>
        <radialGradient id="paint3_radial_11967_103310" cx="0" cy="0" r="1" gradientUnits="userSpaceOnUse" gradientTransform="translate(202.5 207.855) rotate(-90) scale(94.5 54)">
            <stop stop-color="#19286D"/>
            <stop offset="1" stop-color="#214AFF"/>
        </radialGradient>
    </defs>
</svg>
